STARTFONT 2.1
COMMENT
COMMENT Converted from OpenType font "DejaVuSansCondensed.ttf" by "otf2bdf 3.0".
COMMENT
FONT -FreeType-DejaVu Sans Condensed-Medium-R-Normal--39-280-100-100-P-198-ISO10646-1
SIZE 28 100 100
FONTBOUNDINGBOX 95 57 -36 -15
STARTPROPERTIES 19
FOUNDRY "FreeType"
FAMILY_NAME "DejaVu Sans Condensed"
WEIGHT_NAME "Medium"
SLANT "R"
SETWIDTH_NAME "Normal"
ADD_STYLE_NAME ""
PIXEL_SIZE 39
POINT_SIZE 280
RESOLUTION_X 100
RESOLUTION_Y 100
SPACING "P"
AVERAGE_WIDTH 198
CHARSET_REGISTRY "ISO10646"
CHARSET_ENCODING "1"
FONT_ASCENT 36
FONT_DESCENT 9
COPYRIGHT "Copyright (c) 2003 by Bitstream, Inc. All Rights Reserved.  Copyright (c) 2006 by Tavmjong Bah. All Rights Reserved.  DejaVu changes are in public domain  "
_OTF_FONTFILE "DejaVuSansCondensed.ttf"
_OTF_PSNAME "DejaVuSansCondensed"
ENDPROPERTIES
CHARS 5370
STARTCHAR 0020
ENCODING 32
SWIDTH 282 0
DWIDTH 11 0
BBX 0 0 0 0
BITMAP
ENDCHAR
STARTCHAR 0021
ENCODING 33
SWIDTH 360 0
DWIDTH 14 0
BBX 4 28 5 0
BITMAP
F0
F0
F0
F0
F0
F0
F0
F0
F0
F0
F0
F0
F0
F0
F0
F0
70
70
60
00
00
00
00
F0
F0
F0
F0
F0
ENDCHAR
STARTCHAR 0022
ENCODING 34
SWIDTH 411 0
DWIDTH 16 0
BBX 10 10 3 18
BITMAP
E1C0
E1C0
E1C0
E1C0
E1C0
E1C0
E1C0
E1C0
E1C0
E1C0
ENDCHAR
STARTCHAR 0023
ENCODING 35
SWIDTH 745 0
DWIDTH 29 0
BBX 24 28 3 0
BITMAP
007070
007070
007070
007060
0060E0
00E0E0
00E0E0
00E0C0
3FFFFF
3FFFFF
3FFFFF
01C1C0
01C180
018380
038380
038380
038300
FFFFFC
FFFFFC
FFFFFC
070700
070600
060E00
0E0E00
0E0E00
0E0C00
0C1C00
1C1C00
ENDCHAR
STARTCHAR 0024
ENCODING 36
SWIDTH 565 0
DWIDTH 22 0
BBX 16 36 3 -6
BITMAP
0180
0180
0180
0180
0180
0FF8
3FFE
7FFE
7186
F180
E180
E180
E180
F180
F980
7F80
3FF0
1FFC
01FE
019F
018F
0187
0187
0187
0187
818F
E19E
FFFE
FFFC
1FE0
0180
0180
0180
0180
0180
0180
ENDCHAR
STARTCHAR 0025
ENCODING 37
SWIDTH 848 0
DWIDTH 33 0
BBX 29 30 2 -1
BITMAP
0F000700
3FC00600
7FC00E00
70E01C00
E0E01C00
E0703800
E0703800
E0707000
E0706000
E070E000
E060C000
E0E1C000
71E18000
3FC38000
1F8707C0
00070FE0
000E1EF0
000E3838
001C3838
00183838
00383018
00303018
00703018
00603018
00E03838
01C03838
01C01C70
03801FF0
03800FE0
07000100
ENDCHAR
STARTCHAR 0026
ENCODING 38
SWIDTH 694 0
DWIDTH 27 0
BBX 24 30 2 -1
BITMAP
01F800
03FF00
07FF00
0F0700
1E0100
1E0000
1C0000
1C0000
1E0000
0E0000
0F0000
078000
0FC000
1FE000
3DF00E
78F00E
70780E
703C1C
F01E1C
F00F1C
F00FB8
F007F8
F003F0
7001F0
7801F0
3C03F8
3FFFBC
1FFF1E
07FC0F
004000
ENDCHAR
STARTCHAR 0027
ENCODING 39
SWIDTH 257 0
DWIDTH 10 0
BBX 3 10 3 18
BITMAP
E0
E0
E0
E0
E0
E0
E0
E0
E0
E0
ENDCHAR
STARTCHAR 0028
ENCODING 40
SWIDTH 360 0
DWIDTH 14 0
BBX 8 35 3 -5
BITMAP
07
06
0E
0C
1C
1C
38
38
78
70
70
70
F0
F0
F0
E0
E0
E0
E0
E0
E0
F0
F0
70
70
70
70
38
38
38
1C
1C
0E
0E
07
ENDCHAR
STARTCHAR 0029
ENCODING 41
SWIDTH 360 0
DWIDTH 14 0
BBX 8 35 3 -5
BITMAP
E0
E0
70
70
38
38
38
1C
1C
1C
0E
0E
0E
0E
0E
0F
0F
0F
0F
0F
0F
0E
0E
0E
0E
1E
1C
1C
1C
38
38
70
70
60
E0
ENDCHAR
STARTCHAR 002A
ENCODING 42
SWIDTH 462 0
DWIDTH 18 0
BBX 15 18 1 11
BITMAP
0180
0180
0180
0182
E186
F19E
3DB8
0FF0
07C0
07C0
0FF0
3DBC
F19E
E186
0182
0180
0180
0180
ENDCHAR
STARTCHAR 002B
ENCODING 43
SWIDTH 745 0
DWIDTH 29 0
BBX 22 24 4 0
BITMAP
007000
007000
007000
007000
007000
007000
007000
007000
007000
007000
FFFFFC
FFFFFC
FFFFFC
007000
007000
007000
007000
007000
007000
007000
007000
007000
007000
007000
ENDCHAR
STARTCHAR 002C
ENCODING 44
SWIDTH 282 0
DWIDTH 11 0
BBX 5 10 3 -5
BITMAP
78
78
78
78
70
70
E0
E0
C0
C0
ENDCHAR
STARTCHAR 002D
ENCODING 45
SWIDTH 334 0
DWIDTH 13 0
BBX 9 3 2 9
BITMAP
FF80
FF80
FF80
ENDCHAR
STARTCHAR 002E
ENCODING 46
SWIDTH 282 0
DWIDTH 11 0
BBX 3 5 4 0
BITMAP
E0
E0
E0
E0
E0
ENDCHAR
STARTCHAR 002F
ENCODING 47
SWIDTH 308 0
DWIDTH 12 0
BBX 12 32 0 -4
BITMAP
0070
00E0
00E0
00E0
00C0
01C0
01C0
01C0
0380
0380
0380
0380
0700
0700
0700
0E00
0E00
0E00
0E00
1C00
1C00
1C00
1800
3800
3800
3800
7000
7000
7000
7000
E000
E000
ENDCHAR
STARTCHAR 0030
ENCODING 48
SWIDTH 565 0
DWIDTH 22 0
BBX 18 30 2 -1
BITMAP
03F000
07FC00
0FFE00
1E1F00
3C0F00
380780
780780
780380
700380
7003C0
7003C0
F003C0
F003C0
F003C0
F001C0
F001C0
F003C0
F003C0
F003C0
7003C0
7003C0
700380
780380
380780
3C0700
3E0F00
1FFE00
0FFC00
07F800
004000
ENDCHAR
STARTCHAR 0031
ENCODING 49
SWIDTH 565 0
DWIDTH 22 0
BBX 15 28 4 0
BITMAP
3F80
FF80
FF80
F380
0380
0380
0380
0380
0380
0380
0380
0380
0380
0380
0380
0380
0380
0380
0380
0380
0380
0380
0380
0380
0380
FFFE
FFFE
FFFE
ENDCHAR
STARTCHAR 0032
ENCODING 50
SWIDTH 565 0
DWIDTH 22 0
BBX 16 29 3 0
BITMAP
0FC0
7FF0
FFFC
F8FC
C01E
001E
000F
000F
000F
000F
000E
001E
001E
003C
0078
0078
00F0
01E0
03C0
0780
0F00
1E00
3E00
3C00
7800
F000
FFFF
FFFF
FFFF
ENDCHAR
STARTCHAR 0033
ENCODING 51
SWIDTH 565 0
DWIDTH 22 0
BBX 17 30 3 -1
BITMAP
1FE000
FFF800
FFFC00
F87E00
801E00
000F00
000F00
000F00
000F00
000F00
000E00
001E00
0FFC00
0FF000
0FF800
00FE00
001E00
000F00
000700
000700
000780
000700
000700
000F00
000F00
C03E00
FFFE00
FFFC00
7FF000
020000
ENDCHAR
STARTCHAR 0034
ENCODING 52
SWIDTH 565 0
DWIDTH 22 0
BBX 18 28 2 0
BITMAP
003E00
007E00
007E00
00FE00
01DE00
01DE00
039E00
039E00
071E00
0E1E00
0E1E00
1C1E00
1C1E00
381E00
381E00
701E00
E01E00
E01E00
FFFFC0
FFFFC0
FFFFC0
001E00
001E00
001E00
001E00
001E00
001E00
001E00
ENDCHAR
STARTCHAR 0035
ENCODING 53
SWIDTH 565 0
DWIDTH 22 0
BBX 16 29 3 -1
BITMAP
7FFC
7FFC
7FFC
7000
7000
7000
7000
7000
7000
77C0
7FF0
7FF8
7DFC
403E
001E
000F
000F
0007
0007
0007
0007
000F
000F
001E
C03E
FFFC
FFF8
FFF0
0200
ENDCHAR
STARTCHAR 0036
ENCODING 54
SWIDTH 565 0
DWIDTH 22 0
BBX 18 30 2 -1
BITMAP
00FC00
03FF00
07FF00
0F8700
1E0000
3C0000
3C0000
380000
780000
700000
70F000
73FC00
77FF00
FF1F00
FC0780
FC0380
F803C0
7803C0
7801C0
7801C0
7801C0
7801C0
7803C0
3803C0
3C0780
1E0780
1FFF00
0FFE00
07FC00
004000
ENDCHAR
STARTCHAR 0037
ENCODING 55
SWIDTH 565 0
DWIDTH 22 0
BBX 16 28 3 0
BITMAP
FFFF
FFFF
FFFF
000F
000E
001E
001C
001C
003C
0038
0078
0078
0070
00F0
00F0
00E0
01E0
01E0
01C0
03C0
03C0
0380
0780
0780
0700
0F00
0F00
0E00
ENDCHAR
STARTCHAR 0038
ENCODING 56
SWIDTH 565 0
DWIDTH 22 0
BBX 18 30 2 -1
BITMAP
03F000
0FFC00
1FFF00
3E1F00
7C0780
780780
780380
700380
700380
780380
380780
3C0F00
1FFE00
07FC00
0FFC00
1FFF00
3C0F80
780780
7003C0
F003C0
F003C0
F003C0
F003C0
7003C0
780780
7C0780
3FFF00
1FFE00
0FFC00
00C000
ENDCHAR
STARTCHAR 0039
ENCODING 57
SWIDTH 565 0
DWIDTH 22 0
BBX 18 30 2 -1
BITMAP
03F000
0FF800
1FFE00
3E1E00
780F00
780700
700780
F00380
F00380
F00380
F003C0
F003C0
F007C0
7007C0
780FC0
3C0FC0
3FFFC0
1FFBC0
07F3C0
000380
000380
000780
000780
000700
000F00
203E00
3FFC00
3FF800
3FF000
010000
ENDCHAR
STARTCHAR 003A
ENCODING 58
SWIDTH 308 0
DWIDTH 12 0
BBX 4 20 4 0
BITMAP
F0
F0
F0
F0
F0
00
00
00
00
00
00
00
00
00
00
F0
F0
F0
F0
F0
ENDCHAR
STARTCHAR 003B
ENCODING 59
SWIDTH 308 0
DWIDTH 12 0
BBX 5 25 3 -5
BITMAP
78
78
78
78
78
00
00
00
00
00
00
00
00
00
00
78
78
78
78
70
70
E0
E0
C0
C0
ENDCHAR
STARTCHAR 003C
ENCODING 60
SWIDTH 745 0
DWIDTH 29 0
BBX 22 21 4 2
BITMAP
000004
00001C
0000FC
0003FC
001FF0
007F80
03FE00
0FF000
7FC000
FE0000
F80000
FC0000
FF0000
1FE000
07F800
00FF00
003FE0
000FF8
0001FC
00007C
00000C
ENDCHAR
STARTCHAR 003D
ENCODING 61
SWIDTH 745 0
DWIDTH 29 0
BBX 22 11 4 7
BITMAP
FFFFFC
FFFFFC
FFFFFC
000000
000000
000000
000000
000000
FFFFFC
FFFFFC
FFFFFC
ENDCHAR
STARTCHAR 003E
ENCODING 62
SWIDTH 745 0
DWIDTH 29 0
BBX 22 20 4 3
BITMAP
E00000
F80000
FF0000
7FC000
0FF800
01FE00
007F80
000FF0
0003FC
00007C
0000FC
0007F8
003FE0
00FF00
07FC00
1FE000
FF8000
FC0000
F00000
800000
ENDCHAR
STARTCHAR 003F
ENCODING 63
SWIDTH 488 0
DWIDTH 19 0
BBX 13 29 3 0
BITMAP
1F80
7FE0
FFF0
F1F0
8078
0078
0038
0038
0078
0078
00F0
01E0
03C0
0780
0780
0F00
0E00
0E00
0E00
0E00
0E00
0000
0000
0000
0E00
0E00
0E00
0E00
0E00
ENDCHAR
STARTCHAR 0040
ENCODING 64
SWIDTH 900 0
DWIDTH 35 0
BBX 31 34 2 -7
BITMAP
001FF800
007FFE00
01FC3F80
03E007C0
078001E0
0E0000F0
1C000070
1C000038
38078018
301FEE1C
703FFE0C
70383E0C
60701E0E
60701E0E
E0E00E0E
E0E00E0E
E0E00E0E
E0E00E0C
E0E00E0C
60600E1C
60701E38
60781E78
703EFFF0
301FFFE0
380FCF80
38000000
1C000000
0E000000
0F000180
07C00380
03F01F80
00FFFE00
003FFC00
0007E000
ENDCHAR
STARTCHAR 0041
ENCODING 65
SWIDTH 617 0
DWIDTH 24 0
BBX 24 28 0 0
BITMAP
003C00
007E00
007E00
007E00
00FF00
00E700
00E700
01E780
01C380
01C380
03C3C0
0381C0
0381C0
0781E0
0700E0
0700E0
0F00F0
0E0070
0FFFF0
1FFFF8
1FFFF8
3C003C
3C003C
38001C
78001E
78001E
70000E
F0000F
ENDCHAR
STARTCHAR 0042
ENCODING 66
SWIDTH 617 0
DWIDTH 24 0
BBX 19 28 3 0
BITMAP
FFFC00
FFFF00
FFFF00
F00F80
F00780
F00380
F003C0
F00380
F00380
F00780
F00F80
FFFF00
FFFC00
FFFE00
F03F80
F00780
F003C0
F001C0
F001C0
F001E0
F001E0
F001C0
F003C0
F003C0
F00F80
FFFF80
FFFE00
FFF800
ENDCHAR
STARTCHAR 0043
ENCODING 67
SWIDTH 642 0
DWIDTH 25 0
BBX 21 30 2 -1
BITMAP
007F00
03FFE0
07FFF0
0FC1F8
1F0038
3E0018
3C0008
780000
780000
700000
F00000
F00000
F00000
F00000
F00000
F00000
F00000
F00000
F00000
F00000
700000
780000
780000
3C0008
3E0018
1F8078
0FFFF8
07FFF0
01FFC0
000800
ENDCHAR
STARTCHAR 0044
ENCODING 68
SWIDTH 694 0
DWIDTH 27 0
BBX 22 28 3 0
BITMAP
FFFC00
FFFF80
FFFFC0
F007E0
F001F0
F000F0
F00078
F00078
F00038
F0003C
F0003C
F0003C
F0003C
F0003C
F0003C
F0003C
F0003C
F0003C
F0003C
F00078
F00078
F000F8
F000F0
F003E0
F00FE0
FFFF80
FFFF00
FFF800
ENDCHAR
STARTCHAR 0045
ENCODING 69
SWIDTH 565 0
DWIDTH 22 0
BBX 17 28 3 0
BITMAP
FFFF80
FFFF80
FFFF80
F00000
F00000
F00000
F00000
F00000
F00000
F00000
F00000
FFFF00
FFFF00
FFFF00
F00000
F00000
F00000
F00000
F00000
F00000
F00000
F00000
F00000
F00000
F00000
FFFF80
FFFF80
FFFF80
ENDCHAR
STARTCHAR 0046
ENCODING 70
SWIDTH 514 0
DWIDTH 20 0
BBX 15 28 3 0
BITMAP
FFFE
FFFE
FFFE
F000
F000
F000
F000
F000
F000
F000
F000
FFFC
FFFC
FFFC
F000
F000
F000
F000
F000
F000
F000
F000
F000
F000
F000
F000
F000
F000
ENDCHAR
STARTCHAR 0047
ENCODING 71
SWIDTH 694 0
DWIDTH 27 0
BBX 22 30 2 -1
BITMAP
007F80
03FFE0
07FFF8
0FC0FC
1F003C
3E000C
3C0004
780000
780000
700000
F00000
F00000
F00000
F00000
F007FC
F007FC
F007FC
F0001C
F0001C
F0001C
70001C
78001C
78001C
3C001C
3E001C
1F803C
0FFFFC
07FFF8
01FFE0
000800
ENDCHAR
STARTCHAR 0048
ENCODING 72
SWIDTH 668 0
DWIDTH 26 0
BBX 20 28 3 0
BITMAP
F000F0
F000F0
F000F0
F000F0
F000F0
F000F0
F000F0
F000F0
F000F0
F000F0
F000F0
FFFFF0
FFFFF0
FFFFF0
F000F0
F000F0
F000F0
F000F0
F000F0
F000F0
F000F0
F000F0
F000F0
F000F0
F000F0
F000F0
F000F0
F000F0
ENDCHAR
STARTCHAR 0049
ENCODING 73
SWIDTH 257 0
DWIDTH 10 0
BBX 4 28 3 0
BITMAP
F0
F0
F0
F0
F0
F0
F0
F0
F0
F0
F0
F0
F0
F0
F0
F0
F0
F0
F0
F0
F0
F0
F0
F0
F0
F0
F0
F0
ENDCHAR
STARTCHAR 004A
ENCODING 74
SWIDTH 257 0
DWIDTH 10 0
BBX 9 36 -2 -8
BITMAP
0780
0780
0780
0780
0780
0780
0780
0780
0780
0780
0780
0780
0780
0780
0780
0780
0780
0780
0780
0780
0780
0780
0780
0780
0780
0780
0780
0780
0780
0780
0700
0F00
3F00
FE00
FC00
F000
ENDCHAR
STARTCHAR 004B
ENCODING 75
SWIDTH 591 0
DWIDTH 23 0
BBX 20 28 3 0
BITMAP
F003E0
F003C0
F00780
F00F00
F01E00
F03C00
F07800
F0F000
F1E000
F3C000
F78000
FF0000
FE0000
FF0000
FF8000
F7C000
F3C000
F1E000
F0F000
F07800
F07C00
F03E00
F01F00
F00F80
F007C0
F003E0
F001E0
F000F0
ENDCHAR
STARTCHAR 004C
ENCODING 76
SWIDTH 514 0
DWIDTH 20 0
BBX 16 28 3 0
BITMAP
F000
F000
F000
F000
F000
F000
F000
F000
F000
F000
F000
F000
F000
F000
F000
F000
F000
F000
F000
F000
F000
F000
F000
F000
F000
FFFF
FFFF
FFFF
ENDCHAR
STARTCHAR 004D
ENCODING 77
SWIDTH 771 0
DWIDTH 30 0
BBX 24 28 3 0
BITMAP
FC003F
FC003F
FE003F
FE007F
FE007F
F7007F
F700EF
F700EF
F380EF
F381CF
F381CF
F1C1CF
F1C38F
F1C38F
F0E38F
F0E70F
F0E70F
F0770F
F07E0F
F07E0F
F03E0F
F03C0F
F03C0F
F0000F
F0000F
F0000F
F0000F
F0000F
ENDCHAR
STARTCHAR 004E
ENCODING 78
SWIDTH 668 0
DWIDTH 26 0
BBX 20 28 3 0
BITMAP
FC00F0
FC00F0
FE00F0
FE00F0
FE00F0
FF00F0
F700F0
F780F0
F380F0
F3C0F0
F1C0F0
F1E0F0
F0E0F0
F0F0F0
F070F0
F078F0
F038F0
F03CF0
F01CF0
F01EF0
F00EF0
F00FF0
F007F0
F007F0
F007F0
F003F0
F003F0
F001F0
ENDCHAR
STARTCHAR 004F
ENCODING 79
SWIDTH 720 0
DWIDTH 28 0
BBX 24 30 2 -1
BITMAP
007E00
03FFC0
07FFE0
0FC3F0
1F00F8
3C0078
3C003C
78003C
78001E
70001E
F0000E
F0000E
F0000F
F0000F
F0000F
F0000F
F0000F
F0000F
F0000E
F0001E
70001E
78001E
78003C
3C003C
3E0078
1F01F0
0FFFF0
07FFC0
01FF80
001000
ENDCHAR
STARTCHAR 0050
ENCODING 80
SWIDTH 540 0
DWIDTH 21 0
BBX 17 28 3 0
BITMAP
FFF800
FFFE00
FFFE00
F01F00
F00F00
F00780
F00780
F00780
F00780
F00780
F00780
F00F00
F01F00
FFFF00
FFFE00
FFF800
FF8000
F00000
F00000
F00000
F00000
F00000
F00000
F00000
F00000
F00000
F00000
F00000
ENDCHAR
STARTCHAR 0051
ENCODING 81
SWIDTH 720 0
DWIDTH 28 0
BBX 24 34 2 -5
BITMAP
007E00
03FFC0
07FFE0
0FC3F0
1F00F8
3C0078
3C003C
78003C
78001E
70001E
F0000E
F0000E
F0000F
F0000F
F0000F
F0000F
F0000F
F0000E
F0000E
F0001E
70001E
78001E
78003C
3C003C
3E0078
1F01F0
0FFFF0
07FFC0
01FF80
001FC0
0003C0
0001E0
0000F0
000078
ENDCHAR
STARTCHAR 0052
ENCODING 82
SWIDTH 617 0
DWIDTH 24 0
BBX 20 28 3 0
BITMAP
FFF800
FFFE00
FFFF00
F01F00
F00F80
F00780
F00780
F00780
F00780
F00780
F00780
F00F00
F03F00
FFFE00
FFF800
FFFC00
F03E00
F00E00
F00F00
F00780
F00780
F00380
F003C0
F001C0
F001E0
F000E0
F000F0
F000F0
ENDCHAR
STARTCHAR 0053
ENCODING 83
SWIDTH 565 0
DWIDTH 22 0
BBX 18 30 2 -1
BITMAP
03F800
0FFF80
3FFF80
3E0F80
780180
700000
F00000
F00000
F00000
F00000
780000
7C0000
7FC000
3FF800
0FFE00
03FF00
003F80
0007C0
0003C0
0003C0
0001C0
0001C0
0001C0
0003C0
C003C0
F00780
FFFF80
FFFF00
3FFC00
008000
ENDCHAR
STARTCHAR 0054
ENCODING 84
SWIDTH 540 0
DWIDTH 21 0
BBX 22 28 0 0
BITMAP
FFFFFC
FFFFFC
FFFFFC
007000
007000
007000
007000
007000
007000
007000
007000
007000
007000
007000
007000
007000
007000
007000
007000
007000
007000
007000
007000
007000
007000
007000
007000
007000
ENDCHAR
STARTCHAR 0055
ENCODING 85
SWIDTH 668 0
DWIDTH 26 0
BBX 20 29 3 -1
BITMAP
F000F0
F000F0
F000F0
F000F0
F000F0
F000F0
F000F0
F000F0
F000F0
F000F0
F000F0
F000F0
F000F0
F000F0
F000F0
F000F0
F000F0
F000F0
F000F0
F000F0
F000E0
F000E0
7001E0
7801E0
3C07C0
3FFF80
1FFF00
07FE00
004000
ENDCHAR
STARTCHAR 0056
ENCODING 86
SWIDTH 617 0
DWIDTH 24 0
BBX 22 28 1 0
BITMAP
E0001C
F0003C
F0003C
700038
780078
780078
380070
3C00F0
3C00F0
1C00E0
1E01E0
1E01E0
0E01C0
0F03C0
0F03C0
070380
078780
078780
038700
03CF00
03CF00
01CE00
01FE00
01FE00
00FC00
00FC00
007C00
007800
ENDCHAR
STARTCHAR 0057
ENCODING 87
SWIDTH 900 0
DWIDTH 35 0
BBX 32 28 1 0
BITMAP
F003E007
7003E007
7003E00F
7803E00F
7807600E
3807700E
3807701E
3806701E
3C0E301E
3C0E381C
1C0E381C
1C0E383C
1E1C383C
1E1C1838
0E1C1C38
0E1C1C78
0E181C78
0F381C78
0F380E70
07380E70
07380EF0
07F00EF0
07F006E0
03F007E0
03F007E0
03E007E0
03E007C0
03E003C0
ENDCHAR
STARTCHAR 0058
ENCODING 88
SWIDTH 617 0
DWIDTH 24 0
BBX 22 28 1 0
BITMAP
380078
3C0070
1E00F0
0E01E0
0F01C0
0703C0
078780
03C780
01CF00
01EE00
00FE00
00FC00
007C00
007800
00FC00
00FE00
01FE00
03CF00
038700
078780
0703C0
0F03C0
1E01E0
1C00E0
3C00F0
380070
780078
F0003C
ENDCHAR
STARTCHAR 0059
ENCODING 89
SWIDTH 540 0
DWIDTH 21 0
BBX 21 28 0 0
BITMAP
F00078
780070
3800F0
3C01E0
1E01E0
0E03C0
0F0380
070780
078F00
03CE00
01DE00
01FC00
00FC00
00F800
007000
007000
007000
007000
007000
007000
007000
007000
007000
007000
007000
007000
007000
007000
ENDCHAR
STARTCHAR 005A
ENCODING 90
SWIDTH 617 0
DWIDTH 24 0
BBX 20 28 2 0
BITMAP
FFFFF0
FFFFF0
FFFFF0
0001E0
0001E0
0003C0
000780
000F00
000F00
001E00
003C00
007C00
007800
00F000
01E000
01E000
03C000
078000
0F0000
0F0000
1E0000
3C0000
7C0000
780000
F00000
FFFFF0
FFFFF0
FFFFF0
ENDCHAR
STARTCHAR 005B
ENCODING 91
SWIDTH 360 0
DWIDTH 14 0
BBX 7 35 3 -5
BITMAP
FE
FE
FE
E0
E0
E0
E0
E0
E0
E0
E0
E0
E0
E0
E0
E0
E0
E0
E0
E0
E0
E0
E0
E0
E0
E0
E0
E0
E0
E0
E0
E0
FE
FE
FE
ENDCHAR
STARTCHAR 005C
ENCODING 92
SWIDTH 308 0
DWIDTH 12 0
BBX 12 32 0 -4
BITMAP
E000
6000
7000
7000
7000
3800
3800
3800
3800
1C00
1C00
1C00
0E00
0E00
0E00
0E00
0700
0700
0700
0300
0380
0380
0380
01C0
01C0
01C0
01C0
00E0
00E0
00E0
0070
0070
ENDCHAR
STARTCHAR 005D
ENCODING 93
SWIDTH 360 0
DWIDTH 14 0
BBX 8 35 3 -5
BITMAP
FF
FF
FF
0F
0F
0F
0F
0F
0F
0F
0F
0F
0F
0F
0F
0F
0F
0F
0F
0F
0F
0F
0F
0F
0F
0F
0F
0F
0F
0F
0F
0F
FF
FF
FF
ENDCHAR
STARTCHAR 005E
ENCODING 94
SWIDTH 745 0
DWIDTH 29 0
BBX 21 10 4 18
BITMAP
00F800
01FC00
03FE00
03CF00
078780
0F03C0
1E01C0
3C00E0
780070
F00038
ENDCHAR
STARTCHAR 005F
ENCODING 95
SWIDTH 462 0
DWIDTH 18 0
BBX 18 3 0 -9
BITMAP
FFFFC0
FFFFC0
FFFFC0
ENDCHAR
STARTCHAR 0060
ENCODING 96
SWIDTH 462 0
DWIDTH 18 0
BBX 8 7 3 24
BITMAP
F0
70
38
1C
0C
0E
07
ENDCHAR
STARTCHAR 0061
ENCODING 97
SWIDTH 565 0
DWIDTH 22 0
BBX 16 23 2 -1
BITMAP
07E0
3FF8
7FFC
783E
400E
0007
0007
0007
0007
0FFF
3FFF
7E07
7007
F007
E007
E007
E00F
F00F
701F
7E7F
3FF7
1FE7
0200
ENDCHAR
STARTCHAR 0062
ENCODING 98
SWIDTH 565 0
DWIDTH 22 0
BBX 17 31 3 -1
BITMAP
E00000
E00000
E00000
E00000
E00000
E00000
E00000
E00000
E1F000
E7FC00
EFFE00
EE1E00
F80F00
F80700
F00780
F00380
F00380
E00380
E00380
E00380
E00380
E00380
F00380
F00380
F00780
F80700
FC0F00
EF3E00
EFFC00
E3F800
004000
ENDCHAR
STARTCHAR 0063
ENCODING 99
SWIDTH 488 0
DWIDTH 19 0
BBX 15 23 2 -1
BITMAP
01F0
0FFE
1FFE
3E0E
3C00
7800
7000
F000
F000
E000
E000
E000
E000
E000
F000
F000
7000
7800
3C02
3FBE
1FFE
07FC
0040
ENDCHAR
STARTCHAR 0064
ENCODING 100
SWIDTH 565 0
DWIDTH 22 0
BBX 17 31 2 -1
BITMAP
000380
000380
000380
000380
000380
000380
000380
000380
03C380
0FF380
1FFB80
3E3F80
780F80
700780
700780
F00780
E00380
E00380
E00380
E00380
E00380
E00380
E00380
F00780
700780
780F80
7C0F80
3E3F80
1FFB80
0FF380
010000
ENDCHAR
STARTCHAR 0065
ENCODING 101
SWIDTH 565 0
DWIDTH 22 0
BBX 18 23 2 -1
BITMAP
01F000
0FFC00
1FFE00
3E1F00
380700
780380
700380
F00380
E003C0
FFFFC0
FFFFC0
FFFFC0
E00000
E00000
F00000
F00000
700000
780000
3C0180
1FDF80
0FFF80
07FF00
004000
ENDCHAR
STARTCHAR 0066
ENCODING 102
SWIDTH 308 0
DWIDTH 12 0
BBX 12 30 1 0
BITMAP
00F0
07F0
0FF0
1F00
1C00
1C00
1C00
1C00
1C00
FFE0
FFE0
1C00
1C00
1C00
1C00
1C00
1C00
1C00
1C00
1C00
1C00
1C00
1C00
1C00
1C00
1C00
1C00
1C00
1C00
1C00
ENDCHAR
STARTCHAR 0067
ENCODING 103
SWIDTH 565 0
DWIDTH 22 0
BBX 17 30 2 -8
BITMAP
03C000
0FF380
1FFB80
3E3F80
780F80
700780
F00780
F00380
E00380
E00380
E00380
E00380
E00380
E00380
F00380
F00780
700780
780F80
3C1F80
3FFB80
1FF380
07E380
000380
000780
000700
000F00
301F00
3FFE00
3FFC00
0FF000
ENDCHAR
STARTCHAR 0068
ENCODING 104
SWIDTH 565 0
DWIDTH 22 0
BBX 16 30 3 0
BITMAP
E000
E000
E000
E000
E000
E000
E000
E000
E1F0
E7FC
EFFE
EE3E
F80F
F00F
F007
F007
E007
E007
E007
E007
E007
E007
E007
E007
E007
E007
E007
E007
E007
E007
ENDCHAR
STARTCHAR 0069
ENCODING 105
SWIDTH 257 0
DWIDTH 10 0
BBX 3 30 3 0
BITMAP
E0
E0
E0
E0
E0
00
00
00
00
E0
E0
E0
E0
E0
E0
E0
E0
E0
E0
E0
E0
E0
E0
E0
E0
E0
E0
E0
E0
E0
ENDCHAR
STARTCHAR 006A
ENCODING 106
SWIDTH 257 0
DWIDTH 10 0
BBX 7 38 -1 -8
BITMAP
0E
0E
0E
0E
0E
00
00
00
00
0E
0E
0E
0E
0E
0E
0E
0E
0E
0E
0E
0E
0E
0E
0E
0E
0E
0E
0E
0E
0E
0E
0E
0E
0E
1E
FE
FC
F8
ENDCHAR
STARTCHAR 006B
ENCODING 107
SWIDTH 514 0
DWIDTH 20 0
BBX 17 30 3 0
BITMAP
E00000
E00000
E00000
E00000
E00000
E00000
E00000
E00000
E00000
E00F00
E01E00
E03C00
E07800
E0F000
E1E000
E3C000
E78000
EF0000
FE0000
FE0000
EF0000
E78000
E3C000
E1E000
E0F000
E07800
E03C00
E01E00
E00F00
E00780
ENDCHAR
STARTCHAR 006C
ENCODING 108
SWIDTH 257 0
DWIDTH 10 0
BBX 3 30 3 0
BITMAP
E0
E0
E0
E0
E0
E0
E0
E0
E0
E0
E0
E0
E0
E0
E0
E0
E0
E0
E0
E0
E0
E0
E0
E0
E0
E0
E0
E0
E0
E0
ENDCHAR
STARTCHAR 006D
ENCODING 109
SWIDTH 874 0
DWIDTH 34 0
BBX 28 22 3 0
BITMAP
01F00F00
E7F83FC0
EFFC7FE0
EE3EF3E0
F81FC0F0
F00F80F0
F00F0070
F00F0070
E0070070
E0070070
E0070070
E0070070
E0070070
E0070070
E0070070
E0070070
E0070070
E0070070
E0070070
E0070070
E0070070
E0070070
ENDCHAR
STARTCHAR 006E
ENCODING 110
SWIDTH 565 0
DWIDTH 22 0
BBX 16 22 3 0
BITMAP
01F0
E7FC
EFFE
EE3E
F80F
F00F
F007
F007
E007
E007
E007
E007
E007
E007
E007
E007
E007
E007
E007
E007
E007
E007
ENDCHAR
STARTCHAR 006F
ENCODING 111
SWIDTH 540 0
DWIDTH 21 0
BBX 18 23 2 -1
BITMAP
03E000
0FF800
1FFE00
3E1E00
780F00
780780
700780
F00380
E00380
E00380
E003C0
E003C0
E003C0
E00380
F00380
F00380
700780
780700
3C0F00
3F7E00
1FFC00
0FF800
008000
ENDCHAR
STARTCHAR 0070
ENCODING 112
SWIDTH 565 0
DWIDTH 22 0
BBX 17 30 3 -8
BITMAP
01F000
E7FC00
EFFE00
EE1E00
F80F00
F80700
F00780
F00380
F00380
E00380
E00380
E00380
E00380
E00380
F00380
F00380
F00780
F80700
FC0F00
EF3E00
EFFC00
E3F800
E04000
E00000
E00000
E00000
E00000
E00000
E00000
E00000
ENDCHAR
STARTCHAR 0071
ENCODING 113
SWIDTH 565 0
DWIDTH 22 0
BBX 17 30 2 -8
BITMAP
03C000
0FF380
1FFB80
3E3F80
780F80
700780
700780
F00780
E00380
E00380
E00380
E00380
E00380
E00380
E00380
F00780
700780
780F80
7C0F80
3E3F80
1FFB80
0FF380
010380
000380
000380
000380
000380
000380
000380
000380
ENDCHAR
STARTCHAR 0072
ENCODING 114
SWIDTH 360 0
DWIDTH 14 0
BBX 11 22 3 0
BITMAP
01E0
E7E0
EFE0
EF20
F800
F800
F000
F000
F000
E000
E000
E000
E000
E000
E000
E000
E000
E000
E000
E000
E000
E000
ENDCHAR
STARTCHAR 0073
ENCODING 115
SWIDTH 462 0
DWIDTH 18 0
BBX 15 23 2 -1
BITMAP
07E0
3FFC
7FFC
781C
F004
E000
E000
E000
F000
7E00
7FE0
1FF8
03FC
007C
001C
001E
001E
001C
C03C
F8FC
FFF8
7FE0
0200
ENDCHAR
STARTCHAR 0074
ENCODING 116
SWIDTH 360 0
DWIDTH 14 0
BBX 12 27 1 0
BITMAP
3800
3800
3800
3800
3800
3800
FFF0
FFF0
3800
3800
3800
3800
3800
3800
3800
3800
3800
3800
3800
3800
3800
3800
3C00
1C00
1FF0
0FF0
07F0
ENDCHAR
STARTCHAR 0075
ENCODING 117
SWIDTH 565 0
DWIDTH 22 0
BBX 16 22 3 0
BITMAP
E007
E007
E007
E007
E007
E007
E007
E007
E007
E007
E007
E007
E007
E007
E007
E00F
F00F
781F
7FF7
3FF7
1FC7
0200
ENDCHAR
STARTCHAR 0076
ENCODING 118
SWIDTH 540 0
DWIDTH 21 0
BBX 18 21 1 0
BITMAP
F001C0
7001C0
7003C0
780380
380380
380780
3C0700
1C0700
1C0F00
1E0E00
0E0E00
0E1E00
0F1C00
071C00
073C00
07B800
03B800
03F800
03F000
01F000
01F000
ENDCHAR
STARTCHAR 0077
ENCODING 119
SWIDTH 745 0
DWIDTH 29 0
BBX 25 21 2 0
BITMAP
E03C0380
E03E0380
E03E0780
F03E0700
70760700
70770700
70770F00
70670E00
38E30E00
38E38E00
38E39E00
38C39C00
3DC39C00
1DC19C00
1DC1DC00
1DC1FC00
1F81F800
0F80F800
0F80F800
0F80F800
0F00F000
ENDCHAR
STARTCHAR 0078
ENCODING 120
SWIDTH 540 0
DWIDTH 21 0
BBX 18 21 1 0
BITMAP
7803C0
3C0780
1C0700
1E0F00
0F1E00
071C00
07BC00
03F800
01F000
01F000
01F000
03F000
03F800
07BC00
0F1C00
0E1E00
1E0F00
3C0700
380780
7803C0
F001C0
ENDCHAR
STARTCHAR 0079
ENCODING 121
SWIDTH 540 0
DWIDTH 21 0
BBX 18 29 1 -8
BITMAP
F001C0
7001C0
7003C0
780380
380380
380780
1C0700
1C0700
1E0F00
0E0E00
0E1E00
0F1C00
071C00
073C00
03B800
03B800
03F800
01F000
01F000
01F000
00E000
00E000
01C000
01C000
03C000
038000
3F8000
3F0000
3E0000
ENDCHAR
STARTCHAR 007A
ENCODING 122
SWIDTH 462 0
DWIDTH 18 0
BBX 16 21 1 0
BITMAP
7FFF
7FFF
000F
000E
001E
003C
0078
00F0
00F0
01E0
03C0
0780
0700
0F00
1E00
3C00
7800
7800
FFFF
FFFF
FFFF
ENDCHAR
STARTCHAR 007B
ENCODING 123
SWIDTH 565 0
DWIDTH 22 0
BBX 14 36 4 -6
BITMAP
000C
01FC
01FC
03C0
0380
0380
0380
0380
0380
0380
0380
0380
0380
0380
0780
0780
0F00
FE00
FC00
FF00
0F00
0780
0380
0380
0380
0380
0380
0380
0380
0380
0380
0380
0380
03F0
01FC
00FC
ENDCHAR
STARTCHAR 007C
ENCODING 124
SWIDTH 308 0
DWIDTH 12 0
BBX 3 39 4 -9
BITMAP
E0
E0
E0
E0
E0
E0
E0
E0
E0
E0
E0
E0
E0
E0
E0
E0
E0
E0
E0
E0
E0
E0
E0
E0
E0
E0
E0
E0
E0
E0
E0
E0
E0
E0
E0
E0
E0
E0
E0
ENDCHAR
STARTCHAR 007D
ENCODING 125
SWIDTH 565 0
DWIDTH 22 0
BBX 14 36 4 -6
BITMAP
E000
FE00
FF00
0F00
0700
0780
0780
0780
0780
0780
0780
0780
0780
0780
0380
0380
03C0
01FC
00FC
01FC
03C0
0380
0380
0780
0780
0780
0780
0780
0780
0780
0780
0700
0700
1F00
FF00
FC00
ENDCHAR
STARTCHAR 007E
ENCODING 126
SWIDTH 745 0
DWIDTH 29 0
BBX 22 6 4 10
BITMAP
1F800C
7FF01C
FFFFFC
F0FFF8
C01FE0
800300
ENDCHAR
STARTCHAR 00A0
ENCODING 160
SWIDTH 282 0
DWIDTH 11 0
BBX 0 0 0 0
BITMAP
ENDCHAR
STARTCHAR 00A1
ENCODING 161
SWIDTH 360 0
DWIDTH 14 0
BBX 4 28 5 -7
BITMAP
F0
F0
F0
F0
F0
00
00
00
00
60
70
F0
F0
F0
F0
F0
F0
F0
F0
F0
F0
F0
F0
F0
F0
F0
F0
F0
ENDCHAR
STARTCHAR 00A2
ENCODING 162
SWIDTH 565 0
DWIDTH 22 0
BBX 15 33 3 -6
BITMAP
0040
0040
0040
0040
0040
01F0
07FE
1FFE
3E4E
3C40
7840
7040
F040
F040
E040
E040
E040
E040
E040
F040
F040
7040
7840
3C42
3FDE
1FFE
07FC
0060
0040
0040
0040
0040
0040
ENDCHAR
STARTCHAR 00A3
ENCODING 163
SWIDTH 565 0
DWIDTH 22 0
BBX 17 29 2 0
BITMAP
007E00
01FF80
03FF80
07C380
078000
070000
0F0000
0F0000
0F0000
0F0000
0F0000
0F0000
0F0000
0F0000
7FFC00
7FFC00
7FFC00
0F0000
0F0000
0F0000
0F0000
0F0000
0F0000
0F0000
0F0000
0F0000
FFFF80
FFFF80
FFFF80
ENDCHAR
STARTCHAR 00A4
ENCODING 164
SWIDTH 565 0
DWIDTH 22 0
BBX 19 21 2 2
BITMAP
400080
E000C0
F001E0
7BF3C0
3FFF80
3FFF00
1E0E00
1C0700
380700
380300
380300
380300
380300
380700
1C0F00
1E1E00
3FFF00
7FFF80
F1E3C0
E001C0
4000C0
ENDCHAR
STARTCHAR 00A5
ENCODING 165
SWIDTH 565 0
DWIDTH 22 0
BBX 18 28 2 0
BITMAP
E001C0
F001C0
700380
780380
380780
3C0700
1C0F00
1E0E00
0E1E00
0E1C00
073C00
FF3FC0
FFFFC0
03F000
01F000
01E000
01E000
FFFFC0
FFFFC0
01E000
01E000
01E000
01E000
01E000
01E000
01E000
01E000
01E000
ENDCHAR
STARTCHAR 00A6
ENCODING 166
SWIDTH 308 0
DWIDTH 12 0
BBX 3 34 4 -7
BITMAP
E0
E0
E0
E0
E0
E0
E0
E0
E0
E0
E0
E0
E0
E0
00
00
00
00
00
E0
E0
E0
E0
E0
E0
E0
E0
E0
E0
E0
E0
E0
E0
E0
ENDCHAR
STARTCHAR 00A7
ENCODING 167
SWIDTH 462 0
DWIDTH 18 0
BBX 14 33 2 -4
BITMAP
0FC0
3FF0
3FF0
7830
7000
7000
7000
7800
3C00
3E00
3F80
77C0
E1F0
E0F8
C078
C03C
E01C
F01C
781C
7C18
1F38
0FF0
03E0
01F0
00F0
0078
0038
0038
0078
60F0
7FF0
7FE0
0F00
ENDCHAR
STARTCHAR 00A8
ENCODING 168
SWIDTH 462 0
DWIDTH 18 0
BBX 10 4 4 26
BITMAP
E3C0
E3C0
E3C0
E3C0
ENDCHAR
STARTCHAR 00A9
ENCODING 169
SWIDTH 900 0
DWIDTH 35 0
BBX 25 28 5 0
BITMAP
00FF8000
03FFE000
07807000
0E003800
1C000C00
381E0E00
30FFC600
61FFC300
63C04300
C3800180
C7000180
C7000180
C7000180
C7000180
C7000180
C7000180
C7000180
C3000180
C3800180
61C04300
61FFC300
307F8600
38000E00
1C001C00
0E003800
0780F000
01FFC000
007F0000
ENDCHAR
STARTCHAR 00AA
ENCODING 170
SWIDTH 437 0
DWIDTH 17 0
BBX 12 20 2 9
BITMAP
1F80
7FC0
71E0
0070
0070
0030
1FF0
7FF0
F030
E070
E070
E070
E0F0
7FB0
7F30
1C00
0000
0000
FFF0
FFF0
ENDCHAR
STARTCHAR 00AB
ENCODING 171
SWIDTH 540 0
DWIDTH 21 0
BBX 15 17 3 3
BITMAP
0102
0306
070E
0F1E
1E3C
3C78
78F0
F1E0
E1C0
F1E0
78F0
3C78
1E3C
0F1E
070E
0306
0102
ENDCHAR
STARTCHAR 00AC
ENCODING 172
SWIDTH 745 0
DWIDTH 29 0
BBX 22 11 4 5
BITMAP
FFFFFC
FFFFFC
FFFFFC
00001C
00001C
00001C
00001C
00001C
00001C
00001C
00001C
ENDCHAR
STARTCHAR 00AD
ENCODING 173
SWIDTH 334 0
DWIDTH 13 0
BBX 9 3 2 9
BITMAP
FF80
FF80
FF80
ENDCHAR
STARTCHAR 00AE
ENCODING 174
SWIDTH 900 0
DWIDTH 35 0
BBX 25 28 5 0
BITMAP
00FF8000
03FFE000
07807000
0E003800
1C000C00
38000E00
31FF0600
61FF8300
61C1C300
C1C1C180
C1C1C180
C1C1C180
C1C3C180
C1FF8180
C1FE0180
C1C70180
C1C38180
C1C38180
C1C1C180
61C1C300
61C0E300
31C0E600
38000E00
1C001C00
0E003800
0780F000
01FFC000
007F0000
ENDCHAR
STARTCHAR 00AF
ENCODING 175
SWIDTH 462 0
DWIDTH 18 0
BBX 10 3 4 26
BITMAP
FFC0
FFC0
FFC0
ENDCHAR
STARTCHAR 00B0
ENCODING 176
SWIDTH 462 0
DWIDTH 18 0
BBX 11 12 3 17
BITMAP
0F00
3F80
7FC0
70E0
6060
E060
E060
E060
60E0
79C0
3FC0
1F00
ENDCHAR
STARTCHAR 00B1
ENCODING 177
SWIDTH 745 0
DWIDTH 29 0
BBX 22 24 4 0
BITMAP
007000
007000
007000
007000
007000
007000
007000
FFFFFC
FFFFFC
FFFFFC
007000
007000
007000
007000
007000
007000
007000
007000
000000
000000
000000
FFFFFC
FFFFFC
FFFFFC
ENDCHAR
STARTCHAR 00B2
ENCODING 178
SWIDTH 360 0
DWIDTH 14 0
BBX 10 16 2 13
BITMAP
3E00
FF00
C380
01C0
01C0
01C0
0180
0380
0700
0E00
1C00
3800
7000
E000
FFC0
FFC0
ENDCHAR
STARTCHAR 00B3
ENCODING 179
SWIDTH 360 0
DWIDTH 14 0
BBX 10 17 2 12
BITMAP
7E00
FF80
C3C0
01C0
01C0
01C0
0380
3E00
3F80
01C0
01C0
00C0
00C0
01C0
FF80
FF00
1800
ENDCHAR
STARTCHAR 00B4
ENCODING 180
SWIDTH 462 0
DWIDTH 18 0
BBX 7 7 7 24
BITMAP
0E
1C
38
38
70
E0
C0
ENDCHAR
STARTCHAR 00B5
ENCODING 181
SWIDTH 565 0
DWIDTH 22 0
BBX 18 29 3 -8
BITMAP
E00700
E00700
E00700
E00700
E00700
E00700
E00700
E00700
E00700
E00700
E00700
E00700
E00700
E00700
E00700
E00F00
F00F00
F81F00
FFFFC0
EFF7C0
E7E3C0
E00000
E00000
E00000
E00000
E00000
E00000
E00000
E00000
ENDCHAR
STARTCHAR 00B6
ENCODING 182
SWIDTH 565 0
DWIDTH 22 0
BBX 16 32 3 -4
BITMAP
0FFF
3FFF
7FC7
7FC7
FFC7
FFC7
FFC7
FFC7
FFC7
FFC7
FFC7
7FC7
7FC7
3FC7
1FC7
03C7
01C7
01C7
01C7
01C7
01C7
01C7
01C7
01C7
01C7
01C7
01C7
01C7
01C7
01C7
01C7
01C7
ENDCHAR
STARTCHAR 00B7
ENCODING 183
SWIDTH 282 0
DWIDTH 11 0
BBX 3 5 4 11
BITMAP
E0
E0
E0
E0
E0
ENDCHAR
STARTCHAR 00B8
ENCODING 184
SWIDTH 462 0
DWIDTH 18 0
BBX 7 7 5 -8
BITMAP
1C
0C
0E
06
0E
FE
FC
ENDCHAR
STARTCHAR 00B9
ENCODING 185
SWIDTH 360 0
DWIDTH 14 0
BBX 10 16 2 13
BITMAP
0E00
FE00
FE00
0E00
0E00
0E00
0E00
0E00
0E00
0E00
0E00
0E00
0E00
0E00
7FC0
7FC0
ENDCHAR
STARTCHAR 00BA
ENCODING 186
SWIDTH 437 0
DWIDTH 17 0
BBX 13 20 2 9
BITMAP
0F80
3FC0
79E0
7070
E030
E038
C038
C038
C038
C038
E038
E070
7070
7FE0
3FC0
0700
0000
0000
FFF0
FFF0
ENDCHAR
STARTCHAR 00BB
ENCODING 187
SWIDTH 540 0
DWIDTH 21 0
BBX 16 17 3 3
BITMAP
8100
C080
E0C0
F0E0
7870
3C38
1E1C
0F0E
0707
070F
0E1E
3C3C
7878
F0F0
E0E0
C0C0
8080
ENDCHAR
STARTCHAR 00BC
ENCODING 188
SWIDTH 874 0
DWIDTH 34 0
BBX 31 30 2 -1
BITMAP
0E000700
FE000700
FE000E00
0E000E00
0E001C00
0E001800
0E003800
0E003000
0E007000
0E00E000
0E00E000
0E01C000
0E01C000
0E038038
7FC38078
7FC700F8
000600F8
000E01B8
000C0338
001C0338
00180638
00380C38
00700C38
00701838
00E01FFE
00E01FFE
01C00038
01C00038
03800038
03000000
ENDCHAR
STARTCHAR 00BD
ENCODING 189
SWIDTH 874 0
DWIDTH 34 0
BBX 30 30 2 -1
BITMAP
0E000700
FE000700
FE000E00
0E000E00
0E001C00
0E001800
0E003800
0E003000
0E007000
0E00E000
0E00E000
0E01C000
0E01C000
0E0383E0
7FC38FF0
7FC70C38
0006001C
000E001C
000C001C
001C0038
00180038
00380070
007000E0
007001C0
00E00380
00E00700
01C00E00
01C00FFC
03800FFC
03000000
ENDCHAR
STARTCHAR 00BE
ENCODING 190
SWIDTH 874 0
DWIDTH 34 0
BBX 31 30 2 -1
BITMAP
7E000700
FF800700
C3C00E00
01C00E00
01C01C00
01C01800
03803800
3E003000
3F807000
01C0E000
01C0E000
00C1C000
00C1C000
01C38038
FF838078
FF0700F8
180600F8
000E01B8
000C0338
001C0338
00180638
00380C38
00700C38
00701838
00E01FFE
00E01FFE
01C00038
01C00038
03800038
03000000
ENDCHAR
STARTCHAR 00BF
ENCODING 191
SWIDTH 488 0
DWIDTH 19 0
BBX 14 29 2 -8
BITMAP
03C0
03C0
03C0
03C0
03C0
0000
0000
01C0
01C0
01C0
01C0
03C0
03C0
0380
0780
0F00
1E00
3C00
7800
7800
7000
F000
F000
7004
780C
7FFC
3FFC
1FF0
0380
ENDCHAR
STARTCHAR 00C0
ENCODING 192
SWIDTH 617 0
DWIDTH 24 0
BBX 24 36 0 0
BITMAP
00E000
007000
003800
001800
001C00
000000
000000
000000
003C00
007E00
007E00
007E00
00FF00
00E700
00E700
01E780
01C380
01C380
03C3C0
0381C0
0381C0
0781E0
0700E0
0700E0
0F00F0
0E0070
0FFFF0
1FFFF8
1FFFF8
3C003C
3C003C
38001C
78001E
78001E
70000E
F0000F
ENDCHAR
STARTCHAR 00C1
ENCODING 193
SWIDTH 617 0
DWIDTH 24 0
BBX 24 36 0 0
BITMAP
000700
000E00
001C00
001800
003800
000000
000000
000000
003C00
007E00
007E00
007E00
00FF00
00E700
00E700
01E780
01C380
01C380
03C3C0
0381C0
0381C0
0781E0
0700E0
0700E0
0F00F0
0E0070
0FFFF0
1FFFF8
1FFFF8
3C003C
3C003C
38001C
78001E
78001E
70000E
F0000F
ENDCHAR
STARTCHAR 00C2
ENCODING 194
SWIDTH 617 0
DWIDTH 24 0
BBX 24 36 0 0
BITMAP
003C00
007E00
006600
00C300
01C380
000000
000000
000000
003C00
007E00
007E00
007E00
00FF00
00E700
00E700
01E780
01C380
01C380
03C3C0
0381C0
0381C0
0781E0
0700E0
0700E0
0F00F0
0E0070
0FFFF0
1FFFF8
1FFFF8
3C003C
3C003C
38001C
78001E
78001E
70000E
F0000F
ENDCHAR
STARTCHAR 00C3
ENCODING 195
SWIDTH 617 0
DWIDTH 24 0
BBX 24 36 0 0
BITMAP
00E1C0
01F9C0
01FF80
038F00
000000
000000
000000
000000
003C00
007E00
007E00
007E00
00FF00
00E700
00E700
01E780
01C380
01C380
03C3C0
0381C0
0381C0
0781E0
0700E0
0700E0
0F00F0
0E0070
0FFFF0
1FFFF8
1FFFF8
3C003C
3C003C
38001C
78001E
78001E
70000E
F0000F
ENDCHAR
STARTCHAR 00C4
ENCODING 196
SWIDTH 617 0
DWIDTH 24 0
BBX 24 36 0 0
BITMAP
01C380
01C380
01C380
01C380
000000
000000
000000
000000
003C00
007E00
007E00
007E00
00FF00
00E700
00E700
01E780
01C380
01C380
03C3C0
0381C0
0381C0
0781E0
0700E0
0700E0
0F00F0
0E0070
0FFFF0
1FFFF8
1FFFF8
3C003C
3C003C
38001C
78001E
78001E
70000E
F0000F
ENDCHAR
STARTCHAR 00C5
ENCODING 197
SWIDTH 617 0
DWIDTH 24 0
BBX 24 36 0 0
BITMAP
003C00
007E00
00E700
01C380
018180
018180
01C380
00E700
00FF00
007E00
007E00
007E00
00FF00
00E700
00E700
01E780
01C380
01C380
03C3C0
0381C0
0381C0
0781E0
0700E0
0700E0
0F00F0
0E0070
0FFFF0
1FFFF8
1FFFF8
3C0038
3C003C
38001C
78001E
78001E
70000E
F0000F
ENDCHAR
STARTCHAR 00C6
ENCODING 198
SWIDTH 874 0
DWIDTH 34 0
BBX 32 28 0 0
BITMAP
003FFFFF
003FFFFF
003FFFFF
0079E000
0079E000
0071E000
00F1E000
00E1E000
01E1E000
01E1E000
01C1E000
03C1FFFE
0381FFFE
0381FFFE
0781E000
0701E000
0F01E000
0F01E000
0FFFE000
1FFFE000
1FFFE000
1C01E000
3C01E000
3801E000
7801E000
7801FFFF
7001FFFF
F001FFFF
ENDCHAR
STARTCHAR 00C7
ENCODING 199
SWIDTH 642 0
DWIDTH 25 0
BBX 21 36 2 -8
BITMAP
007F00
03FFE0
07FFF0
0FC1F8
1F0038
3E0018
3C0008
780000
780000
700000
F00000
F00000
F00000
F00000
F00000
F00000
F00000
F00000
F00000
F00000
700000
780000
780000
3C0008
3E0018
1F8078
0FFFF8
07FFF0
01FFC0
001C00
000C00
000600
000600
000600
00FE00
00FC00
ENDCHAR
STARTCHAR 00C8
ENCODING 200
SWIDTH 565 0
DWIDTH 22 0
BBX 17 36 3 0
BITMAP
070000
038000
038000
01C000
00E000
000000
000000
000000
FFFF80
FFFF80
FFFF80
F00000
F00000
F00000
F00000
F00000
F00000
F00000
F00000
FFFF00
FFFF00
FFFF00
F00000
F00000
F00000
F00000
F00000
F00000
F00000
F00000
F00000
F00000
F00000
FFFF80
FFFF80
FFFF80
ENDCHAR
STARTCHAR 00C9
ENCODING 201
SWIDTH 565 0
DWIDTH 22 0
BBX 17 36 3 0
BITMAP
007000
00E000
00E000
01C000
038000
000000
000000
000000
FFFF80
FFFF80
FFFF80
F00000
F00000
F00000
F00000
F00000
F00000
F00000
F00000
FFFF00
FFFF00
FFFF00
F00000
F00000
F00000
F00000
F00000
F00000
F00000
F00000
F00000
F00000
F00000
FFFF80
FFFF80
FFFF80
ENDCHAR
STARTCHAR 00CA
ENCODING 202
SWIDTH 565 0
DWIDTH 22 0
BBX 17 36 3 0
BITMAP
03E000
03E000
077000
0E3800
0C1800
000000
000000
000000
FFFF80
FFFF80
FFFF80
F00000
F00000
F00000
F00000
F00000
F00000
F00000
F00000
FFFF00
FFFF00
FFFF00
F00000
F00000
F00000
F00000
F00000
F00000
F00000
F00000
F00000
F00000
F00000
FFFF80
FFFF80
FFFF80
ENDCHAR
STARTCHAR 00CB
ENCODING 203
SWIDTH 565 0
DWIDTH 22 0
BBX 17 36 3 0
BITMAP
1E3C00
1E3C00
1E3C00
1E3C00
000000
000000
000000
000000
FFFF80
FFFF80
FFFF80
F00000
F00000
F00000
F00000
F00000
F00000
F00000
F00000
FFFF00
FFFF00
FFFF00
F00000
F00000
F00000
F00000
F00000
F00000
F00000
F00000
F00000
F00000
F00000
FFFF80
FFFF80
FFFF80
ENDCHAR
STARTCHAR 00CC
ENCODING 204
SWIDTH 257 0
DWIDTH 10 0
BBX 6 36 1 0
BITMAP
F0
70
38
1C
0C
00
00
00
3C
3C
3C
3C
3C
3C
3C
3C
3C
3C
3C
3C
3C
3C
3C
3C
3C
3C
3C
3C
3C
3C
3C
3C
3C
3C
3C
3C
ENDCHAR
STARTCHAR 00CD
ENCODING 205
SWIDTH 257 0
DWIDTH 10 0
BBX 6 36 3 0
BITMAP
1C
38
70
70
E0
00
00
00
F0
F0
F0
F0
F0
F0
F0
F0
F0
F0
F0
F0
F0
F0
F0
F0
F0
F0
F0
F0
F0
F0
F0
F0
F0
F0
F0
F0
ENDCHAR
STARTCHAR 00CE
ENCODING 206
SWIDTH 257 0
DWIDTH 10 0
BBX 10 36 0 0
BITMAP
1E00
3F00
3380
7180
E0C0
0000
0000
0000
1E00
1E00
1E00
1E00
1E00
1E00
1E00
1E00
1E00
1E00
1E00
1E00
1E00
1E00
1E00
1E00
1E00
1E00
1E00
1E00
1E00
1E00
1E00
1E00
1E00
1E00
1E00
1E00
ENDCHAR
STARTCHAR 00CF
ENCODING 207
SWIDTH 257 0
DWIDTH 10 0
BBX 10 36 0 0
BITMAP
F1C0
F1C0
F1C0
F1C0
0000
0000
0000
0000
1E00
1E00
1E00
1E00
1E00
1E00
1E00
1E00
1E00
1E00
1E00
1E00
1E00
1E00
1E00
1E00
1E00
1E00
1E00
1E00
1E00
1E00
1E00
1E00
1E00
1E00
1E00
1E00
ENDCHAR
STARTCHAR 00D0
ENCODING 208
SWIDTH 694 0
DWIDTH 27 0
BBX 25 28 0 0
BITMAP
0FFF8000
0FFFF000
0FFFF800
0E00FC00
0E003E00
0E001E00
0E000F00
0E000F00
0E000780
0E000780
0E000780
0E000780
FFF80780
FFF80780
FFF80780
0E000780
0E000780
0E000780
0E000780
0E000700
0E000F00
0E000F00
0E001E00
0E007E00
0E01FC00
0FFFF800
0FFFE000
0FFF0000
ENDCHAR
STARTCHAR 00D1
ENCODING 209
SWIDTH 668 0
DWIDTH 26 0
BBX 20 36 3 0
BITMAP
038300
07E700
07FE00
0E3E00
000000
000000
000000
000000
FC00F0
FC00F0
FE00F0
FE00F0
FE00F0
FF00F0
F700F0
F780F0
F380F0
F3C0F0
F1C0F0
F1E0F0
F0E0F0
F0F0F0
F070F0
F078F0
F038F0
F03CF0
F01CF0
F01EF0
F00EF0
F00FF0
F007F0
F007F0
F007F0
F003F0
F003F0
F001F0
ENDCHAR
STARTCHAR 00D2
ENCODING 210
SWIDTH 720 0
DWIDTH 28 0
BBX 24 37 2 -1
BITMAP
00E000
007000
003800
003800
001C00
000000
000000
007E00
03FFC0
07FFE0
0FC3F0
1F00F8
3C0078
3C003C
78003C
78001E
70001E
F0000E
F0000E
F0000F
F0000F
F0000F
F0000F
F0000F
F0000F
F0000E
F0001E
70001E
78001E
78003C
3C003C
3E0078
1F01F0
0FFFF0
07FFC0
01FF80
001000
ENDCHAR
STARTCHAR 00D3
ENCODING 211
SWIDTH 720 0
DWIDTH 28 0
BBX 24 37 2 -1
BITMAP
000F00
000E00
001C00
003800
003000
000000
000000
007E00
03FFC0
07FFE0
0FC3F0
1F00F8
3C0078
3C003C
78003C
78001E
70001E
F0000E
F0000E
F0000F
F0000F
F0000F
F0000F
F0000F
F0000F
F0000E
F0001E
70001E
78001E
78003C
3C003C
3E0078
1F01F0
0FFFF0
07FFC0
01FF80
001000
ENDCHAR
STARTCHAR 00D4
ENCODING 212
SWIDTH 720 0
DWIDTH 28 0
BBX 24 37 2 -1
BITMAP
003C00
007E00
00E600
00C700
018380
000000
000000
007E00
03FFC0
07FFE0
0FC3F0
1F00F8
3C0078
3C003C
78003C
78001E
70001E
F0000E
F0000E
F0000F
F0000F
F0000F
F0000F
F0000F
F0000F
F0000E
F0001E
70001E
78001E
78003C
3C003C
3E0078
1F01F0
0FFFF0
07FFC0
01FF80
001000
ENDCHAR
STARTCHAR 00D5
ENCODING 213
SWIDTH 720 0
DWIDTH 28 0
BBX 24 37 2 -1
BITMAP
00E180
01F980
03FF80
030F00
000000
000000
000000
007E00
03FFC0
07FFE0
0FC3F0
1F00F8
3C0078
3C003C
78003C
78001E
70001E
F0000E
F0000E
F0000F
F0000F
F0000F
F0000F
F0000F
F0000F
F0000E
F0001E
70001E
78001E
78003C
3C003C
3E0078
1F01F0
0FFFF0
07FFC0
01FF80
001000
ENDCHAR
STARTCHAR 00D6
ENCODING 214
SWIDTH 720 0
DWIDTH 28 0
BBX 24 37 2 -1
BITMAP
01C780
01C780
01C780
01C780
000000
000000
000000
007E00
03FFC0
07FFE0
0FC3F0
1F00F8
3C0078
3C003C
78003C
78001E
70001E
F0000E
F0000E
F0000F
F0000F
F0000F
F0000F
F0000F
F0000F
F0000E
F0001E
70001E
78001E
78003C
3C003C
3E0078
1F01F0
0FFFF0
07FFC0
01FF80
001000
ENDCHAR
STARTCHAR 00D7
ENCODING 215
SWIDTH 745 0
DWIDTH 29 0
BBX 20 22 5 1
BITMAP
600040
E000E0
F001E0
7803C0
3C0780
1E0F80
0F1F00
079E00
03FC00
03F800
01F000
01F000
03F800
07BC00
0F1E00
1F0F00
3E0780
3C03C0
7801E0
F001F0
6000E0
000040
ENDCHAR
STARTCHAR 00D8
ENCODING 216
SWIDTH 720 0
DWIDTH 28 0
BBX 24 30 2 0
BITMAP
007E06
03FF8E
07FFEE
0FC3FC
1F00F8
3C0078
3C007C
7800FC
7801DE
70039E
F0038E
F0070E
F00E0F
F01C0F
F01C0F
F0380F
F0700F
F0E00F
F1E00E
F1C01E
73801E
7F001E
7E003C
3E003C
3E0078
3F01F0
7FFFF0
77FFC0
E1FF80
401000
ENDCHAR
STARTCHAR 00D9
ENCODING 217
SWIDTH 668 0
DWIDTH 26 0
BBX 20 37 3 -1
BITMAP
038000
01C000
00E000
00E000
007000
000000
000000
000000
F000F0
F000F0
F000F0
F000F0
F000F0
F000F0
F000F0
F000F0
F000F0
F000F0
F000F0
F000F0
F000F0
F000F0
F000F0
F000F0
F000F0
F000F0
F000F0
F000F0
F000E0
F000E0
7001E0
7801E0
3C07C0
3FFF80
1FFF00
07FE00
004000
ENDCHAR
STARTCHAR 00DA
ENCODING 218
SWIDTH 668 0
DWIDTH 26 0
BBX 20 37 3 -1
BITMAP
003C00
003800
007000
00E000
00C000
000000
000000
000000
F000F0
F000F0
F000F0
F000F0
F000F0
F000F0
F000F0
F000F0
F000F0
F000F0
F000F0
F000F0
F000F0
F000F0
F000F0
F000F0
F000F0
F000F0
F000F0
F000F0
F000E0
F000E0
7001E0
7801E0
3C07C0
3FFF80
1FFF00
07FE00
004000
ENDCHAR
STARTCHAR 00DB
ENCODING 219
SWIDTH 668 0
DWIDTH 26 0
BBX 20 37 3 -1
BITMAP
00F000
01F800
039800
031C00
060E00
000000
000000
000000
F000F0
F000F0
F000F0
F000F0
F000F0
F000F0
F000F0
F000F0
F000F0
F000F0
F000F0
F000F0
F000F0
F000F0
F000F0
F000F0
F000F0
F000F0
F000F0
F000F0
F000E0
F000E0
7001E0
7801E0
3C07C0
3FFF80
1FFF00
07FE00
004000
ENDCHAR
STARTCHAR 00DC
ENCODING 220
SWIDTH 668 0
DWIDTH 26 0
BBX 20 37 3 -1
BITMAP
071E00
071E00
071E00
071E00
000000
000000
000000
000000
F000F0
F000F0
F000F0
F000F0
F000F0
F000F0
F000F0
F000F0
F000F0
F000F0
F000F0
F000F0
F000F0
F000F0
F000F0
F000F0
F000F0
F000F0
F000F0
F000F0
F000E0
F000E0
7001E0
7801E0
3C07C0
3FFF80
1FFF00
07FE00
004000
ENDCHAR
STARTCHAR 00DD
ENCODING 221
SWIDTH 540 0
DWIDTH 21 0
BBX 21 36 0 0
BITMAP
001C00
001C00
003800
007000
006000
000000
000000
000000
F00078
780070
3800F0
3C01E0
1E01E0
0E03C0
0F0380
070780
078F00
03CE00
01DE00
01FC00
00FC00
00F800
007000
007000
007000
007000
007000
007000
007000
007000
007000
007000
007000
007000
007000
007000
ENDCHAR
STARTCHAR 00DE
ENCODING 222
SWIDTH 540 0
DWIDTH 21 0
BBX 17 28 3 0
BITMAP
F00000
F00000
F00000
F00000
F00000
FFF800
FFFE00
FFFE00
F01F00
F00F00
F00780
F00780
F00780
F00780
F00780
F00780
F00F00
F01F00
FFFF00
FFFE00
FFF800
FF8000
F00000
F00000
F00000
F00000
F00000
F00000
ENDCHAR
STARTCHAR 00DF
ENCODING 223
SWIDTH 565 0
DWIDTH 22 0
BBX 17 30 3 -1
BITMAP
03C000
1FF000
3FF800
7E7C00
781E00
700E00
F00E00
E00E00
E07E00
E0F800
E0E000
E1C000
E1C000
E1C000
E1C000
E1E000
E1F000
E0F800
E07E00
E01F00
E00F80
E00780
E00380
E00380
E00380
E00380
E00780
E79F80
E7FF00
E7FE00
ENDCHAR
STARTCHAR 00E0
ENCODING 224
SWIDTH 565 0
DWIDTH 22 0
BBX 16 32 2 -1
BITMAP
1C00
0E00
0F00
0700
0380
01C0
00C0
0000
0000
07E0
3FF8
7FFC
783E
400E
0007
0007
0007
0007
0FFF
3FFF
7E07
7007
F007
E007
E007
E00F
F00F
701F
7E7F
3FF7
1FE7
0200
ENDCHAR
STARTCHAR 00E1
ENCODING 225
SWIDTH 565 0
DWIDTH 22 0
BBX 16 32 2 -1
BITMAP
0038
0078
0070
00E0
01C0
01C0
0380
0000
0000
07E0
3FF8
7FFC
783E
400E
0007
0007
0007
0007
0FFF
3FFF
7E07
7007
F007
E007
E007
E00F
F00F
701F
7E7F
3FF7
1FE7
0200
ENDCHAR
STARTCHAR 00E2
ENCODING 226
SWIDTH 565 0
DWIDTH 22 0
BBX 16 32 2 -1
BITMAP
03C0
03C0
07E0
0670
0E30
0C38
1818
0000
0000
07E0
3FF8
7FFC
783E
400E
0007
0007
0007
0007
0FFF
3FFF
7E07
7007
F007
E007
E007
E00F
F00F
701F
7E7F
3FF7
1FE7
0200
ENDCHAR
STARTCHAR 00E3
ENCODING 227
SWIDTH 565 0
DWIDTH 22 0
BBX 16 31 2 -1
BITMAP
0F0C
1F9C
19D8
18F8
1870
0000
0000
0000
07E0
3FF8
7FFC
783E
400E
0007
0007
0007
0007
0FFF
3FFF
7E07
7007
F007
E007
E007
E00F
F00F
701F
7E7F
3FF7
1FE7
0200
ENDCHAR
STARTCHAR 00E4
ENCODING 228
SWIDTH 565 0
DWIDTH 22 0
BBX 16 31 2 -1
BITMAP
1E38
1E38
1E38
1E38
0000
0000
0000
0000
07E0
3FF8
7FFC
783E
400E
0007
0007
0007
0007
0FFF
3FFF
7E07
7007
F007
E007
E007
E00F
F00F
701F
7E7F
3FF7
1FE7
0200
ENDCHAR
STARTCHAR 00E5
ENCODING 229
SWIDTH 565 0
DWIDTH 22 0
BBX 16 35 2 -1
BITMAP
03E0
07F0
0E70
0C38
1C18
1C18
0C38
0E70
07F0
03E0
0000
0000
07E0
3FF8
7FFC
783E
400E
0007
0007
0007
0007
0FFF
3FFF
7E07
7007
F007
E007
E007
E00F
F00F
701F
7E7F
3FF7
1FE7
0200
ENDCHAR
STARTCHAR 00E6
ENCODING 230
SWIDTH 874 0
DWIDTH 34 0
BBX 31 23 2 -1
BITMAP
07E00F80
3FF87FE0
7FFCFFF0
783FF0F8
400FC038
0007803C
0007801C
0007801C
0007001E
0FFFFFFE
3FFFFFFE
7E07FFFE
70070000
F0070000
E0070000
E0078000
E00F8000
F00FC000
F01DE00C
7E79FC7C
3FF0FFFC
1FE03FF0
00000200
ENDCHAR
STARTCHAR 00E7
ENCODING 231
SWIDTH 488 0
DWIDTH 19 0
BBX 15 30 2 -8
BITMAP
01F0
0FFE
1FFE
3E0E
3C00
7800
7000
F000
F000
E000
E000
E000
E000
E000
F000
F000
7000
7800
3C02
3FBE
1FFE
07FC
0060
0030
0030
0030
0038
07F0
07F0
0080
ENDCHAR
STARTCHAR 00E8
ENCODING 232
SWIDTH 565 0
DWIDTH 22 0
BBX 18 32 2 -1
BITMAP
0E0000
070000
070000
038000
01C000
00E000
006000
000000
000000
01F000
0FFC00
1FFE00
3E1F00
380700
780380
700380
F00380
E003C0
FFFFC0
FFFFC0
FFFFC0
E00000
E00000
F00000
F00000
700000
780000
3C0180
1FDF80
0FFF80
07FF00
004000
ENDCHAR
STARTCHAR 00E9
ENCODING 233
SWIDTH 565 0
DWIDTH 22 0
BBX 18 32 2 -1
BITMAP
001C00
003C00
003800
007000
00E000
00E000
01C000
000000
000000
01F000
0FFC00
1FFE00
3E1F00
380700
780380
700380
F00380
E003C0
FFFFC0
FFFFC0
FFFFC0
E00000
E00000
F00000
F00000
700000
780000
3C0180
1FDF80
0FFF80
07FF00
004000
ENDCHAR
STARTCHAR 00EA
ENCODING 234
SWIDTH 565 0
DWIDTH 22 0
BBX 18 32 2 -1
BITMAP
01E000
01E000
03F000
033800
071800
061C00
0C0C00
000000
000000
01F000
0FFC00
1FFE00
3E1F00
380700
780380
700380
F00380
E003C0
FFFFC0
FFFFC0
FFFFC0
E00000
E00000
F00000
F00000
700000
780000
3C0180
1FDF80
0FFF80
07FF00
004000
ENDCHAR
STARTCHAR 00EB
ENCODING 235
SWIDTH 565 0
DWIDTH 22 0
BBX 18 31 2 -1
BITMAP
0F1C00
0F1C00
0F1C00
0F1C00
000000
000000
000000
000000
01F000
0FFC00
1FFE00
3E1F00
380700
780380
700380
F00380
E003C0
FFFFC0
FFFFC0
FFFFC0
E00000
E00000
F00000
F00000
700000
780000
3C0180
1FDF80
0FFF80
07FF00
004000
ENDCHAR
STARTCHAR 00EC
ENCODING 236
SWIDTH 257 0
DWIDTH 10 0
BBX 7 31 0 0
BITMAP
E0
F0
70
38
1C
1C
0E
00
00
00
1C
1C
1C
1C
1C
1C
1C
1C
1C
1C
1C
1C
1C
1C
1C
1C
1C
1C
1C
1C
1C
ENDCHAR
STARTCHAR 00ED
ENCODING 237
SWIDTH 257 0
DWIDTH 10 0
BBX 7 31 3 0
BITMAP
0E
1C
3C
38
70
E0
C0
00
00
00
E0
E0
E0
E0
E0
E0
E0
E0
E0
E0
E0
E0
E0
E0
E0
E0
E0
E0
E0
E0
E0
ENDCHAR
STARTCHAR 00EE
ENCODING 238
SWIDTH 257 0
DWIDTH 10 0
BBX 10 31 0 0
BITMAP
1E00
1E00
3F00
7300
6380
E180
C0C0
0000
0000
0000
1C00
1C00
1C00
1C00
1C00
1C00
1C00
1C00
1C00
1C00
1C00
1C00
1C00
1C00
1C00
1C00
1C00
1C00
1C00
1C00
1C00
ENDCHAR
STARTCHAR 00EF
ENCODING 239
SWIDTH 257 0
DWIDTH 10 0
BBX 10 30 0 0
BITMAP
E3C0
E3C0
E3C0
E3C0
0000
0000
0000
0000
0000
1C00
1C00
1C00
1C00
1C00
1C00
1C00
1C00
1C00
1C00
1C00
1C00
1C00
1C00
1C00
1C00
1C00
1C00
1C00
1C00
1C00
ENDCHAR
STARTCHAR 00F0
ENCODING 240
SWIDTH 540 0
DWIDTH 21 0
BBX 18 31 2 -1
BITMAP
1E0000
0F0200
079F00
03FC00
03E000
1FE000
3CF000
207800
003C00
03FC00
0FFE00
1FFF00
3E0F00
780700
700780
F00380
F00380
E00380
E003C0
E003C0
E003C0
E00380
F00380
F00380
700780
780700
3C0F00
3F7E00
1FFC00
07F800
008000
ENDCHAR
STARTCHAR 00F1
ENCODING 241
SWIDTH 565 0
DWIDTH 22 0
BBX 16 30 3 0
BITMAP
0F0C
1F8C
19DC
18F8
1870
0000
0000
0000
01F0
E7FC
EFFE
EE3E
F80F
F00F
F007
F007
E007
E007
E007
E007
E007
E007
E007
E007
E007
E007
E007
E007
E007
E007
ENDCHAR
STARTCHAR 00F2
ENCODING 242
SWIDTH 540 0
DWIDTH 21 0
BBX 18 32 2 -1
BITMAP
1E0000
0E0000
070000
038000
018000
01C000
00E000
000000
000000
03E000
0FF800
1FFE00
3E1E00
780F00
780780
700780
F00380
E00380
E00380
E003C0
E003C0
E003C0
E00380
F00380
F00380
700780
780700
3C0F00
3F7E00
1FFC00
0FF800
008000
ENDCHAR
STARTCHAR 00F3
ENCODING 243
SWIDTH 540 0
DWIDTH 21 0
BBX 18 32 2 -1
BITMAP
001C00
003800
007000
007000
00E000
01C000
018000
000000
000000
03E000
0FF800
1FFE00
3E1E00
780F00
780780
700780
F00380
E00380
E00380
E003C0
E003C0
E003C0
E00380
F00380
F00380
700780
780700
3C0F00
3F7E00
1FFC00
0FF800
008000
ENDCHAR
STARTCHAR 00F4
ENCODING 244
SWIDTH 540 0
DWIDTH 21 0
BBX 18 32 2 -1
BITMAP
01C000
03E000
03F000
073000
063800
0E1800
0C0C00
000000
000000
03E000
0FF800
1FFE00
3E1E00
780F00
780780
700780
F00380
E00380
E00380
E003C0
E003C0
E003C0
E00380
F00380
F00380
700780
780700
3C0F00
3F7E00
1FFC00
0FF800
008000
ENDCHAR
STARTCHAR 00F5
ENCODING 245
SWIDTH 540 0
DWIDTH 21 0
BBX 18 31 2 -1
BITMAP
0F0C00
0F8C00
1DFC00
18FC00
187800
000000
000000
000000
03E000
0FF800
1FFE00
3E1E00
780F00
780780
700780
F00380
E00380
E00380
E003C0
E003C0
E003C0
E00380
F00380
F00380
700780
780700
3C0F00
3F7E00
1FFC00
0FF800
008000
ENDCHAR
STARTCHAR 00F6
ENCODING 246
SWIDTH 540 0
DWIDTH 21 0
BBX 18 31 2 -1
BITMAP
0E3C00
0E3C00
0E3C00
0E3C00
000000
000000
000000
000000
03E000
0FF800
1FFE00
3E1E00
780F00
780780
700780
F00380
E00380
E00380
E003C0
E003C0
E003C0
E00380
F00380
F00380
700780
780700
3C0F00
3F7E00
1FFC00
0FF800
008000
ENDCHAR
STARTCHAR 00F7
ENCODING 247
SWIDTH 745 0
DWIDTH 29 0
BBX 22 19 4 3
BITMAP
007800
007800
007800
007800
007800
000000
000000
000000
FFFFFC
FFFFFC
FFFFFC
000000
000000
000000
007800
007800
007800
007800
007800
ENDCHAR
STARTCHAR 00F8
ENCODING 248
SWIDTH 540 0
DWIDTH 21 0
BBX 19 24 1 -2
BITMAP
000040
01F0E0
07FCC0
0FFFC0
1F0F80
3C0780
3C07C0
380FC0
781DC0
7839C0
7031C0
7071E0
70E1E0
71C1E0
71C1C0
7381C0
7F01C0
3E03C0
3E0380
1E0780
3FBF00
3FFE00
77FC00
E04000
ENDCHAR
STARTCHAR 00F9
ENCODING 249
SWIDTH 565 0
DWIDTH 22 0
BBX 16 32 3 -1
BITMAP
1C00
1E00
0E00
0700
0380
0380
01C0
0000
0000
0000
E007
E007
E007
E007
E007
E007
E007
E007
E007
E007
E007
E007
E007
E007
E007
E00F
F00F
781F
7FF7
3FF7
1FC7
0200
ENDCHAR
STARTCHAR 00FA
ENCODING 250
SWIDTH 565 0
DWIDTH 22 0
BBX 16 32 3 -1
BITMAP
0038
0070
00F0
00E0
01C0
0380
0300
0000
0000
0000
E007
E007
E007
E007
E007
E007
E007
E007
E007
E007
E007
E007
E007
E007
E007
E00F
F00F
781F
7FF7
3FF7
1FC7
0200
ENDCHAR
STARTCHAR 00FB
ENCODING 251
SWIDTH 565 0
DWIDTH 22 0
BBX 16 32 3 -1
BITMAP
03C0
03C0
07E0
0E60
0C70
1C30
1818
0000
0000
0000
E007
E007
E007
E007
E007
E007
E007
E007
E007
E007
E007
E007
E007
E007
E007
E00F
F00F
781F
7FF7
3FF7
1FC7
0200
ENDCHAR
STARTCHAR 00FC
ENCODING 252
SWIDTH 565 0
DWIDTH 22 0
BBX 16 31 3 -1
BITMAP
1C78
1C78
1C78
1C78
0000
0000
0000
0000
0000
E007
E007
E007
E007
E007
E007
E007
E007
E007
E007
E007
E007
E007
E007
E007
E00F
F00F
781F
7FF7
3FF7
1FC7
0200
ENDCHAR
STARTCHAR 00FD
ENCODING 253
SWIDTH 540 0
DWIDTH 21 0
BBX 18 39 1 -8
BITMAP
001E00
001C00
003800
007000
007000
00E000
01C000
000000
000000
000000
F001C0
7001C0
7003C0
780380
380380
380780
1C0700
1C0700
1E0F00
0E0E00
0E1E00
0F1C00
071C00
073C00
03B800
03B800
03F800
01F000
01F000
01F000
00E000
00E000
01C000
01C000
03C000
038000
3F8000
3F0000
3E0000
ENDCHAR
STARTCHAR 00FE
ENCODING 254
SWIDTH 565 0
DWIDTH 22 0
BBX 17 38 3 -8
BITMAP
E00000
E00000
E00000
E00000
E00000
E00000
E00000
E00000
E1F000
E7FC00
EFFE00
EE1E00
F80F00
F80700
F00780
F00380
F00380
E00380
E00380
E00380
E00380
E00380
F00380
F00380
F00780
F80700
FC0F00
EF3E00
EFFC00
E3F800
E04000
E00000
E00000
E00000
E00000
E00000
E00000
E00000
ENDCHAR
STARTCHAR 00FF
ENCODING 255
SWIDTH 540 0
DWIDTH 21 0
BBX 18 38 1 -8
BITMAP
0F1C00
0F1C00
0F1C00
0F1C00
000000
000000
000000
000000
000000
F001C0
7001C0
7003C0
780380
380380
380780
1C0700
1C0700
1E0F00
0E0E00
0E1E00
0F1C00
071C00
073C00
03B800
03B800
03F800
01F000
01F000
01F000
00E000
00E000
01C000
01C000
03C000
038000
3F8000
3F0000
3E0000
ENDCHAR
STARTCHAR 0100
ENCODING 256
SWIDTH 617 0
DWIDTH 24 0
BBX 24 35 0 0
BITMAP
01FF80
01FF80
01FF80
000000
000000
000000
000000
003C00
007E00
007E00
007E00
00FF00
00E700
00E700
01E780
01C380
01C380
03C3C0
0381C0
0381C0
0781E0
0700E0
0700E0
0F00F0
0E0070
0FFFF0
1FFFF8
1FFFF8
3C003C
3C003C
38001C
78001E
78001E
70000E
F0000F
ENDCHAR
STARTCHAR 0101
ENCODING 257
SWIDTH 565 0
DWIDTH 22 0
BBX 16 30 2 -1
BITMAP
1FF8
1FF8
1FF8
0000
0000
0000
0000
07E0
3FF8
7FFC
783E
400E
0007
0007
0007
0007
0FFF
3FFF
7E07
7007
F007
E007
E007
E00F
F00F
701F
7E7F
3FF7
1FE7
0200
ENDCHAR
STARTCHAR 0102
ENCODING 258
SWIDTH 617 0
DWIDTH 24 0
BBX 24 37 0 0
BITMAP
0180C0
0181C0
01C180
00FF80
00FF00
003C00
000000
000000
000000
003C00
007E00
007E00
007E00
00FF00
00E700
00E700
01E780
01C380
01C380
03C3C0
0381C0
0381C0
0781E0
0700E0
0700E0
0F00F0
0E0070
0FFFF0
1FFFF8
1FFFF8
3C003C
3C003C
38001C
78001E
78001E
70000E
F0000F
ENDCHAR
STARTCHAR 0103
ENCODING 259
SWIDTH 565 0
DWIDTH 22 0
BBX 16 31 2 -1
BITMAP
1818
1818
1C38
0FF8
0FF0
03C0
0000
0000
07E0
3FF8
7FFC
783E
400E
0007
0007
0007
0007
0FFF
3FFF
7E07
7007
F007
E007
E007
E00F
F00F
701F
7E7F
3FF7
1FE7
0200
ENDCHAR
STARTCHAR 0104
ENCODING 260
SWIDTH 617 0
DWIDTH 24 0
BBX 25 36 0 -8
BITMAP
003C0000
007E0000
007E0000
007E0000
00FF0000
00E70000
00E70000
01E78000
01C38000
01C38000
03C3C000
0381C000
0381C000
0781E000
0700E000
0700E000
0F00F000
0E007000
0FFFF000
1FFFF800
1FFFF800
3C003C00
3C003C00
38001C00
78001E00
78001E00
70000E00
F0000F00
00000C00
00001800
00001800
00003800
00003800
00001F80
00001F80
00000200
ENDCHAR
STARTCHAR 0105
ENCODING 261
SWIDTH 565 0
DWIDTH 22 0
BBX 18 30 2 -8
BITMAP
07E000
3FF800
7FFC00
783E00
400E00
000700
000700
000700
000700
0FFF00
3FFF00
7E0700
700700
F00700
E00700
E00700
E00F00
F00F00
701F00
7E7F00
3FF700
1FE700
020600
000C00
000C00
001C00
001C00
000FC0
000FC0
000100
ENDCHAR
STARTCHAR 0106
ENCODING 262
SWIDTH 642 0
DWIDTH 25 0
BBX 21 37 2 -1
BITMAP
000F00
000E00
001C00
003800
003800
000000
000000
007F00
03FFE0
07FFF0
0FC1F8
1F0038
3E0018
3C0008
780000
780000
700000
F00000
F00000
F00000
F00000
F00000
F00000
F00000
F00000
F00000
F00000
700000
780000
780000
3C0008
3E0018
1F8078
0FFFF8
07FFF0
01FFC0
000800
ENDCHAR
STARTCHAR 0107
ENCODING 263
SWIDTH 488 0
DWIDTH 19 0
BBX 15 32 2 -1
BITMAP
001C
003C
0038
0070
00E0
00C0
01C0
0000
0000
01F0
0FFE
1FFE
3E0E
3C00
7800
7000
F000
F000
E000
E000
E000
E000
E000
F000
F000
7000
7800
3C02
3FBE
1FFE
07FC
0040
ENDCHAR
STARTCHAR 0108
ENCODING 264
SWIDTH 642 0
DWIDTH 25 0
BBX 21 37 2 -1
BITMAP
003E00
003E00
007700
00E380
00C180
000000
000000
007F00
03FFE0
07FFF0
0FC1F8
1F0038
3E0018
3C0008
780000
780000
700000
F00000
F00000
F00000
F00000
F00000
F00000
F00000
F00000
F00000
F00000
700000
780000
780000
3C0008
3E0018
1F8078
0FFFF8
07FFF0
01FFC0
000800
ENDCHAR
STARTCHAR 0109
ENCODING 265
SWIDTH 488 0
DWIDTH 19 0
BBX 15 32 2 -1
BITMAP
00E0
01F0
01B0
03B8
031C
060C
0E0E
0000
0000
01F0
0FFE
1FFE
3E0E
3C00
7800
7000
F000
F000
E000
E000
E000
E000
E000
F000
F000
7000
7800
3C02
3FBE
1FFE
07FC
0040
ENDCHAR
STARTCHAR 010A
ENCODING 266
SWIDTH 642 0
DWIDTH 25 0
BBX 21 37 2 -1
BITMAP
001C00
001C00
001C00
001C00
000000
000000
000000
007F00
03FFE0
07FFF0
0FC1F8
1F0038
3E0018
3C0008
780000
780000
700000
F00000
F00000
F00000
F00000
F00000
F00000
F00000
F00000
F00000
F00000
700000
780000
780000
3C0008
3E0018
1F8078
0FFFF8
07FFF0
01FFC0
000800
ENDCHAR
STARTCHAR 010B
ENCODING 267
SWIDTH 488 0
DWIDTH 19 0
BBX 15 31 2 -1
BITMAP
00E0
00E0
00E0
00E0
00E0
0000
0000
0000
01F0
0FFE
1FFE
3E0E
3C00
7800
7000
F000
F000
E000
E000
E000
E000
E000
F000
F000
7000
7800
3C02
3FBE
1FFE
07FC
0040
ENDCHAR
STARTCHAR 010C
ENCODING 268
SWIDTH 642 0
DWIDTH 25 0
BBX 21 37 2 -1
BITMAP
01C380
00C700
006600
007E00
003C00
000000
000000
007F00
03FFE0
07FFF0
0FC1F8
1F0038
3E0018
3C0008
780000
780000
700000
F00000
F00000
F00000
F00000
F00000
F00000
F00000
F00000
F00000
F00000
700000
780000
780000
3C0008
3E0018
1F8078
0FFFF8
07FFF0
01FFC0
000800
ENDCHAR
STARTCHAR 010D
ENCODING 269
SWIDTH 488 0
DWIDTH 19 0
BBX 15 32 2 -1
BITMAP
0C0C
061C
0738
0330
03F0
01E0
00E0
0000
0000
01F0
0FFE
1FFE
3E0E
3C00
7800
7000
F000
F000
E000
E000
E000
E000
E000
F000
F000
7000
7800
3C02
3FBE
1FFE
07FC
0040
ENDCHAR
STARTCHAR 010E
ENCODING 270
SWIDTH 694 0
DWIDTH 27 0
BBX 22 36 3 0
BITMAP
060E00
031C00
03B800
01F800
00F000
000000
000000
000000
FFFC00
FFFF80
FFFFC0
F007E0
F001F0
F000F0
F00078
F00078
F00038
F0003C
F0003C
F0003C
F0003C
F0003C
F0003C
F0003C
F0003C
F0003C
F0003C
F00078
F00078
F000F8
F000F0
F003E0
F00FE0
FFFF80
FFFF00
FFF800
ENDCHAR
STARTCHAR 010F
ENCODING 271
SWIDTH 565 0
DWIDTH 22 0
BBX 24 31 2 -1
BITMAP
00038F
00038E
00038E
00038E
00038E
00039C
00039C
00039C
03C380
0FF380
1FFB80
3E3F80
780F80
700780
700780
F00780
E00380
E00380
E00380
E00380
E00380
E00380
E00380
F00780
700780
780F80
7C0F80
3E3F80
1FFB80
0FF380
010000
ENDCHAR
STARTCHAR 0110
ENCODING 272
SWIDTH 694 0
DWIDTH 27 0
BBX 25 28 0 0
BITMAP
0FFF8000
0FFFF000
0FFFF800
0E00FC00
0E003E00
0E001E00
0E000F00
0E000F00
0E000780
0E000780
0E000780
0E000780
FFF80780
FFF80780
FFF80780
0E000780
0E000780
0E000780
0E000780
0E000700
0E000F00
0E000F00
0E001E00
0E007E00
0E01FC00
0FFFF800
0FFFE000
0FFF0000
ENDCHAR
STARTCHAR 0111
ENCODING 273
SWIDTH 565 0
DWIDTH 22 0
BBX 20 31 2 -1
BITMAP
000380
000380
000380
00FFF0
00FFF0
00FFF0
000380
000380
03C380
0FF380
1FFB80
3E3F80
780F80
700780
700780
F00780
E00380
E00380
E00380
E00380
E00380
E00380
E00380
F00780
700780
780F80
7C0F80
3E3F80
1FFB80
0FF380
010000
ENDCHAR
STARTCHAR 0112
ENCODING 274
SWIDTH 565 0
DWIDTH 22 0
BBX 17 35 3 0
BITMAP
1FFC00
1FFC00
1FFC00
000000
000000
000000
000000
FFFF80
FFFF80
FFFF80
F00000
F00000
F00000
F00000
F00000
F00000
F00000
F00000
FFFF00
FFFF00
FFFF00
F00000
F00000
F00000
F00000
F00000
F00000
F00000
F00000
F00000
F00000
F00000
FFFF80
FFFF80
FFFF80
ENDCHAR
STARTCHAR 0113
ENCODING 275
SWIDTH 565 0
DWIDTH 22 0
BBX 18 30 2 -1
BITMAP
0FFC00
0FFC00
0FFC00
000000
000000
000000
000000
01F000
0FFC00
1FFE00
3E1F00
380700
780380
700380
F00380
E003C0
FFFFC0
FFFFC0
FFFFC0
E00000
E00000
F00000
F00000
700000
780000
3C0180
1FDF80
0FFF80
07FF00
004000
ENDCHAR
STARTCHAR 0114
ENCODING 276
SWIDTH 565 0
DWIDTH 22 0
BBX 17 36 3 0
BITMAP
180C00
1C1C00
0FF800
07F000
008000
000000
000000
000000
FFFF80
FFFF80
FFFF80
F00000
F00000
F00000
F00000
F00000
F00000
F00000
F00000
FFFF00
FFFF00
FFFF00
F00000
F00000
F00000
F00000
F00000
F00000
F00000
F00000
F00000
F00000
F00000
FFFF80
FFFF80
FFFF80
ENDCHAR
STARTCHAR 0115
ENCODING 277
SWIDTH 565 0
DWIDTH 22 0
BBX 18 32 2 -1
BITMAP
0C0600
0C0E00
0E0C00
07FC00
03F800
01F000
000000
000000
000000
01F000
0FFC00
1FFE00
3E1F00
380700
780380
700380
F00380
E003C0
FFFFC0
FFFFC0
FFFFC0
E00000
E00000
F00000
F00000
700000
780000
3C0180
1FDF80
0FFF80
07FF00
004000
ENDCHAR
STARTCHAR 0116
ENCODING 278
SWIDTH 565 0
DWIDTH 22 0
BBX 17 36 3 0
BITMAP
01C000
01C000
01C000
01C000
000000
000000
000000
000000
FFFF80
FFFF80
FFFF80
F00000
F00000
F00000
F00000
F00000
F00000
F00000
F00000
FFFF00
FFFF00
FFFF00
F00000
F00000
F00000
F00000
F00000
F00000
F00000
F00000
F00000
F00000
F00000
FFFF80
FFFF80
FFFF80
ENDCHAR
STARTCHAR 0117
ENCODING 279
SWIDTH 565 0
DWIDTH 22 0
BBX 18 31 2 -1
BITMAP
00E000
00E000
00E000
00E000
00E000
000000
000000
000000
01F000
0FFC00
1FFE00
3E1F00
380700
780380
700380
F00380
E003C0
FFFFC0
FFFFC0
FFFFC0
E00000
E00000
F00000
F00000
700000
780000
3C0180
1FDF80
0FFF80
07FF00
004000
ENDCHAR
STARTCHAR 0118
ENCODING 280
SWIDTH 565 0
DWIDTH 22 0
BBX 17 36 3 -8
BITMAP
FFFF80
FFFF80
FFFF80
F00000
F00000
F00000
F00000
F00000
F00000
F00000
F00000
FFFF00
FFFF00
FFFF00
F00000
F00000
F00000
F00000
F00000
F00000
F00000
F00000
F00000
F00000
F00000
FFFF80
FFFF80
FFFF80
000C00
001C00
001800
001800
001800
001F80
001F80
000200
ENDCHAR
STARTCHAR 0119
ENCODING 281
SWIDTH 565 0
DWIDTH 22 0
BBX 18 29 2 -8
BITMAP
01F000
0FFC00
1FFE00
3E1F00
380700
780380
700380
F00380
E003C0
FFFFC0
FFFFC0
FFFFC0
E00000
E00000
F00000
F00000
700000
780000
3C0180
1FDF80
0FFF80
07FF00
004C00
001800
003800
003800
003800
003F80
001F80
ENDCHAR
STARTCHAR 011A
ENCODING 282
SWIDTH 565 0
DWIDTH 22 0
BBX 17 36 3 0
BITMAP
0C1800
063800
077000
03E000
01E000
000000
000000
000000
FFFF80
FFFF80
FFFF80
F00000
F00000
F00000
F00000
F00000
F00000
F00000
F00000
FFFF00
FFFF00
FFFF00
F00000
F00000
F00000
F00000
F00000
F00000
F00000
F00000
F00000
F00000
F00000
FFFF80
FFFF80
FFFF80
ENDCHAR
STARTCHAR 011B
ENCODING 283
SWIDTH 565 0
DWIDTH 22 0
BBX 18 32 2 -1
BITMAP
0E0C00
061C00
071800
03B800
01F000
01E000
00E000
000000
000000
01F000
0FFC00
1FFE00
3E1F00
380700
780380
700380
F00380
E003C0
FFFFC0
FFFFC0
FFFFC0
E00000
E00000
F00000
F00000
700000
780000
3C0180
1FDF80
0FFF80
07FF00
004000
ENDCHAR
STARTCHAR 011C
ENCODING 284
SWIDTH 694 0
DWIDTH 27 0
BBX 22 37 2 -1
BITMAP
001E00
003E00
007300
006380
00C1C0
000000
000000
007F80
03FFE0
07FFF8
0FC0FC
1F003C
3E000C
3C0004
780000
780000
700000
F00000
F00000
F00000
F00000
F007FC
F007FC
F007FC
F0001C
F0001C
F0001C
70001C
78001C
78001C
3C001C
3E001C
1F803C
0FFFFC
07FFF8
01FFE0
000800
ENDCHAR
STARTCHAR 011D
ENCODING 285
SWIDTH 565 0
DWIDTH 22 0
BBX 17 39 2 -8
BITMAP
01C000
03E000
036000
077000
063800
0C1800
1C1C00
000000
000000
03C000
0FF380
1FFB80
3E3F80
780F80
700780
F00780
F00380
E00380
E00380
E00380
E00380
E00380
E00380
F00380
F00780
700780
780F80
3C1F80
3FFB80
1FF380
07E380
000380
000780
000700
000F00
301F00
3FFE00
3FFC00
0FF000
ENDCHAR
STARTCHAR 011E
ENCODING 286
SWIDTH 694 0
DWIDTH 27 0
BBX 22 37 2 -1
BITMAP
030180
018380
01FF00
00FE00
001000
000000
000000
007F80
03FFE0
07FFF8
0FC0FC
1F003C
3E000C
3C0004
780000
780000
700000
F00000
F00000
F00000
F00000
F007FC
F007FC
F007FC
F0001C
F0001C
F0001C
70001C
78001C
78001C
3C001C
3E001C
1F803C
0FFFFC
07FFF8
01FFE0
000800
ENDCHAR
STARTCHAR 011F
ENCODING 287
SWIDTH 565 0
DWIDTH 22 0
BBX 17 39 2 -8
BITMAP
0C0E00
0C0C00
0E1C00
07FC00
07F800
01E000
000000
000000
000000
03C000
0FF380
1FFB80
3E3F80
780F80
700780
F00780
F00380
E00380
E00380
E00380
E00380
E00380
E00380
F00380
F00780
700780
780F80
3C1F80
3FFB80
1FF380
07E380
000380
000780
000700
000F00
301F00
3FFE00
3FFC00
0FF000
ENDCHAR
STARTCHAR 0120
ENCODING 288
SWIDTH 694 0
DWIDTH 27 0
BBX 22 37 2 -1
BITMAP
001C00
001C00
001C00
001C00
000000
000000
000000
007F80
03FFE0
07FFF8
0FC0FC
1F003C
3E000C
3C0004
780000
780000
700000
F00000
F00000
F00000
F00000
F007FC
F007FC
F007FC
F0001C
F0001C
F0001C
70001C
78001C
78001C
3C001C
3E001C
1F803C
0FFFFC
07FFF8
01FFE0
000800
ENDCHAR
STARTCHAR 0121
ENCODING 289
SWIDTH 565 0
DWIDTH 22 0
BBX 17 38 2 -8
BITMAP
01C000
01C000
01C000
01C000
01C000
000000
000000
000000
03C000
0FF380
1FFB80
3E3F80
780F80
700780
F00780
F00380
E00380
E00380
E00380
E00380
E00380
E00380
F00380
F00780
700780
780F80
3C1F80
3FFB80
1FF380
07E380
000380
000780
000700
000F00
301F00
3FFE00
3FFC00
0FF000
ENDCHAR
STARTCHAR 0122
ENCODING 290
SWIDTH 694 0
DWIDTH 27 0
BBX 22 38 2 -9
BITMAP
007F80
03FFE0
07FFF8
0FC0FC
1F003C
3E000C
3C0004
780000
780000
700000
F00000
F00000
F00000
F00000
F007FC
F007FC
F007FC
F0001C
F0001C
F0001C
70001C
78001C
78001C
3C001C
3E001C
1F803C
0FFFFC
07FFF8
01FFE0
000800
000000
000000
000E00
001E00
001C00
001C00
001800
003800
ENDCHAR
STARTCHAR 0123
ENCODING 291
SWIDTH 565 0
DWIDTH 22 0
BBX 17 38 2 -8
BITMAP
007000
006000
00E000
00E000
01E000
01C000
000000
000000
03C000
0FF380
1FFB80
3E3F80
780F80
700780
F00780
F00380
E00380
E00380
E00380
E00380
E00380
E00380
F00380
F00780
700780
780F80
3C1F80
3FFB80
1FF380
07E380
000380
000780
000700
000F00
301F00
3FFE00
3FFC00
0FF000
ENDCHAR
STARTCHAR 0124
ENCODING 292
SWIDTH 668 0
DWIDTH 26 0
BBX 20 36 3 0
BITMAP
00F000
01F800
019C00
038C00
070600
000000
000000
000000
F000F0
F000F0
F000F0
F000F0
F000F0
F000F0
F000F0
F000F0
F000F0
F000F0
F000F0
FFFFF0
FFFFF0
FFFFF0
F000F0
F000F0
F000F0
F000F0
F000F0
F000F0
F000F0
F000F0
F000F0
F000F0
F000F0
F000F0
F000F0
F000F0
ENDCHAR
STARTCHAR 0125
ENCODING 293
SWIDTH 565 0
DWIDTH 22 0
BBX 19 36 0 0
BITMAP
1E0000
3F0000
730000
638000
C1C000
000000
1C0000
1C0000
1C0000
1C0000
1C0000
1C0000
1C0000
1C0000
1C3E00
1CFF80
1DFFC0
1DC7C0
1F01E0
1E01E0
1E00E0
1E00E0
1C00E0
1C00E0
1C00E0
1C00E0
1C00E0
1C00E0
1C00E0
1C00E0
1C00E0
1C00E0
1C00E0
1C00E0
1C00E0
1C00E0
ENDCHAR
STARTCHAR 0126
ENCODING 294
SWIDTH 822 0
DWIDTH 32 0
BBX 26 28 3 0
BITMAP
1E001E00
1E001E00
1E001E00
1E001E00
FFFFFFC0
FFFFFFC0
FFFFFFC0
1E001E00
1E001E00
1E001E00
1E001E00
1FFFFE00
1FFFFE00
1FFFFE00
1E001E00
1E001E00
1E001E00
1E001E00
1E001E00
1E001E00
1E001E00
1E001E00
1E001E00
1E001E00
1E001E00
1E001E00
1E001E00
1E001E00
ENDCHAR
STARTCHAR 0127
ENCODING 295
SWIDTH 617 0
DWIDTH 24 0
BBX 18 30 2 0
BITMAP
380000
380000
380000
FFE000
FFE000
FFE000
380000
380000
387C00
39FF00
3BFF80
3B8F80
3E03C0
3C03C0
3C01C0
3C01C0
3801C0
3801C0
3801C0
3801C0
3801C0
3801C0
3801C0
3801C0
3801C0
3801C0
3801C0
3801C0
3801C0
3801C0
ENDCHAR
STARTCHAR 0128
ENCODING 296
SWIDTH 257 0
DWIDTH 10 0
BBX 11 36 0 0
BITMAP
7060
FCE0
FFC0
C7C0
0000
0000
0000
0000
1E00
1E00
1E00
1E00
1E00
1E00
1E00
1E00
1E00
1E00
1E00
1E00
1E00
1E00
1E00
1E00
1E00
1E00
1E00
1E00
1E00
1E00
1E00
1E00
1E00
1E00
1E00
1E00
ENDCHAR
STARTCHAR 0129
ENCODING 297
SWIDTH 257 0
DWIDTH 10 0
BBX 12 30 -1 0
BITMAP
3C70
7E60
6F60
E7E0
C3C0
0000
0000
0000
0000
0E00
0E00
0E00
0E00
0E00
0E00
0E00
0E00
0E00
0E00
0E00
0E00
0E00
0E00
0E00
0E00
0E00
0E00
0E00
0E00
0E00
ENDCHAR
STARTCHAR 012A
ENCODING 298
SWIDTH 257 0
DWIDTH 10 0
BBX 10 35 0 0
BITMAP
FFC0
FFC0
FFC0
0000
0000
0000
0000
1E00
1E00
1E00
1E00
1E00
1E00
1E00
1E00
1E00
1E00
1E00
1E00
1E00
1E00
1E00
1E00
1E00
1E00
1E00
1E00
1E00
1E00
1E00
1E00
1E00
1E00
1E00
1E00
ENDCHAR
STARTCHAR 012B
ENCODING 299
SWIDTH 257 0
DWIDTH 10 0
BBX 10 29 0 0
BITMAP
FFC0
FFC0
FFC0
0000
0000
0000
0000
0000
1C00
1C00
1C00
1C00
1C00
1C00
1C00
1C00
1C00
1C00
1C00
1C00
1C00
1C00
1C00
1C00
1C00
1C00
1C00
1C00
1C00
ENDCHAR
STARTCHAR 012C
ENCODING 300
SWIDTH 257 0
DWIDTH 10 0
BBX 10 36 0 0
BITMAP
C0C0
E1C0
7FC0
3F80
0000
0000
0000
0000
1E00
1E00
1E00
1E00
1E00
1E00
1E00
1E00
1E00
1E00
1E00
1E00
1E00
1E00
1E00
1E00
1E00
1E00
1E00
1E00
1E00
1E00
1E00
1E00
1E00
1E00
1E00
1E00
ENDCHAR
STARTCHAR 012D
ENCODING 301
SWIDTH 257 0
DWIDTH 10 0
BBX 10 31 0 0
BITMAP
C0C0
C0C0
E1C0
FF80
7F80
1E00
0000
0000
0000
0000
1C00
1C00
1C00
1C00
1C00
1C00
1C00
1C00
1C00
1C00
1C00
1C00
1C00
1C00
1C00
1C00
1C00
1C00
1C00
1C00
1C00
ENDCHAR
STARTCHAR 012E
ENCODING 302
SWIDTH 257 0
DWIDTH 10 0
BBX 6 35 3 -8
BITMAP
F0
F0
F0
F0
F0
F0
F0
F0
F0
F0
F0
F0
F0
F0
F0
F0
F0
F0
F0
F0
F0
F0
F0
F0
F0
F0
F0
F0
70
60
E0
C0
E0
FC
7C
ENDCHAR
STARTCHAR 012F
ENCODING 303
SWIDTH 257 0
DWIDTH 10 0
BBX 6 38 3 -8
BITMAP
E0
E0
E0
E0
E0
00
00
00
00
E0
E0
E0
E0
E0
E0
E0
E0
E0
E0
E0
E0
E0
E0
E0
E0
E0
E0
E0
E0
E0
60
E0
C0
C0
C0
FC
FC
10
ENDCHAR
STARTCHAR 0130
ENCODING 304
SWIDTH 257 0
DWIDTH 10 0
BBX 4 36 3 0
BITMAP
F0
F0
F0
F0
00
00
00
00
F0
F0
F0
F0
F0
F0
F0
F0
F0
F0
F0
F0
F0
F0
F0
F0
F0
F0
F0
F0
F0
F0
F0
F0
F0
F0
F0
F0
ENDCHAR
STARTCHAR 0131
ENCODING 305
SWIDTH 257 0
DWIDTH 10 0
BBX 3 21 3 1
BITMAP
E0
E0
E0
E0
E0
E0
E0
E0
E0
E0
E0
E0
E0
E0
E0
E0
E0
E0
E0
E0
E0
ENDCHAR
STARTCHAR 0132
ENCODING 306
SWIDTH 540 0
DWIDTH 21 0
BBX 14 36 3 -8
BITMAP
F01C
F01C
F01C
F01C
F01C
F01C
F01C
F01C
F01C
F01C
F01C
F01C
F01C
F01C
F01C
F01C
F01C
F01C
F01C
F01C
F01C
F01C
F01C
F01C
F01C
F01C
F01C
F01C
001C
003C
003C
003C
01F8
03F8
03E0
0380
ENDCHAR
STARTCHAR 0133
ENCODING 307
SWIDTH 514 0
DWIDTH 20 0
BBX 13 38 3 -8
BITMAP
E038
E038
E038
E038
E038
0000
0000
0000
0000
E038
E038
E038
E038
E038
E038
E038
E038
E038
E038
E038
E038
E038
E038
E038
E038
E038
E038
E038
E038
E038
0038
0038
0038
0038
0078
03F0
03F0
03C0
ENDCHAR
STARTCHAR 0134
ENCODING 308
SWIDTH 257 0
DWIDTH 10 0
BBX 12 44 -2 -8
BITMAP
0780
0FC0
0CE0
1C60
3830
0000
0000
0000
0780
0780
0780
0780
0780
0780
0780
0780
0780
0780
0780
0780
0780
0780
0780
0780
0780
0780
0780
0780
0780
0780
0780
0780
0780
0780
0780
0780
0780
0780
0700
0F00
3F00
FE00
FC00
F000
ENDCHAR
STARTCHAR 0135
ENCODING 309
SWIDTH 257 0
DWIDTH 10 0
BBX 11 39 -1 -8
BITMAP
0F00
0F00
1F80
3980
31C0
70E0
6060
0000
0000
0000
0E00
0E00
0E00
0E00
0E00
0E00
0E00
0E00
0E00
0E00
0E00
0E00
0E00
0E00
0E00
0E00
0E00
0E00
0E00
0E00
0E00
0E00
0E00
0E00
0E00
1E00
FE00
FC00
F800
ENDCHAR
STARTCHAR 0136
ENCODING 310
SWIDTH 591 0
DWIDTH 23 0
BBX 20 37 3 -9
BITMAP
F003E0
F003C0
F00780
F00F00
F01E00
F03C00
F07800
F0F000
F1E000
F3C000
F78000
FF0000
FE0000
FF0000
FF8000
F7C000
F3C000
F1E000
F0F000
F07800
F07C00
F03E00
F01F00
F00F80
F007C0
F003E0
F001E0
F000F0
000000
000000
000000
007800
007800
007000
007000
00E000
00E000
ENDCHAR
STARTCHAR 0137
ENCODING 311
SWIDTH 514 0
DWIDTH 20 0
BBX 17 39 3 -9
BITMAP
E00000
E00000
E00000
E00000
E00000
E00000
E00000
E00000
E00000
E00F00
E01E00
E03C00
E07800
E0F000
E1E000
E3C000
E78000
EF0000
FE0000
FE0000
EF0000
E78000
E3C000
E1E000
E0F000
E07800
E03C00
E01E00
E00F00
E00780
000000
000000
000000
00E000
01E000
01C000
01C000
018000
038000
ENDCHAR
STARTCHAR 0138
ENCODING 312
SWIDTH 514 0
DWIDTH 20 0
BBX 17 21 3 0
BITMAP
E00F00
E01E00
E03C00
E07800
E0F000
E1E000
E3C000
E78000
EF0000
FE0000
FE0000
EF0000
E78000
E3C000
E1E000
E0F000
E07800
E03C00
E01E00
E00F00
E00780
ENDCHAR
STARTCHAR 0139
ENCODING 313
SWIDTH 514 0
DWIDTH 20 0
BBX 16 36 3 0
BITMAP
0E00
1C00
3800
3800
7000
0000
0000
0000
F000
F000
F000
F000
F000
F000
F000
F000
F000
F000
F000
F000
F000
F000
F000
F000
F000
F000
F000
F000
F000
F000
F000
F000
F000
FFFF
FFFF
FFFF
ENDCHAR
STARTCHAR 013A
ENCODING 314
SWIDTH 257 0
DWIDTH 10 0
BBX 7 36 3 0
BITMAP
1E
1C
38
70
70
00
E0
E0
E0
E0
E0
E0
E0
E0
E0
E0
E0
E0
E0
E0
E0
E0
E0
E0
E0
E0
E0
E0
E0
E0
E0
E0
E0
E0
E0
E0
ENDCHAR
STARTCHAR 013B
ENCODING 315
SWIDTH 514 0
DWIDTH 20 0
BBX 16 37 3 -9
BITMAP
F000
F000
F000
F000
F000
F000
F000
F000
F000
F000
F000
F000
F000
F000
F000
F000
F000
F000
F000
F000
F000
F000
F000
F000
F000
FFFF
FFFF
FFFF
0000
0000
0000
01E0
01C0
01C0
0180
0380
0300
ENDCHAR
STARTCHAR 013C
ENCODING 316
SWIDTH 257 0
DWIDTH 10 0
BBX 4 39 3 -9
BITMAP
E0
E0
E0
E0
E0
E0
E0
E0
E0
E0
E0
E0
E0
E0
E0
E0
E0
E0
E0
E0
E0
E0
E0
E0
E0
E0
E0
E0
E0
E0
00
00
00
70
F0
E0
E0
C0
C0
ENDCHAR
STARTCHAR 013D
ENCODING 317
SWIDTH 514 0
DWIDTH 20 0
BBX 16 29 3 0
BITMAP
00F0
F0F0
F0E0
F0E0
F0E0
F0C0
F1C0
F1C0
F000
F000
F000
F000
F000
F000
F000
F000
F000
F000
F000
F000
F000
F000
F000
F000
F000
F000
FFFF
FFFF
FFFF
ENDCHAR
STARTCHAR 013E
ENCODING 318
SWIDTH 334 0
DWIDTH 13 0
BBX 10 30 3 0
BITMAP
E1C0
E1C0
E3C0
E380
E380
E380
E300
E300
E000
E000
E000
E000
E000
E000
E000
E000
E000
E000
E000
E000
E000
E000
E000
E000
E000
E000
E000
E000
E000
E000
ENDCHAR
STARTCHAR 013F
ENCODING 319
SWIDTH 514 0
DWIDTH 20 0
BBX 16 28 3 0
BITMAP
F000
F000
F000
F000
F000
F000
F000
F000
F000
F000
F03C
F03C
F03C
F03C
F03C
F000
F000
F000
F000
F000
F000
F000
F000
F000
F000
FFFF
FFFF
FFFF
ENDCHAR
STARTCHAR 0140
ENCODING 320
SWIDTH 308 0
DWIDTH 12 0
BBX 8 30 3 0
BITMAP
E0
E0
E0
E0
E0
E0
E0
E0
E0
E0
E0
E0
EF
EF
EF
EF
EF
E0
E0
E0
E0
E0
E0
E0
E0
E0
E0
E0
E0
E0
ENDCHAR
STARTCHAR 0141
ENCODING 321
SWIDTH 514 0
DWIDTH 20 0
BBX 20 28 0 0
BITMAP
0E0000
0E0000
0E0000
0E0000
0E0000
0E0000
0E0000
0E0800
0E1800
0E7C00
0EF000
0FE000
0FC000
0F0000
1E0000
3E0000
FE0000
EE0000
4E0000
0E0000
0E0000
0E0000
0E0000
0E0000
0E0000
0FFFF0
0FFFF0
0FFFF0
ENDCHAR
STARTCHAR 0142
ENCODING 322
SWIDTH 257 0
DWIDTH 10 0
BBX 10 30 0 0
BITMAP
1E00
1E00
1E00
1E00
1E00
1E00
1E00
1E00
1E00
1E00
1E80
1FC0
1FC0
1F00
1E00
3E00
7E00
FE00
5E00
1E00
1E00
1E00
1E00
1E00
1E00
1E00
1E00
1E00
1E00
1E00
ENDCHAR
STARTCHAR 0143
ENCODING 323
SWIDTH 668 0
DWIDTH 26 0
BBX 20 36 3 0
BITMAP
003800
007000
00E000
00E000
01C000
000000
000000
000000
FC00F0
FC00F0
FE00F0
FE00F0
FE00F0
FF00F0
F700F0
F780F0
F380F0
F3C0F0
F1C0F0
F1E0F0
F0E0F0
F0F0F0
F070F0
F078F0
F038F0
F03CF0
F01CF0
F01EF0
F00EF0
F00FF0
F007F0
F007F0
F007F0
F003F0
F003F0
F001F0
ENDCHAR
STARTCHAR 0144
ENCODING 324
SWIDTH 565 0
DWIDTH 22 0
BBX 16 31 3 0
BITMAP
0070
00E0
01E0
01C0
0380
0700
0700
0000
0000
01F0
E7FC
EFFE
EE3E
F80F
F00F
F007
F007
E007
E007
E007
E007
E007
E007
E007
E007
E007
E007
E007
E007
E007
E007
ENDCHAR
STARTCHAR 0145
ENCODING 325
SWIDTH 668 0
DWIDTH 26 0
BBX 20 37 3 -9
BITMAP
FC00F0
FC00F0
FE00F0
FE00F0
FE00F0
FF00F0
F700F0
F780F0
F380F0
F3C0F0
F1C0F0
F1E0F0
F0E0F0
F0F0F0
F070F0
F078F0
F038F0
F03CF0
F01CF0
F01EF0
F00EF0
F00FF0
F007F0
F007F0
F007F0
F003F0
F003F0
F001F0
000000
000000
000000
007800
007000
00F000
00E000
00E000
00C000
ENDCHAR
STARTCHAR 0146
ENCODING 326
SWIDTH 565 0
DWIDTH 22 0
BBX 16 31 3 -9
BITMAP
01F0
E7FC
EFFE
EE3E
F80F
F00F
F007
F007
E007
E007
E007
E007
E007
E007
E007
E007
E007
E007
E007
E007
E007
E007
0000
0000
0000
01E0
01C0
01C0
0380
0380
0300
ENDCHAR
STARTCHAR 0147
ENCODING 327
SWIDTH 668 0
DWIDTH 26 0
BBX 20 36 3 0
BITMAP
070E00
031C00
019800
01F800
00F000
000000
000000
000000
FC00F0
FC00F0
FE00F0
FE00F0
FE00F0
FF00F0
F700F0
F780F0
F380F0
F3C0F0
F1C0F0
F1E0F0
F0E0F0
F0F0F0
F070F0
F078F0
F038F0
F03CF0
F01CF0
F01EF0
F00EF0
F00FF0
F007F0
F007F0
F007F0
F003F0
F003F0
F001F0
ENDCHAR
STARTCHAR 0148
ENCODING 328
SWIDTH 565 0
DWIDTH 22 0
BBX 16 31 3 0
BITMAP
1C18
0C38
0E70
0770
07E0
03C0
01C0
0000
0000
01F0
E7FC
EFFE
EE3E
F80F
F00F
F007
F007
E007
E007
E007
E007
E007
E007
E007
E007
E007
E007
E007
E007
E007
E007
ENDCHAR
STARTCHAR 0149
ENCODING 329
SWIDTH 745 0
DWIDTH 29 0
BBX 22 28 3 0
BITMAP
3C0000
3C0000
3C0000
380000
780000
700000
7007C0
639FF0
E3BFF0
03F8F8
03E038
03C03C
03C01C
03801C
03801C
03801C
03801C
03801C
03801C
03801C
03801C
03801C
03801C
03801C
03801C
03801C
03801C
03801C
ENDCHAR
STARTCHAR 014A
ENCODING 330
SWIDTH 668 0
DWIDTH 26 0
BBX 19 37 3 -8
BITMAP
007C00
F1FF00
F3FF80
F7FFC0
FF07C0
FC03C0
FC01E0
F801E0
F800E0
F000E0
F000E0
F000E0
F000E0
F000E0
F000E0
F000E0
F000E0
F000E0
F000E0
F000E0
F000E0
F000E0
F000E0
F000E0
F000E0
F000E0
F000E0
F000E0
F000E0
0000E0
0000E0
0000E0
0000E0
0001E0
000FC0
000FC0
000F00
ENDCHAR
STARTCHAR 014B
ENCODING 331
SWIDTH 565 0
DWIDTH 22 0
BBX 16 30 3 -8
BITMAP
01F0
E7FC
EFFE
EE3E
F80F
F00F
F007
F007
E007
E007
E007
E007
E007
E007
E007
E007
E007
E007
E007
E007
E007
E007
0007
0007
0007
0007
000F
03FE
03FE
03F8
ENDCHAR
STARTCHAR 014C
ENCODING 332
SWIDTH 720 0
DWIDTH 28 0
BBX 24 36 2 -1
BITMAP
01FF80
01FF80
01FF80
000000
000000
000000
007E00
03FFC0
07FFE0
0FC3F0
1F00F8
3C0078
3C003C
78003C
78001E
70001E
F0000E
F0000E
F0000F
F0000F
F0000F
F0000F
F0000F
F0000F
F0000E
F0001E
70001E
78001E
78003C
3C003C
3E0078
1F01F0
0FFFF0
07FFC0
01FF80
001000
ENDCHAR
STARTCHAR 014D
ENCODING 333
SWIDTH 540 0
DWIDTH 21 0
BBX 18 30 2 -1
BITMAP
0FFC00
0FFC00
0FFC00
000000
000000
000000
000000
03E000
0FF800
1FFE00
3E1E00
780F00
780780
700780
F00380
E00380
E00380
E003C0
E003C0
E003C0
E00380
F00380
F00380
700780
780700
3C0F00
3F7E00
1FFC00
0FF800
008000
ENDCHAR
STARTCHAR 014E
ENCODING 334
SWIDTH 720 0
DWIDTH 28 0
BBX 24 37 2 -1
BITMAP
018180
01C380
01FF00
00FE00
000000
000000
000000
007E00
03FFC0
07FFE0
0FC3F0
1F00F8
3C0078
3C003C
78003C
78001E
70001E
F0000E
F0000E
F0000F
F0000F
F0000F
F0000F
F0000F
F0000F
F0000E
F0001E
70001E
78001E
78003C
3C003C
3E0078
1F01F0
0FFFF0
07FFC0
01FF80
001000
ENDCHAR
STARTCHAR 014F
ENCODING 335
SWIDTH 540 0
DWIDTH 21 0
BBX 18 32 2 -1
BITMAP
180C00
1C0C00
0C1C00
0FF800
07F800
01E000
000000
000000
000000
03E000
0FF800
1FFE00
3E1E00
780F00
780780
700780
F00380
E00380
E00380
E003C0
E003C0
E003C0
E00380
F00380
F00380
700780
780700
3C0F00
3F7E00
1FFC00
0FF800
008000
ENDCHAR
STARTCHAR 0150
ENCODING 336
SWIDTH 720 0
DWIDTH 28 0
BBX 24 37 2 -1
BITMAP
0038E0
0071C0
007380
00E380
01C700
000000
000000
007E00
03FFC0
07FFE0
0FC3F0
1F00F8
3C0078
3C003C
78003C
78001E
70001E
F0000E
F0000E
F0000F
F0000F
F0000F
F0000F
F0000F
F0000F
F0000E
F0001E
70001E
78001E
78003C
3C003C
3E0078
1F01F0
0FFFF0
07FFC0
01FF80
001000
ENDCHAR
STARTCHAR 0151
ENCODING 337
SWIDTH 540 0
DWIDTH 21 0
BBX 18 32 2 -1
BITMAP
00E380
01C700
01C600
038E00
038C00
031C00
061800
000000
000000
03E000
0FF800
1FFE00
3E1E00
780F00
780780
700780
F00380
E00380
E00380
E003C0
E003C0
E003C0
E00380
F00380
F00380
700780
780700
3C0F00
3F7E00
1FFC00
0FF800
008000
ENDCHAR
STARTCHAR 0152
ENCODING 338
SWIDTH 977 0
DWIDTH 38 0
BBX 33 28 2 0
BITMAP
00FFFFFF80
03FFFFFF80
07FFFFFF80
1FC0700000
1F00700000
3C00700000
7C00700000
7800700000
7000700000
F000700000
F000700000
F0007FFF00
F0007FFF00
F0007FFF00
F000700000
F000700000
F000700000
F000700000
7000700000
7800700000
7800700000
3C00700000
3E00700000
1F00700000
0FF0700000
07FFFFFF80
01FFFFFF80
003FFFFF80
ENDCHAR
STARTCHAR 0153
ENCODING 339
SWIDTH 925 0
DWIDTH 36 0
BBX 32 23 2 -1
BITMAP
03E007C0
0FF81FF0
1FFE7FF8
3E1EFC7C
780FF01E
7807E00E
7007C00F
F003C007
E003C007
E003FFFF
E003FFFF
E003FFFF
E003C000
E003C000
F003C000
F003C000
7007E000
7807E000
3C0FF002
3F7E7F7E
1FFC3FFE
0FF81FFC
00800080
ENDCHAR
STARTCHAR 0154
ENCODING 340
SWIDTH 617 0
DWIDTH 24 0
BBX 20 36 3 0
BITMAP
007000
00E000
00C000
01C000
038000
000000
000000
000000
FFF800
FFFE00
FFFF00
F01F00
F00F80
F00780
F00780
F00780
F00780
F00780
F00780
F00F00
F03F00
FFFE00
FFF800
FFFC00
F03E00
F00E00
F00F00
F00780
F00780
F00380
F003C0
F001C0
F001E0
F000E0
F000F0
F000F0
ENDCHAR
STARTCHAR 0155
ENCODING 341
SWIDTH 360 0
DWIDTH 14 0
BBX 12 31 3 0
BITMAP
0070
00E0
01E0
01C0
0380
0700
0600
0000
0000
01E0
E7E0
EFE0
EF20
F800
F800
F000
F000
F000
E000
E000
E000
E000
E000
E000
E000
E000
E000
E000
E000
E000
E000
ENDCHAR
STARTCHAR 0156
ENCODING 342
SWIDTH 617 0
DWIDTH 24 0
BBX 20 37 3 -9
BITMAP
FFF800
FFFE00
FFFF00
F01F00
F00F80
F00780
F00780
F00780
F00780
F00780
F00780
F00F00
F03F00
FFFE00
FFF800
FFFC00
F03E00
F00E00
F00F00
F00780
F00780
F00380
F003C0
F001C0
F001E0
F000E0
F000F0
F000F0
000000
000000
000000
007800
007000
007000
006000
00E000
00C000
ENDCHAR
STARTCHAR 0157
ENCODING 343
SWIDTH 360 0
DWIDTH 14 0
BBX 12 31 2 -9
BITMAP
00F0
73F0
77F0
7790
7C00
7C00
7800
7800
7800
7000
7000
7000
7000
7000
7000
7000
7000
7000
7000
7000
7000
7000
0000
0000
0000
3800
7800
7000
7000
6000
E000
ENDCHAR
STARTCHAR 0158
ENCODING 344
SWIDTH 617 0
DWIDTH 24 0
BBX 20 36 3 0
BITMAP
1C3800
0C7000
066000
07E000
03C000
000000
000000
000000
FFF800
FFFE00
FFFF00
F01F00
F00F80
F00780
F00780
F00780
F00780
F00780
F00780
F00F00
F03F00
FFFE00
FFF800
FFFC00
F03E00
F00E00
F00F00
F00780
F00780
F00380
F003C0
F001C0
F001E0
F000E0
F000F0
F000F0
ENDCHAR
STARTCHAR 0159
ENCODING 345
SWIDTH 360 0
DWIDTH 14 0
BBX 11 31 3 0
BITMAP
7060
30E0
38C0
1DC0
0F80
0F00
0700
0000
0000
01E0
E7E0
EFE0
EF20
F800
F800
F000
F000
F000
E000
E000
E000
E000
E000
E000
E000
E000
E000
E000
E000
E000
E000
ENDCHAR
STARTCHAR 015A
ENCODING 346
SWIDTH 565 0
DWIDTH 22 0
BBX 18 37 2 -1
BITMAP
003800
007000
006000
00E000
01C000
000000
000000
03F800
0FFF80
3FFF80
3E0F80
780180
700000
F00000
F00000
F00000
F00000
780000
7C0000
7FC000
3FF800
0FFE00
03FF00
003F80
0007C0
0003C0
0003C0
0001C0
0001C0
0001C0
0003C0
C003C0
F00780
FFFF80
FFFF00
3FFC00
008000
ENDCHAR
STARTCHAR 015B
ENCODING 347
SWIDTH 462 0
DWIDTH 18 0
BBX 15 32 2 -1
BITMAP
0038
0070
00F0
00E0
01C0
0380
0380
0000
0000
07E0
3FFC
7FFC
781C
F004
E000
E000
E000
F000
7E00
7FE0
1FF8
03FC
007C
001C
001E
001E
001C
C03C
F8FC
FFF8
7FE0
0200
ENDCHAR
STARTCHAR 015C
ENCODING 348
SWIDTH 565 0
DWIDTH 22 0
BBX 18 37 2 -1
BITMAP
01E000
01F000
03B800
071800
0E0C00
000000
000000
03F800
0FFF80
3FFF80
3E0F80
780180
700000
F00000
F00000
F00000
F00000
780000
7C0000
7FC000
3FF800
0FFE00
03FF00
003F80
0007C0
0003C0
0003C0
0001C0
0001C0
0001C0
0003C0
C003C0
F00780
FFFF80
FFFF00
3FFC00
008000
ENDCHAR
STARTCHAR 015D
ENCODING 349
SWIDTH 462 0
DWIDTH 18 0
BBX 15 32 2 -1
BITMAP
0380
07C0
06C0
0EE0
1C60
1830
3838
0000
0000
07E0
3FFC
7FFC
781C
F004
E000
E000
E000
F000
7E00
7FE0
1FF8
03FC
007C
001C
001E
001E
001C
C03C
F8FC
FFF8
7FE0
0200
ENDCHAR
STARTCHAR 015E
ENCODING 350
SWIDTH 565 0
DWIDTH 22 0
BBX 18 37 2 -8
BITMAP
03F800
0FFF80
3FFF80
3E0F80
780180
700000
F00000
F00000
F00000
F00000
780000
7C0000
7FC000
3FF800
0FFE00
03FF00
003F80
0007C0
0003C0
0003C0
0001C0
0001C0
0001C0
0003C0
C003C0
F00780
FFFF80
FFFF00
3FFC00
00E000
007000
003000
003000
003000
07F000
07F000
008000
ENDCHAR
STARTCHAR 015F
ENCODING 351
SWIDTH 462 0
DWIDTH 18 0
BBX 15 30 2 -8
BITMAP
07E0
3FFC
7FFC
781C
F004
E000
E000
E000
F000
7E00
7FE0
1FF8
03FC
007C
001C
001E
001E
001C
C03C
F8FC
FFF8
7FE0
0380
01C0
00C0
00C0
00C0
1FC0
1FC0
0200
ENDCHAR
STARTCHAR 0160
ENCODING 352
SWIDTH 565 0
DWIDTH 22 0
BBX 18 37 2 -1
BITMAP
0E1C00
071800
033800
01F000
01E000
000000
000000
03F800
0FFF80
3FFF80
3E0F80
780180
700000
F00000
F00000
F00000
F00000
780000
7C0000
7FC000
3FF800
0FFE00
03FF00
003F80
0007C0
0003C0
0003C0
0001C0
0001C0
0001C0
0003C0
C003C0
F00780
FFFF80
FFFF00
3FFC00
008000
ENDCHAR
STARTCHAR 0161
ENCODING 353
SWIDTH 462 0
DWIDTH 18 0
BBX 15 32 2 -1
BITMAP
3838
1C70
0C60
0EE0
07C0
07C0
0380
0000
0000
07E0
3FFC
7FFC
781C
F004
E000
E000
E000
F000
7E00
7FE0
1FF8
03FC
007C
001C
001E
001E
001C
C03C
F8FC
FFF8
7FE0
0200
ENDCHAR
STARTCHAR 0162
ENCODING 354
SWIDTH 540 0
DWIDTH 21 0
BBX 22 36 0 -8
BITMAP
FFFFFC
FFFFFC
FFFFFC
007000
007000
007000
007000
007000
007000
007000
007000
007000
007000
007000
007000
007000
007000
007000
007000
007000
007000
007000
007000
007000
007000
007000
007000
007000
003000
003800
001800
001800
001800
03F800
03F800
004000
ENDCHAR
STARTCHAR 0163
ENCODING 355
SWIDTH 360 0
DWIDTH 14 0
BBX 12 35 1 -8
BITMAP
3800
3800
3800
3800
3800
3800
FFF0
FFF0
3800
3800
3800
3800
3800
3800
3800
3800
3800
3800
3800
3800
3800
3800
3C00
1C00
1FF0
0FF0
07F0
0180
00C0
00C0
00C0
00E0
1FC0
1FC0
0200
ENDCHAR
STARTCHAR 0164
ENCODING 356
SWIDTH 540 0
DWIDTH 21 0
BBX 22 36 0 0
BITMAP
030700
018E00
01DC00
00F800
007800
000000
000000
000000
FFFFFC
FFFFFC
FFFFFC
007000
007000
007000
007000
007000
007000
007000
007000
007000
007000
007000
007000
007000
007000
007000
007000
007000
007000
007000
007000
007000
007000
007000
007000
007000
ENDCHAR
STARTCHAR 0165
ENCODING 357
SWIDTH 360 0
DWIDTH 14 0
BBX 12 32 1 0
BITMAP
0070
0070
00F0
00E0
00E0
38E0
38C0
38C0
3800
3800
3800
FFF0
FFF0
3800
3800
3800
3800
3800
3800
3800
3800
3800
3800
3800
3800
3800
3800
3C00
1C00
1FF0
0FF0
07F0
ENDCHAR
STARTCHAR 0166
ENCODING 358
SWIDTH 540 0
DWIDTH 21 0
BBX 22 28 0 0
BITMAP
FFFFFC
FFFFFC
FFFFFC
007000
007000
007000
007000
007000
007000
007000
007000
007000
007000
007000
0FFF80
0FFF80
0FFF80
007000
007000
007000
007000
007000
007000
007000
007000
007000
007000
007000
ENDCHAR
STARTCHAR 0167
ENCODING 359
SWIDTH 360 0
DWIDTH 14 0
BBX 12 27 1 0
BITMAP
3800
3800
3800
3800
3800
3800
FFF0
FFF0
3800
3800
3800
3800
3800
FFF0
FFF0
FFF0
3800
3800
3800
3800
3800
3800
3C00
1C00
1FF0
0FF0
07F0
ENDCHAR
STARTCHAR 0168
ENCODING 360
SWIDTH 668 0
DWIDTH 26 0
BBX 20 37 3 -1
BITMAP
038700
07E600
0FFE00
0C3C00
000000
000000
000000
000000
F000F0
F000F0
F000F0
F000F0
F000F0
F000F0
F000F0
F000F0
F000F0
F000F0
F000F0
F000F0
F000F0
F000F0
F000F0
F000F0
F000F0
F000F0
F000F0
F000F0
F000E0
F000E0
7001E0
7801E0
3C07C0
3FFF80
1FFF00
07FE00
004000
ENDCHAR
STARTCHAR 0169
ENCODING 361
SWIDTH 565 0
DWIDTH 22 0
BBX 16 31 3 -1
BITMAP
0F1C
1F9C
19D8
38F8
3870
0000
0000
0000
0000
E007
E007
E007
E007
E007
E007
E007
E007
E007
E007
E007
E007
E007
E007
E007
E00F
F00F
781F
7FF7
3FF7
1FC7
0200
ENDCHAR
STARTCHAR 016A
ENCODING 362
SWIDTH 668 0
DWIDTH 26 0
BBX 20 36 3 -1
BITMAP
07FE00
07FE00
07FE00
000000
000000
000000
000000
F000F0
F000F0
F000F0
F000F0
F000F0
F000F0
F000F0
F000F0
F000F0
F000F0
F000F0
F000F0
F000F0
F000F0
F000F0
F000F0
F000F0
F000F0
F000F0
F000F0
F000E0
F000E0
7001E0
7801E0
3C07C0
3FFF80
1FFF00
07FE00
004000
ENDCHAR
STARTCHAR 016B
ENCODING 363
SWIDTH 565 0
DWIDTH 22 0
BBX 16 30 3 -1
BITMAP
1FF8
1FF8
1FF8
0000
0000
0000
0000
0000
E007
E007
E007
E007
E007
E007
E007
E007
E007
E007
E007
E007
E007
E007
E007
E00F
F00F
781F
7FF7
3FF7
1FC7
0200
ENDCHAR
STARTCHAR 016C
ENCODING 364
SWIDTH 668 0
DWIDTH 26 0
BBX 20 37 3 -1
BITMAP
060600
070E00
07FC00
03F800
000000
000000
000000
000000
F000F0
F000F0
F000F0
F000F0
F000F0
F000F0
F000F0
F000F0
F000F0
F000F0
F000F0
F000F0
F000F0
F000F0
F000F0
F000F0
F000F0
F000F0
F000F0
F000F0
F000E0
F000E0
7001E0
7801E0
3C07C0
3FFF80
1FFF00
07FE00
004000
ENDCHAR
STARTCHAR 016D
ENCODING 365
SWIDTH 565 0
DWIDTH 22 0
BBX 16 32 3 -1
BITMAP
1818
1818
1C38
1FF8
0FF0
03C0
0000
0000
0000
0000
E007
E007
E007
E007
E007
E007
E007
E007
E007
E007
E007
E007
E007
E007
E007
E00F
F00F
781F
7FF7
3FF7
1FC7
0200
ENDCHAR
STARTCHAR 016E
ENCODING 366
SWIDTH 668 0
DWIDTH 26 0
BBX 20 37 3 -1
BITMAP
01F000
03F800
039C00
070C00
060E00
060E00
070C00
039C00
F3F8F0
F1F0F0
F000F0
F000F0
F000F0
F000F0
F000F0
F000F0
F000F0
F000F0
F000F0
F000F0
F000F0
F000F0
F000F0
F000F0
F000F0
F000F0
F000F0
F000F0
F000E0
F000E0
7001E0
7801E0
3C07C0
3FFF80
1FFF00
07FE00
004000
ENDCHAR
STARTCHAR 016F
ENCODING 367
SWIDTH 565 0
DWIDTH 22 0
BBX 16 34 3 -1
BITMAP
07C0
0FE0
0E70
1C30
1838
1838
1C30
0E70
0FE0
07C0
0000
0000
E007
E007
E007
E007
E007
E007
E007
E007
E007
E007
E007
E007
E007
E007
E007
E00F
F00F
781F
7FF7
3FF7
1FC7
0200
ENDCHAR
STARTCHAR 0170
ENCODING 368
SWIDTH 668 0
DWIDTH 26 0
BBX 20 37 3 -1
BITMAP
00E380
01C700
01CE00
038E00
071C00
000000
000000
000000
F000F0
F000F0
F000F0
F000F0
F000F0
F000F0
F000F0
F000F0
F000F0
F000F0
F000F0
F000F0
F000F0
F000F0
F000F0
F000F0
F000F0
F000F0
F000F0
F000F0
F000E0
F000E0
7001E0
7801E0
3C07C0
3FFF80
1FFF00
07FE00
004000
ENDCHAR
STARTCHAR 0171
ENCODING 369
SWIDTH 565 0
DWIDTH 22 0
BBX 16 32 3 -1
BITMAP
01C7
018E
038E
031C
0718
0638
0E30
0000
0000
0000
E007
E007
E007
E007
E007
E007
E007
E007
E007
E007
E007
E007
E007
E007
E007
E00F
F00F
781F
7FF7
3FF7
1FC7
0200
ENDCHAR
STARTCHAR 0172
ENCODING 370
SWIDTH 668 0
DWIDTH 26 0
BBX 20 35 3 -8
BITMAP
F000F0
F000F0
F000F0
F000F0
F000F0
F000F0
F000F0
F000F0
F000F0
F000F0
F000F0
F000F0
F000F0
F000F0
F000F0
F000F0
F000F0
F000F0
F000F0
F000F0
F000E0
F000E0
7001E0
7801E0
3C07C0
3FFF80
1FFF00
07FE00
00E000
00C000
01C000
018000
01C000
01F800
00F800
ENDCHAR
STARTCHAR 0173
ENCODING 371
SWIDTH 565 0
DWIDTH 22 0
BBX 19 28 3 -7
BITMAP
E00700
E00700
E00700
E00700
E00700
E00700
E00700
E00700
E00700
E00700
E00700
E00700
E00700
E00700
E00700
E00F00
F00F00
781F00
7FF700
3FF700
1FC700
020300
000600
000E00
000E00
000E00
000FE0
0007E0
ENDCHAR
STARTCHAR 0174
ENCODING 372
SWIDTH 900 0
DWIDTH 35 0
BBX 32 36 1 0
BITMAP
0003C000
0003E000
00077000
000E3800
001C1800
00000000
00000000
00000000
F003E007
7003E007
7003E00F
7803E00F
7807600E
3807700E
3807701E
3806701E
3C0E301E
3C0E381C
1C0E381C
1C0E383C
1E1C383C
1E1C1838
0E1C1C38
0E1C1C78
0E181C78
0F381C78
0F380E70
07380E70
07380EF0
07F00EF0
07F006E0
03F007E0
03F007E0
03E007E0
03E007C0
03E003C0
ENDCHAR
STARTCHAR 0175
ENCODING 373
SWIDTH 745 0
DWIDTH 29 0
BBX 25 31 2 0
BITMAP
001C0000
003E0000
007E0000
00770000
00E30000
00C38000
01C1C000
00000000
00000000
00000000
E03C0380
E03E0380
E03E0780
F03E0700
70760700
70770700
70770F00
70670E00
38E30E00
38E38E00
38E39E00
38C39C00
3DC39C00
1DC19C00
1DC1DC00
1DC1FC00
1F81F800
0F80F800
0F80F800
0F80F800
0F00F000
ENDCHAR
STARTCHAR 0176
ENCODING 374
SWIDTH 540 0
DWIDTH 21 0
BBX 21 36 0 0
BITMAP
007800
00F800
01CC00
018E00
030700
000000
000000
000000
F00078
780070
3800F0
3C01E0
1E01E0
0E03C0
0F0380
070780
078F00
03CE00
01DE00
01FC00
00FC00
00F800
007000
007000
007000
007000
007000
007000
007000
007000
007000
007000
007000
007000
007000
007000
ENDCHAR
STARTCHAR 0177
ENCODING 375
SWIDTH 540 0
DWIDTH 21 0
BBX 18 39 1 -8
BITMAP
00E000
01F000
01B000
03B800
071800
060C00
0E0E00
000000
000000
000000
F001C0
7001C0
7003C0
780380
380380
380780
1C0700
1C0700
1E0F00
0E0E00
0E1E00
0F1C00
071C00
073C00
03B800
03B800
03F800
01F000
01F000
01F000
00E000
00E000
01C000
01C000
03C000
038000
3F8000
3F0000
3E0000
ENDCHAR
STARTCHAR 0178
ENCODING 376
SWIDTH 540 0
DWIDTH 21 0
BBX 21 36 0 0
BITMAP
038F00
038F00
038F00
038F00
000000
000000
000000
000000
F00078
780070
3800F0
3C01E0
1E01E0
0E03C0
0F0380
070780
078F00
03CE00
01DE00
01FC00
00FC00
00F800
007000
007000
007000
007000
007000
007000
007000
007000
007000
007000
007000
007000
007000
007000
ENDCHAR
STARTCHAR 0179
ENCODING 377
SWIDTH 617 0
DWIDTH 24 0
BBX 20 36 2 0
BITMAP
003800
007000
006000
00E000
01C000
000000
000000
000000
FFFFF0
FFFFF0
FFFFF0
0001E0
0001E0
0003C0
000780
000F00
000F00
001E00
003C00
007C00
007800
00F000
01E000
01E000
03C000
078000
0F0000
0F0000
1E0000
3C0000
7C0000
780000
F00000
FFFFF0
FFFFF0
FFFFF0
ENDCHAR
STARTCHAR 017A
ENCODING 378
SWIDTH 462 0
DWIDTH 18 0
BBX 16 31 1 0
BITMAP
001C
0038
0078
0070
00E0
01C0
01C0
0000
0000
0000
7FFF
7FFF
000F
000E
001E
003C
0078
00F0
00F0
01E0
03C0
0780
0700
0F00
1E00
3C00
7800
7800
FFFF
FFFF
FFFF
ENDCHAR
STARTCHAR 017B
ENCODING 379
SWIDTH 617 0
DWIDTH 24 0
BBX 20 36 2 0
BITMAP
00F000
00F000
00F000
00F000
000000
000000
000000
000000
FFFFF0
FFFFF0
FFFFF0
0001E0
0001E0
0003C0
000780
000F00
000F00
001E00
003C00
007C00
007800
00F000
01E000
01E000
03C000
078000
0F0000
0F0000
1E0000
3C0000
7C0000
780000
F00000
FFFFF0
FFFFF0
FFFFF0
ENDCHAR
STARTCHAR 017C
ENCODING 380
SWIDTH 462 0
DWIDTH 18 0
BBX 16 30 1 0
BITMAP
01C0
01C0
01C0
01C0
01C0
0000
0000
0000
0000
7FFF
7FFF
000F
000E
001E
003C
0078
00F0
00F0
01E0
03C0
0780
0700
0F00
1E00
3C00
7800
7800
FFFF
FFFF
FFFF
ENDCHAR
STARTCHAR 017D
ENCODING 381
SWIDTH 617 0
DWIDTH 24 0
BBX 20 36 2 0
BITMAP
070E00
038C00
019800
01F800
00F000
000000
000000
000000
FFFFF0
FFFFF0
FFFFF0
0001E0
0001E0
0003C0
000780
000F00
000F00
001E00
003C00
007C00
007800
00F000
01E000
01E000
03C000
078000
0F0000
0F0000
1E0000
3C0000
7C0000
780000
F00000
FFFFF0
FFFFF0
FFFFF0
ENDCHAR
STARTCHAR 017E
ENCODING 382
SWIDTH 462 0
DWIDTH 18 0
BBX 16 31 1 0
BITMAP
1C18
0C38
0E30
0770
03E0
03C0
01C0
0000
0000
0000
7FFF
7FFF
000F
000E
001E
003C
0078
00F0
00F0
01E0
03C0
0780
0700
0F00
1E00
3C00
7800
7800
FFFF
FFFF
FFFF
ENDCHAR
STARTCHAR 017F
ENCODING 383
SWIDTH 308 0
DWIDTH 12 0
BBX 12 30 1 0
BITMAP
00F0
07F0
0FF0
1F00
1C00
1C00
1C00
1C00
1C00
FC00
FC00
1C00
1C00
1C00
1C00
1C00
1C00
1C00
1C00
1C00
1C00
1C00
1C00
1C00
1C00
1C00
1C00
1C00
1C00
1C00
ENDCHAR
STARTCHAR 0180
ENCODING 384
SWIDTH 565 0
DWIDTH 22 0
BBX 19 31 1 -1
BITMAP
380000
380000
380000
FFE000
FFE000
FFE000
380000
380000
387C00
39FF00
3BFF80
3B8780
3E03C0
3E01C0
3C01E0
3C00E0
3C00E0
3800E0
3800E0
3800E0
3800E0
3800E0
3C00E0
3C00E0
3C01E0
3E01C0
3F03C0
3BCF80
3BFF00
38FE00
001000
ENDCHAR
STARTCHAR 0181
ENCODING 385
SWIDTH 668 0
DWIDTH 26 0
BBX 25 28 -2 0
BITMAP
1FFFF800
7FFFFC00
7FFFFE00
F1E01F00
E1E00F00
E1E00700
E1E00700
01E00700
01E00700
01E00F00
01E01E00
01FFFC00
01FFF800
01FFFC00
01E07E00
01E00F00
01E00780
01E00780
01E00380
01E00380
01E00380
01E00780
01E00780
01E00F80
01E01F00
01FFFE00
01FFFC00
01FFF000
ENDCHAR
STARTCHAR 0182
ENCODING 386
SWIDTH 617 0
DWIDTH 24 0
BBX 19 28 3 0
BITMAP
FFFF80
FFFF80
FFFF80
F00000
F00000
F00000
F00000
F00000
F00000
F00000
F00000
FFF000
FFFE00
FFFF00
F03F80
F007C0
F003C0
F001C0
F001E0
F001E0
F001E0
F001C0
F003C0
F003C0
F00F80
FFFF80
FFFF00
FFF800
ENDCHAR
STARTCHAR 0183
ENCODING 387
SWIDTH 565 0
DWIDTH 22 0
BBX 17 31 3 -1
BITMAP
FFFE00
FFFE00
FFFE00
FFFE00
E00000
E00000
E00000
E00000
E1F000
E7FC00
EFFE00
EE1E00
F80F00
F80700
F00780
F00380
F00380
E00380
E00380
E00380
E00380
E00380
F00380
F00380
F00780
F80700
FC0F00
EF3E00
EFFC00
E3F800
004000
ENDCHAR
STARTCHAR 0184
ENCODING 388
SWIDTH 617 0
DWIDTH 24 0
BBX 22 28 0 0
BITMAP
060000
0E0000
1E0000
1E0000
3E0000
7E0000
FE0000
1E0000
1E0000
1E0000
1E0000
1FFE00
1FFFC0
1FFFE0
1E07F0
1E00F8
1E0078
1E0038
1E003C
1E003C
1E003C
1E0038
1E0078
1E0078
1E01F0
1FFFF0
1FFFC0
1FFF00
ENDCHAR
STARTCHAR 0185
ENCODING 389
SWIDTH 565 0
DWIDTH 22 0
BBX 20 31 0 -1
BITMAP
040000
0C0000
0C0000
1C0000
1C0000
3C0000
7C0000
7C0000
FC3E00
1CFF80
1DFFC0
1DC3C0
1F01E0
1F00E0
1E00F0
1E0070
1E0070
1C0070
1C0070
1C0070
1C0070
1C0070
1E0070
1E0070
1E00F0
1F00E0
1F81E0
1DE7C0
1DFF80
1C7F00
000800
ENDCHAR
STARTCHAR 0186
ENCODING 390
SWIDTH 642 0
DWIDTH 25 0
BBX 21 30 2 -1
BITMAP
07F000
3FFC00
FFFF00
FC3F80
E007C0
8003C0
0001E0
0001E0
0000F0
0000F0
000070
000070
000070
000078
000078
000078
000078
000070
000070
0000F0
0000F0
0000F0
0001E0
8001E0
C003C0
F00F80
FFFF00
7FFE00
1FF800
018000
ENDCHAR
STARTCHAR 0187
ENCODING 391
SWIDTH 642 0
DWIDTH 25 0
BBX 26 37 2 -1
BITMAP
000007C0
00000FC0
00001FC0
00003E00
00003C00
00003800
00007800
007F7800
03FFF800
07FFF800
0FC1F800
1F003800
3E001800
3C000800
78000000
78000000
70000000
F0000000
F0000000
F0000000
F0000000
F0000000
F0000000
F0000000
F0000000
F0000000
F0000000
70000000
78000000
78000000
3C000800
3E001800
1F807800
0FFFF800
07FFF000
01FFC000
00080000
ENDCHAR
STARTCHAR 0188
ENCODING 392
SWIDTH 488 0
DWIDTH 19 0
BBX 19 31 2 -1
BITMAP
000060
0003E0
0007E0
000780
000F00
000E00
000E00
000E00
01FE00
0FFE00
1FFE00
3E0E00
3C0000
780000
700000
F00000
F00000
E00000
E00000
E00000
E00000
E00000
F00000
F00000
700000
780000
3C0200
3FBE00
1FFE00
07FC00
004000
ENDCHAR
STARTCHAR 0189
ENCODING 393
SWIDTH 694 0
DWIDTH 27 0
BBX 25 28 0 0
BITMAP
0FFF8000
0FFFF000
0FFFF800
0E00FC00
0E003E00
0E001E00
0E000F00
0E000F00
0E000780
0E000780
0E000780
0E000780
FFF80780
FFF80780
FFF80780
0E000780
0E000780
0E000780
0E000780
0E000700
0E000F00
0E000F00
0E001E00
0E007E00
0E01FC00
0FFFF800
0FFFE000
0FFF0000
ENDCHAR
STARTCHAR 018A
ENCODING 394
SWIDTH 745 0
DWIDTH 29 0
BBX 29 28 -2 0
BITMAP
1FFFF800
7FFFFE00
7FFFFF80
F1E00FC0
E1E003C0
E1E001E0
E1E001E0
01E000F0
01E000F0
01E00070
01E00070
01E00078
01E00078
01E00078
01E00078
01E00078
01E00078
01E00070
01E000F0
01E000F0
01E000F0
01E001E0
01E003E0
01E007C0
01E03F80
01FFFF00
01FFFC00
01FFE000
ENDCHAR
STARTCHAR 018B
ENCODING 395
SWIDTH 617 0
DWIDTH 24 0
BBX 19 28 3 0
BITMAP
0FFFE0
0FFFE0
0FFFE0
0001E0
0001E0
0001E0
0001E0
0001E0
0001E0
0001E0
0001E0
01FFE0
0FFFE0
1FFFE0
3F81E0
7C01E0
7801E0
7001E0
F001E0
F001E0
F001E0
7001E0
7801E0
7801E0
3E01E0
3FFFE0
0FFFE0
03FFE0
ENDCHAR
STARTCHAR 018C
ENCODING 396
SWIDTH 565 0
DWIDTH 22 0
BBX 17 31 2 -1
BITMAP
1FFF80
1FFF80
1FFF80
1FFF80
000380
000380
000380
000380
03C380
0FF380
1FFB80
3E3F80
780F80
700780
700780
F00780
E00380
E00380
E00380
E00380
E00380
E00380
E00380
F00780
700780
780F80
7C0F80
3E3F80
1FFB80
0FF380
010000
ENDCHAR
STARTCHAR 018D
ENCODING 397
SWIDTH 540 0
DWIDTH 21 0
BBX 18 29 2 -8
BITMAP
07F800
1FFC00
3FFE00
3C0F00
780700
700780
F00380
F00380
E00380
E00380
E003C0
E003C0
E00380
F00380
F00380
700780
780700
3C0E00
3F9E00
0FF800
07FC00
007E00
001E00
000F00
000F00
200E00
3FFE00
3FFC00
0FF000
ENDCHAR
STARTCHAR 018E
ENCODING 398
SWIDTH 565 0
DWIDTH 22 0
BBX 17 28 2 0
BITMAP
7FFF80
7FFF80
7FFF80
000780
000780
000780
000780
000780
000780
000780
000780
7FFF80
7FFF80
7FFF80
000780
000780
000780
000780
000780
000780
000780
000780
000780
000780
000780
FFFF80
FFFF80
FFFF80
ENDCHAR
STARTCHAR 018F
ENCODING 399
SWIDTH 720 0
DWIDTH 28 0
BBX 24 30 2 -1
BITMAP
01FE00
0FFF80
3FFFE0
3F07F0
3800F8
300078
00003C
00001C
00001E
00001E
00000E
00000E
00000F
00000F
FFFFFF
FFFFFF
FFFFFF
F0000F
F0000E
70000E
70001E
78001E
78003C
3C003C
3E0078
1F01F0
0FFFF0
07FFC0
01FF80
001000
ENDCHAR
STARTCHAR 0190
ENCODING 400
SWIDTH 565 0
DWIDTH 22 0
BBX 17 30 3 -1
BITMAP
03F800
1FFF00
3FFF00
7F1F00
780100
700000
F00000
F00000
F00000
700000
780000
3C0000
1FF000
07F000
1FF000
3F0000
780000
F00000
F00000
E00000
E00000
E00000
E00000
F00000
F80000
7C0180
3FFF80
1FFF80
0FFF00
004000
ENDCHAR
STARTCHAR 0191
ENCODING 401
SWIDTH 514 0
DWIDTH 20 0
BBX 20 36 -2 -8
BITMAP
07FFF0
07FFF0
07FFF0
078000
078000
078000
078000
078000
078000
078000
078000
07FFE0
07FFE0
07FFE0
078000
078000
078000
078000
078000
078000
078000
078000
078000
078000
078000
078000
078000
078000
078000
078000
070000
0F0000
3F0000
FE0000
FC0000
F00000
ENDCHAR
STARTCHAR 0192
ENCODING 402
SWIDTH 308 0
DWIDTH 12 0
BBX 15 38 -2 -8
BITMAP
001E
00FE
01FE
03E0
0380
0380
0380
0380
0380
1FFC
1FFC
0380
0380
0380
0380
0380
0380
0380
0380
0380
0380
0380
0380
0380
0380
0380
0380
0380
0380
0380
0380
0380
0380
0380
0780
FF00
FF00
FC00
ENDCHAR
STARTCHAR 0193
ENCODING 403
SWIDTH 694 0
DWIDTH 27 0
BBX 27 37 2 -1
BITMAP
000003E0
000007E0
00000FE0
00001F00
00001E00
00003C00
00003C00
007FBC00
03FFFC00
07FFFC00
0FC0FC00
1F003C00
3E000C00
3C000400
78000000
78000000
70000000
F0000000
F0000000
F0000000
F0000000
F007FC00
F007FC00
F007FC00
F0001C00
F0001C00
F0001C00
70001C00
78001C00
78001C00
3C001C00
3E001C00
1F803C00
0FFFFC00
07FFF800
01FFE000
00080000
ENDCHAR
STARTCHAR 0194
ENCODING 404
SWIDTH 617 0
DWIDTH 24 0
BBX 23 36 1 -8
BITMAP
E0001E
F0003C
70003C
780078
380078
3C00F0
1C00F0
1E01E0
1E01E0
0F03C0
0F03C0
078780
078780
03CF00
03CF00
01FE00
01FE00
00FC00
00FC00
007800
007800
00FC00
00FC00
00FE00
01FE00
01CE00
03CF00
03CF00
038700
078780
078780
078780
03CF00
03FF00
01FE00
00FC00
ENDCHAR
STARTCHAR 0195
ENCODING 405
SWIDTH 900 0
DWIDTH 35 0
BBX 29 30 3 0
BITMAP
E0000000
E0000000
E0000000
E0000000
E0000000
E0000000
E0000000
E0000000
E1F00000
E7FC0700
EFFE07C0
EE3E07E0
F80F01E0
F00F00F0
F0070070
F0070070
E0070078
E0070038
E0070038
E0070038
E0070038
E0070038
E0070078
E0070078
E0070070
E00780F0
E00381E0
E003FFC0
E001FF80
E000FE00
ENDCHAR
STARTCHAR 0196
ENCODING 406
SWIDTH 308 0
DWIDTH 12 0
BBX 9 28 3 0
BITMAP
F000
F000
F000
F000
F000
F000
F000
F000
F000
F000
F000
F000
F000
F000
F000
F000
F000
F000
F000
F000
7000
7000
7000
7800
7E00
3F80
1F80
0780
ENDCHAR
STARTCHAR 0197
ENCODING 407
SWIDTH 257 0
DWIDTH 10 0
BBX 10 28 0 0
BITMAP
1E00
1E00
1E00
1E00
1E00
1E00
1E00
1E00
1E00
1E00
1E00
1E00
1E00
1E00
FFC0
FFC0
FFC0
1E00
1E00
1E00
1E00
1E00
1E00
1E00
1E00
1E00
1E00
1E00
ENDCHAR
STARTCHAR 0198
ENCODING 408
SWIDTH 668 0
DWIDTH 26 0
BBX 23 29 3 0
BITMAP
0000F0
F001F8
F003FC
F0079E
F00F0E
F01E0E
F03C0E
F0780E
F0F000
F1E000
F3C000
F78000
FF0000
FE0000
FF0000
FF8000
F7C000
F3C000
F1E000
F0F000
F07800
F07C00
F03E00
F01F00
F00F80
F007C0
F003E0
F001E0
F000F0
ENDCHAR
STARTCHAR 0199
ENCODING 409
SWIDTH 514 0
DWIDTH 20 0
BBX 17 30 3 0
BITMAP
078000
3F8000
7F8000
780000
700000
F00000
E00000
E00000
E00000
E00F00
E01E00
E03C00
E07800
E0F000
E1E000
E3C000
E78000
EF0000
FE0000
FE0000
EF0000
E78000
E3C000
E1E000
E0F000
E07800
E03C00
E01E00
E00F00
E00780
ENDCHAR
STARTCHAR 019A
ENCODING 410
SWIDTH 257 0
DWIDTH 10 0
BBX 10 30 0 0
BITMAP
1C00
1C00
1C00
1C00
1C00
1C00
1C00
1C00
1C00
1C00
1C00
1C00
1C00
1C00
FFC0
FFC0
FFC0
1C00
1C00
1C00
1C00
1C00
1C00
1C00
1C00
1C00
1C00
1C00
1C00
1C00
ENDCHAR
STARTCHAR 019B
ENCODING 411
SWIDTH 540 0
DWIDTH 21 0
BBX 19 30 1 0
BITMAP
078000
038200
03DF00
03FC00
03E000
1FE000
3DE000
20E000
00F000
00F000
00F000
00F800
01F800
01F800
03FC00
03BC00
039C00
079E00
071E00
0F0E00
0E0F00
0E0F00
1E0700
1C0780
3C0780
380380
7803C0
7001C0
7001C0
F001E0
ENDCHAR
STARTCHAR 019C
ENCODING 412
SWIDTH 874 0
DWIDTH 34 0
BBX 28 29 3 -1
BITMAP
F00F0070
F00F0070
F00F0070
F00F0070
F00F0070
F00F0070
F00F0070
F00F0070
F00F0070
F00F0070
F00F0070
F00F0070
F00F0070
F00F0070
F00F0070
F00F0070
F00F0070
F00F0070
F00F0070
F00F0070
F00F0070
F00F0070
F00F00F0
F01F80F0
783F81F0
7FF3FF70
3FE3FF70
1FC1FC70
02002000
ENDCHAR
STARTCHAR 019D
ENCODING 413
SWIDTH 668 0
DWIDTH 26 0
BBX 25 36 -2 -8
BITMAP
07E00780
07E00780
07F00780
07F00780
07F00780
07F80780
07B80780
07BC0780
079C0780
079E0780
078E0780
078F0780
07870780
07878780
07838780
0783C780
0781C780
0781E780
0780E780
0780F780
07807780
07807F80
07803F80
07803F80
07803F80
07801F80
07801F80
07800F80
07800000
07800000
07000000
0F000000
3F000000
FE000000
FC000000
F0000000
ENDCHAR
STARTCHAR 019E
ENCODING 414
SWIDTH 565 0
DWIDTH 22 0
BBX 16 30 3 -8
BITMAP
01F0
E7FC
EFFE
EE3E
F80F
F00F
F007
F007
E007
E007
E007
E007
E007
E007
E007
E007
E007
E007
E007
E007
E007
E007
0007
0007
0007
0007
0007
0007
0007
0007
ENDCHAR
STARTCHAR 019F
ENCODING 415
SWIDTH 720 0
DWIDTH 28 0
BBX 24 30 2 -1
BITMAP
007E00
03FFC0
07FFE0
0FC3F0
1F00F8
3C0078
3C003C
78001C
78001E
70001E
F0000E
F0000E
FFFFFF
FFFFFF
FFFFFF
F0000F
F0000F
F0000F
F0000E
F0001E
70001E
78001E
78003C
3C003C
3E0078
1F01F0
0FFFF0
07FFC0
01FF80
001000
ENDCHAR
STARTCHAR 01A0
ENCODING 416
SWIDTH 822 0
DWIDTH 32 0
BBX 25 31 2 -1
BITMAP
00000380
00FE0180
03FF8180
0FFFE180
1F83FB80
1E00FF00
3C007F00
7C003C00
78003C00
70001E00
F0001E00
F0001E00
F0000E00
F0000E00
E0000E00
E0000E00
E0000E00
E0000E00
F0000E00
F0001E00
F0001E00
F0001E00
78001C00
78003C00
3C007C00
3E007800
1F01F000
0FFFE000
07FFC000
01FF8000
00100000
ENDCHAR
STARTCHAR 01A1
ENCODING 417
SWIDTH 540 0
DWIDTH 21 0
BBX 19 25 2 -1
BITMAP
000060
000060
03E060
0FFC60
1FFEE0
3E1FE0
780FC0
780780
700780
F00380
F00380
E003C0
E003C0
E003C0
E003C0
E003C0
F00380
F00380
700780
780780
3C0F00
3F3E00
1FFC00
07F800
008000
ENDCHAR
STARTCHAR 01A2
ENCODING 418
SWIDTH 848 0
DWIDTH 33 0
BBX 28 30 2 -1
BITMAP
007E0000
03FFFF80
07FFFFC0
0FC3FFE0
1F0071E0
3C0070E0
3C0070F0
780070F0
780070F0
700070F0
F00070F0
F00070F0
F00070F0
F00070F0
F00070F0
F00070F0
F00070F0
F00070F0
F00070F0
F00070F0
700070F0
780070F0
780070F0
3C0070F0
3E0070F0
1F00F0F0
0FFFF0F0
07FFC0F0
01FF80F0
00100000
ENDCHAR
STARTCHAR 01A3
ENCODING 419
SWIDTH 694 0
DWIDTH 27 0
BBX 21 30 2 -8
BITMAP
03E000
0FFFE0
1FFFF0
3E1FF8
780E38
780E38
700E38
F00E38
E00E38
E00E38
E00E38
E00E38
E00E38
E00E38
F00E38
F00E38
700E38
780E38
3C0E38
3F7E38
1FFC38
0FF838
008038
000038
000038
000038
000038
000038
000038
000038
ENDCHAR
STARTCHAR 01A4
ENCODING 420
SWIDTH 591 0
DWIDTH 23 0
BBX 24 28 -2 0
BITMAP
1FFFF0
7FFFF8
7FFFFC
F1E03E
E1E01E
E1E00E
E1E00F
01E00F
01E00F
01E00F
01E00E
01E01E
01E03E
01FFFC
01FFF8
01FFF0
01FF00
01E000
01E000
01E000
01E000
01E000
01E000
01E000
01E000
01E000
01E000
01E000
ENDCHAR
STARTCHAR 01A5
ENCODING 421
SWIDTH 565 0
DWIDTH 22 0
BBX 17 38 3 -8
BITMAP
07C000
3FC000
7FC000
780000
700000
F00000
E00000
E00000
E1F000
E7FC00
EFFE00
EE1E00
F80F00
F80700
F00780
F00380
F00380
E00380
E00380
E00380
E00380
E00380
F00380
F00380
F00780
F80700
FC0F00
EF3E00
EFFC00
E3F800
E04000
E00000
E00000
E00000
E00000
E00000
E00000
E00000
ENDCHAR
STARTCHAR 01A6
ENCODING 422
SWIDTH 617 0
DWIDTH 24 0
BBX 20 33 3 -5
BITMAP
F00000
F00000
F00000
F00000
F00000
FFF800
FFFE00
FFFF00
F01F00
F00F00
F00780
F00780
F00780
F00780
F00780
F00780
F00F00
F01F00
FFFE00
FFF800
FFFC00
F03E00
F01E00
F00F00
F00780
F00780
F00380
F003C0
0001C0
0001E0
0000E0
0000F0
0000F0
ENDCHAR
STARTCHAR 01A7
ENCODING 423
SWIDTH 565 0
DWIDTH 22 0
BBX 18 30 2 -1
BITMAP
07F000
7FFE00
7FFF00
7C1F80
600780
0003C0
0003C0
0003C0
0003C0
0003C0
0003C0
000F80
007F80
07FF00
1FFE00
3FF000
7F0000
7C0000
F00000
F00000
F00000
F00000
F00000
F00000
F80040
7C03C0
3FFFC0
1FFFC0
0FFF00
004000
ENDCHAR
STARTCHAR 01A8
ENCODING 424
SWIDTH 462 0
DWIDTH 18 0
BBX 14 23 2 -1
BITMAP
1FC0
7FF0
7FF8
607C
001C
001C
001C
001C
003C
01FC
0FF8
3FE0
7F00
F800
F000
E000
E000
E000
F004
7C7C
7FFC
1FFC
0100
ENDCHAR
STARTCHAR 01A9
ENCODING 425
SWIDTH 565 0
DWIDTH 22 0
BBX 17 28 3 0
BITMAP
FFFF80
FFFF80
FFFF80
780000
3C0000
1E0000
1E0000
0F0000
078000
03C000
01E000
00F000
00F000
00F000
00E000
01E000
03C000
078000
078000
0F0000
1E0000
1E0000
3C0000
780000
780000
FFFF80
FFFF80
FFFF80
ENDCHAR
STARTCHAR 01AA
ENCODING 426
SWIDTH 308 0
DWIDTH 12 0
BBX 17 38 -5 -8
BITMAP
0C0000
3F8000
7FC000
F3E000
E0E000
F8E000
7FFE00
3FFE00
00E000
00E000
00E000
00E000
00E000
00E000
00E000
00E000
00E000
00E000
00E000
00E000
00E000
00E000
00E000
00E000
00E000
00E000
00E000
00E000
00E000
00E000
00E000
00E000
00E000
00F000
007000
007F80
003F80
001F80
ENDCHAR
STARTCHAR 01AB
ENCODING 427
SWIDTH 360 0
DWIDTH 14 0
BBX 12 35 1 -8
BITMAP
3800
3800
3800
3800
3800
3800
FFF0
FFF0
3800
3800
3800
3800
3800
3800
3800
3800
3800
3800
3800
3800
3800
3800
3C00
1C00
1FF0
0FF0
07F0
0070
0070
0070
00F0
00E0
07E0
07C0
0780
ENDCHAR
STARTCHAR 01AC
ENCODING 428
SWIDTH 540 0
DWIDTH 21 0
BBX 22 28 0 0
BITMAP
1FFFFC
3FFFFC
7FFFFC
707000
607000
E07000
E07000
007000
007000
007000
007000
007000
007000
007000
007000
007000
007000
007000
007000
007000
007000
007000
007000
007000
007000
007000
007000
007000
ENDCHAR
STARTCHAR 01AD
ENCODING 429
SWIDTH 360 0
DWIDTH 14 0
BBX 12 30 1 0
BITMAP
00E0
0FE0
1FE0
1E00
1C00
3C00
3800
3800
3800
FFF0
FFF0
3800
3800
3800
3800
3800
3800
3800
3800
3800
3800
3800
3800
3800
3800
3C00
1C00
1FF0
0FF0
07F0
ENDCHAR
STARTCHAR 01AE
ENCODING 430
SWIDTH 540 0
DWIDTH 21 0
BBX 22 36 0 -8
BITMAP
FFFFFC
FFFFFC
FFFFFC
007000
007000
007000
007000
007000
007000
007000
007000
007000
007000
007000
007000
007000
007000
007000
007000
007000
007000
007000
007000
007000
007000
007000
007000
007000
007800
007800
007800
003C00
003F00
001FC0
000FC0
0003C0
ENDCHAR
STARTCHAR 01AF
ENCODING 431
SWIDTH 771 0
DWIDTH 30 0
BBX 25 31 3 -1
BITMAP
00000380
00000180
E000F180
E000F180
E000FB80
E000FF80
E000FF00
E000F000
E000F000
E000F000
E000F000
E000F000
E000F000
E000F000
E000F000
E000F000
E000F000
E000F000
E000F000
E000F000
E000F000
F000E000
F000E000
F001E000
7001E000
7801C000
3C07C000
3FFF8000
1FFF0000
07FE0000
00400000
ENDCHAR
STARTCHAR 01B0
ENCODING 432
SWIDTH 565 0
DWIDTH 22 0
BBX 21 25 3 -1
BITMAP
000030
000018
000018
E00718
E00738
E007F0
E007F0
E00700
E00700
E00700
E00700
E00700
E00700
E00700
E00700
E00700
E00700
E00700
F00F00
F00F00
781F00
7FF700
3FF700
1FC700
020000
ENDCHAR
STARTCHAR 01B1
ENCODING 433
SWIDTH 694 0
DWIDTH 27 0
BBX 24 29 1 -1
BITMAP
FFE3FF
FFE3FF
FFE3FF
07C1E0
0780F0
0F0078
1E003C
3C001C
3C001E
38000E
78000F
78000F
70000F
700007
700007
700007
700007
70000F
78000F
78000F
78000E
3C001E
3C003C
1E007C
0F80F8
07FFF0
03FFE0
01FF80
000800
ENDCHAR
STARTCHAR 01B2
ENCODING 434
SWIDTH 642 0
DWIDTH 25 0
BBX 21 29 3 -1
BITMAP
F00000
F00000
F00000
F00700
F00780
F003C0
F001E0
F001E0
F000F0
F000F0
F00070
F00078
F00078
F00078
F00078
F00078
F00078
F00078
F00078
F00070
F000F0
7000F0
7001E0
7803E0
7807C0
3FFF80
3FFF00
0FFC00
01C000
ENDCHAR
STARTCHAR 01B3
ENCODING 435
SWIDTH 668 0
DWIDTH 26 0
BBX 26 29 0 0
BITMAP
00001E00
F0007F00
78007F80
3800F3C0
3C01E1C0
1E01C1C0
0E03C1C0
0F0381C0
07078000
078F0000
03CE0000
01DE0000
01FC0000
00FC0000
00F80000
00700000
00700000
00700000
00700000
00700000
00700000
00700000
00700000
00700000
00700000
00700000
00700000
00700000
00700000
ENDCHAR
STARTCHAR 01B4
ENCODING 436
SWIDTH 668 0
DWIDTH 26 0
BBX 25 30 1 -8
BITMAP
00003800
F000FE00
7001FE00
7003FF00
7803C700
38038780
38078380
1C070380
1C070380
1E0F0000
0E0E0000
0E1E0000
0F1C0000
071C0000
073C0000
03B80000
03B80000
03F80000
01F00000
01F00000
01F00000
00E00000
00E00000
01C00000
01C00000
03C00000
03800000
3F800000
3F000000
3E000000
ENDCHAR
STARTCHAR 01B5
ENCODING 437
SWIDTH 617 0
DWIDTH 24 0
BBX 20 28 2 0
BITMAP
FFFFF0
FFFFF0
FFFFF0
0001E0
0001E0
0003C0
000780
000F00
000F00
001E00
003C00
007C00
3FFFC0
3FFFC0
3FFFC0
01E000
03C000
078000
0F0000
0F0000
1E0000
3C0000
7C0000
780000
F00000
FFFFF0
FFFFF0
FFFFF0
ENDCHAR
STARTCHAR 01B6
ENCODING 438
SWIDTH 462 0
DWIDTH 18 0
BBX 16 21 1 0
BITMAP
7FFF
7FFF
000F
000E
001E
003C
0078
00F0
3FFE
3FFE
3FFE
0780
0700
0F00
1E00
3C00
7800
7800
FFFF
FFFF
FFFF
ENDCHAR
STARTCHAR 01B7
ENCODING 439
SWIDTH 591 0
DWIDTH 23 0
BBX 19 29 3 -1
BITMAP
FFFF80
FFFF80
FFFF80
000F80
000F00
001E00
003C00
003C00
007800
00F000
00E000
01E000
03F800
03FE00
03FF00
000F80
0003C0
0001C0
0001E0
0001E0
0001E0
0001E0
0001E0
0001C0
8003C0
F00F80
FFFF80
FFFE00
1FF800
ENDCHAR
STARTCHAR 01B8
ENCODING 440
SWIDTH 591 0
DWIDTH 23 0
BBX 19 29 2 -1
BITMAP
7FFFE0
7FFFE0
7FFFE0
3C0000
1E0000
1E0000
0F0000
078000
038000
03C000
01E000
00F000
07F000
1FF000
3FF000
7C0000
F80000
F00000
E00000
E00000
E00000
E00000
E00000
F00000
F80040
7E03C0
3FFFC0
1FFFC0
07FE00
ENDCHAR
STARTCHAR 01B9
ENCODING 441
SWIDTH 514 0
DWIDTH 20 0
BBX 17 29 2 -8
BITMAP
7FFF00
7FFF00
780000
3C0000
1C0000
1E0000
0F0000
078000
03C000
03C000
01E000
00F000
03F000
1FF000
3FF000
7E0000
780000
F00000
F00000
E00000
E00000
E00000
E00000
F00000
780080
7E0380
3FFF80
1FFF80
07FE00
ENDCHAR
STARTCHAR 01BA
ENCODING 442
SWIDTH 462 0
DWIDTH 18 0
BBX 15 29 2 -8
BITMAP
FFFE
FFFE
001E
001C
003C
0078
00F0
01E0
01E0
03C0
0780
0FF8
0FFC
003E
000E
000E
000E
003E
03FC
1FF8
3FE0
7C00
F000
E000
F000
F804
7FFC
3FFC
0FF8
ENDCHAR
STARTCHAR 01BB
ENCODING 443
SWIDTH 565 0
DWIDTH 22 0
BBX 16 29 3 0
BITMAP
0FC0
7FF0
FFFC
F8FC
C01E
001E
000F
000F
000F
000F
000E
001E
001E
003C
0078
7FFE
7FFE
01E0
03C0
0780
0F00
1E00
3E00
3C00
7800
F000
FFFF
FFFF
FFFF
ENDCHAR
STARTCHAR 01BC
ENCODING 444
SWIDTH 591 0
DWIDTH 23 0
BBX 20 29 2 -1
BITMAP
7FFF80
7FFF80
7FFF80
780000
780000
780000
780000
780000
780000
780000
780000
780000
7FFE00
7FFF00
7FFF80
0007C0
0001E0
0000E0
0000F0
0000F0
E000F0
E000F0
E000F0
F000E0
F801E0
7C07C0
3FFFC0
1FFF00
07FC00
ENDCHAR
STARTCHAR 01BD
ENCODING 445
SWIDTH 514 0
DWIDTH 20 0
BBX 17 29 2 -8
BITMAP
7FFE00
7FFE00
7FFE00
700000
700000
700000
700000
700000
700000
700000
700000
700000
7FE000
7FF800
7FFC00
003E00
000F00
000F00
000700
000780
000780
000780
000700
000F00
000F00
E03E00
FFFE00
FFF800
3FE000
ENDCHAR
STARTCHAR 01BE
ENCODING 446
SWIDTH 462 0
DWIDTH 18 0
BBX 15 28 1 -1
BITMAP
0700
0700
0700
0700
0700
7FF0
7FF0
7FF0
0700
0700
0780
07E0
07F0
00F8
003C
001C
001E
000E
000E
000E
001E
001E
001C
C03C
F9F8
FFF0
7FE0
0200
ENDCHAR
STARTCHAR 01BF
ENCODING 447
SWIDTH 565 0
DWIDTH 22 0
BBX 17 30 3 -8
BITMAP
00FC00
E3FE00
E7FF00
EFFF80
FE0780
F80380
F00380
F00380
E00380
E00380
E00380
E00700
E00700
E00E00
E01E00
E03C00
E07800
E0F000
E3E000
E7C000
EF8000
FE0000
FC0000
F80000
E00000
E00000
E00000
E00000
E00000
E00000
ENDCHAR
STARTCHAR 01C0
ENCODING 448
SWIDTH 257 0
DWIDTH 10 0
BBX 4 36 3 -8
BITMAP
F0
F0
F0
F0
F0
F0
F0
F0
F0
F0
F0
F0
F0
F0
F0
F0
F0
F0
F0
F0
F0
F0
F0
F0
F0
F0
F0
F0
F0
F0
F0
F0
F0
F0
F0
F0
ENDCHAR
STARTCHAR 01C1
ENCODING 449
SWIDTH 437 0
DWIDTH 17 0
BBX 11 36 3 -8
BITMAP
F1E0
F1E0
F1E0
F1E0
F1E0
F1E0
F1E0
F1E0
F1E0
F1E0
F1E0
F1E0
F1E0
F1E0
F1E0
F1E0
F1E0
F1E0
F1E0
F1E0
F1E0
F1E0
F1E0
F1E0
F1E0
F1E0
F1E0
F1E0
F1E0
F1E0
F1E0
F1E0
F1E0
F1E0
F1E0
F1E0
ENDCHAR
STARTCHAR 01C2
ENCODING 450
SWIDTH 411 0
DWIDTH 16 0
BBX 16 36 0 -8
BITMAP
03C0
03C0
03C0
03C0
03C0
03C0
03C0
03C0
03C0
03C0
03C0
FFFF
FFFF
FFFF
FFFF
03C0
03C0
03C0
03C0
FFFF
FFFF
FFFF
03C0
03C0
03C0
03C0
03C0
03C0
03C0
03C0
03C0
03C0
03C0
03C0
03C0
03C0
ENDCHAR
STARTCHAR 01C3
ENCODING 451
SWIDTH 257 0
DWIDTH 10 0
BBX 4 28 3 0
BITMAP
F0
F0
F0
F0
F0
F0
F0
F0
F0
F0
F0
F0
F0
70
70
70
70
70
70
00
00
00
00
F0
F0
F0
F0
F0
ENDCHAR
STARTCHAR 01C4
ENCODING 452
SWIDTH 1285 0
DWIDTH 50 0
BBX 44 36 3 0
BITMAP
000000070E00
000000039C00
000000019800
00000001F800
00000000F000
000000000000
000000000000
000000000000
FFFC00FFFFF0
FFFF80FFFFF0
FFFFC0FFFFF0
F007E00001E0
F001F00003E0
F000F00003C0
F00078000780
F00078000F00
F00038000F00
F0003C001E00
F0003C003C00
F0003C007C00
F0003C007800
F0003C00F000
F0003C01E000
F0003C03E000
F0003C03C000
F0003C078000
F0003C0F0000
F000780F0000
F000781E0000
F000F83C0000
F000F07C0000
F003E0780000
F00FE0F00000
FFFF80FFFFF0
FFFF00FFFFF0
FFF800FFFFF0
ENDCHAR
STARTCHAR 01C5
ENCODING 453
SWIDTH 1182 0
DWIDTH 46 0
BBX 40 31 3 0
BITMAP
0000001838
0000001C30
0000000E70
FFFC0006E0
FFFF8007E0
FFFFC003C0
F007E00380
F001F00000
F000F00000
F000780000
F000787FFF
F000387FFF
F0003C000F
F0003C001E
F0003C003C
F0003C0038
F0003C0078
F0003C00F0
F0003C01E0
F0003C01C0
F0003C03C0
F0003C0780
F000780F00
F000781E00
F000F81E00
F000F03C00
F003E07800
F00FE0F000
FFFF80FFFF
FFFF00FFFF
FFF800FFFF
ENDCHAR
STARTCHAR 01C6
ENCODING 454
SWIDTH 1054 0
DWIDTH 41 0
BBX 36 32 2 -1
BITMAP
0000018380
000381C300
000380E700
0003806600
0003807E00
0003803C00
0003803800
0003800000
0003800000
03C3800000
0FF387FFF0
1FFB87FFF0
3E3F8000F0
780F8001E0
70078003C0
70078003C0
F007800780
E003800F00
E003801E00
E003801C00
E003803C00
E003807800
E00380F000
E00381E000
F00781E000
700783C000
780F878000
7C0F8F0000
3E3F8FFFF0
1FFB8FFFF0
0FF38FFFF0
0100000000
ENDCHAR
STARTCHAR 01C7
ENCODING 455
SWIDTH 745 0
DWIDTH 29 0
BBX 24 36 3 -8
BITMAP
F0000F
F0000F
F0000F
F0000F
F0000F
F0000F
F0000F
F0000F
F0000F
F0000F
F0000F
F0000F
F0000F
F0000F
F0000F
F0000F
F0000F
F0000F
F0000F
F0000F
F0000F
F0000F
F0000F
F0000F
F0000F
FFFF0F
FFFF0F
FFFF0F
00000F
00000F
00000E
00001E
00007E
0001FC
0001F8
0001E0
ENDCHAR
STARTCHAR 01C8
ENCODING 456
SWIDTH 720 0
DWIDTH 28 0
BBX 23 38 3 -8
BITMAP
00000E
00000E
F0000E
F0000E
F0000E
F00000
F00000
F00000
F00000
F0000E
F0000E
F0000E
F0000E
F0000E
F0000E
F0000E
F0000E
F0000E
F0000E
F0000E
F0000E
F0000E
F0000E
F0000E
F0000E
F0000E
F0000E
FFFF0E
FFFF0E
FFFF0E
00000E
00000E
00001E
00001C
00001C
0000FC
0000F8
0000F0
ENDCHAR
STARTCHAR 01C9
ENCODING 457
SWIDTH 411 0
DWIDTH 16 0
BBX 10 38 3 -8
BITMAP
E1C0
E1C0
E1C0
E1C0
E1C0
E000
E000
E000
E000
E1C0
E1C0
E1C0
E1C0
E1C0
E1C0
E1C0
E1C0
E1C0
E1C0
E1C0
E1C0
E1C0
E1C0
E1C0
E1C0
E1C0
E1C0
E1C0
E1C0
E1C0
01C0
01C0
01C0
03C0
0380
1F80
1F00
1E00
ENDCHAR
STARTCHAR 01CA
ENCODING 458
SWIDTH 848 0
DWIDTH 33 0
BBX 27 36 3 -8
BITMAP
FC00F0E0
FC00F0E0
FE00F0E0
FE00F0E0
FE00F0E0
FF00F0E0
F700F0E0
F780F0E0
F380F0E0
F3C0F0E0
F1C0F0E0
F1E0F0E0
F0E0F0E0
F0F0F0E0
F070F0E0
F078F0E0
F038F0E0
F03CF0E0
F01CF0E0
F01EF0E0
F00EF0E0
F00FF0E0
F007F0E0
F007F0E0
F007F0E0
F003F0E0
F003F0E0
F001F0E0
000000E0
000000E0
000001E0
000001E0
00000FC0
00001FC0
00001F80
00001C00
ENDCHAR
STARTCHAR 01CB
ENCODING 459
SWIDTH 822 0
DWIDTH 32 0
BBX 26 38 3 -8
BITMAP
000001C0
000001C0
FC00F1C0
FC00F1C0
FE00F1C0
FE00F000
FE00F000
FF00F000
F700F000
F780F1C0
F380F1C0
F3C0F1C0
F1C0F1C0
F1E0F1C0
F0E0F1C0
F0F0F1C0
F070F1C0
F078F1C0
F038F1C0
F03CF1C0
F01CF1C0
F01EF1C0
F00EF1C0
F00FF1C0
F007F1C0
F007F1C0
F007F1C0
F003F1C0
F003F1C0
F001F1C0
000001C0
000001C0
000001C0
000001C0
000003C0
00001FC0
00001F80
00001F00
ENDCHAR
STARTCHAR 01CC
ENCODING 460
SWIDTH 720 0
DWIDTH 28 0
BBX 23 38 3 -8
BITMAP
00000E
00000E
00000E
00000E
00000E
000000
000000
000000
01F000
E7FC0E
EFFE0E
EE3E0E
F80F0E
F00F0E
F0070E
F0070E
E0070E
E0070E
E0070E
E0070E
E0070E
E0070E
E0070E
E0070E
E0070E
E0070E
E0070E
E0070E
E0070E
E0070E
00000E
00000E
00001E
00001C
00001C
0000FC
0000F8
0000F0
ENDCHAR
STARTCHAR 01CD
ENCODING 461
SWIDTH 617 0
DWIDTH 24 0
BBX 24 36 0 0
BITMAP
01C380
00E300
006600
007E00
003C00
000000
000000
000000
003C00
007E00
007E00
007E00
00FF00
00E700
00E700
01E780
01C380
01C380
03C3C0
0381C0
0381C0
0781E0
0700E0
0700E0
0F00F0
0E0070
0FFFF0
1FFFF8
1FFFF8
3C003C
3C003C
38001C
78001E
78001E
70000E
F0000F
ENDCHAR
STARTCHAR 01CE
ENCODING 462
SWIDTH 565 0
DWIDTH 22 0
BBX 16 32 2 -1
BITMAP
1C18
0C38
0E30
0770
03E0
03C0
01C0
0000
0000
07E0
3FF8
7FFC
783E
400E
0007
0007
0007
0007
0FFF
3FFF
7E07
7007
F007
E007
E007
E00F
F00F
701F
7E7F
3FF7
1FE7
0200
ENDCHAR
STARTCHAR 01CF
ENCODING 463
SWIDTH 257 0
DWIDTH 10 0
BBX 10 36 0 0
BITMAP
E0C0
7180
3B80
1F00
1E00
0000
0000
0000
1E00
1E00
1E00
1E00
1E00
1E00
1E00
1E00
1E00
1E00
1E00
1E00
1E00
1E00
1E00
1E00
1E00
1E00
1E00
1E00
1E00
1E00
1E00
1E00
1E00
1E00
1E00
1E00
ENDCHAR
STARTCHAR 01D0
ENCODING 464
SWIDTH 257 0
DWIDTH 10 0
BBX 10 31 0 0
BITMAP
C0C0
E180
7380
3300
3F00
1E00
1C00
0000
0000
0000
1C00
1C00
1C00
1C00
1C00
1C00
1C00
1C00
1C00
1C00
1C00
1C00
1C00
1C00
1C00
1C00
1C00
1C00
1C00
1C00
1C00
ENDCHAR
STARTCHAR 01D1
ENCODING 465
SWIDTH 720 0
DWIDTH 28 0
BBX 24 37 2 -1
BITMAP
01C380
00C700
00EE00
007E00
003C00
000000
000000
007E00
03FFC0
07FFE0
0FC3F0
1F00F8
3C0078
3C003C
78003C
78001E
70001E
F0000E
F0000E
F0000F
F0000F
F0000F
F0000F
F0000F
F0000F
F0000E
F0001E
70001E
78001E
78003C
3C003C
3E0078
1F01F0
0FFFF0
07FFC0
01FF80
001000
ENDCHAR
STARTCHAR 01D2
ENCODING 466
SWIDTH 540 0
DWIDTH 21 0
BBX 18 32 2 -1
BITMAP
0C1C00
0E1800
063800
077000
03F000
01E000
01C000
000000
000000
03E000
0FF800
1FFE00
3E1E00
780F00
780780
700780
F00380
E00380
E00380
E003C0
E003C0
E003C0
E00380
F00380
F00380
700780
780700
3C0F00
3F7E00
1FFC00
0FF800
008000
ENDCHAR
STARTCHAR 01D3
ENCODING 467
SWIDTH 668 0
DWIDTH 26 0
BBX 20 37 3 -1
BITMAP
070E00
031C00
019800
01F800
00F000
000000
000000
000000
F000F0
F000F0
F000F0
F000F0
F000F0
F000F0
F000F0
F000F0
F000F0
F000F0
F000F0
F000F0
F000F0
F000F0
F000F0
F000F0
F000F0
F000F0
F000F0
F000F0
F000E0
F000E0
7001E0
7801E0
3C07C0
3FFF80
1FFF00
07FE00
004000
ENDCHAR
STARTCHAR 01D4
ENCODING 468
SWIDTH 565 0
DWIDTH 22 0
BBX 16 32 3 -1
BITMAP
1838
1C30
0C70
0EE0
07E0
03C0
0380
0000
0000
0000
E007
E007
E007
E007
E007
E007
E007
E007
E007
E007
E007
E007
E007
E007
E007
E00F
F00F
781F
7FF7
3FF7
1FC7
0200
ENDCHAR
STARTCHAR 01D5
ENCODING 469
SWIDTH 668 0
DWIDTH 26 0
BBX 20 41 3 -1
BITMAP
07FE00
07FE00
07FE00
000000
071E00
071E00
071E00
071E00
000000
000000
000000
000000
F000F0
F000F0
F000F0
F000F0
F000F0
F000F0
F000F0
F000F0
F000F0
F000F0
F000F0
F000F0
F000F0
F000F0
F000F0
F000F0
F000F0
F000F0
F000F0
F000F0
F000E0
F000E0
7001E0
7801E0
3C07C0
3FFF80
1FFF00
07FE00
004000
ENDCHAR
STARTCHAR 01D6
ENCODING 470
SWIDTH 565 0
DWIDTH 22 0
BBX 16 36 3 -1
BITMAP
1FF8
1FF8
1FF8
0000
0000
1C78
1C78
1C78
1C78
0000
0000
0000
0000
0000
E007
E007
E007
E007
E007
E007
E007
E007
E007
E007
E007
E007
E007
E007
E007
E00F
F00F
781F
7FF7
3FF7
1FC7
0200
ENDCHAR
STARTCHAR 01D7
ENCODING 471
SWIDTH 668 0
DWIDTH 26 0
BBX 20 42 3 -1
BITMAP
001E00
001C00
003800
007000
006000
070E00
070E00
070E00
070E00
000000
000000
000000
000000
F000F0
F000F0
F000F0
F000F0
F000F0
F000F0
F000F0
F000F0
F000F0
F000F0
F000F0
F000F0
F000F0
F000F0
F000F0
F000F0
F000F0
F000F0
F000F0
F000F0
F000E0
F000E0
7001E0
7801E0
3C07C0
3FFF80
1FFF00
07FE00
004000
ENDCHAR
STARTCHAR 01D8
ENCODING 472
SWIDTH 565 0
DWIDTH 22 0
BBX 16 36 3 -1
BITMAP
0070
0070
00E0
01C0
0180
1C78
1C78
1C78
1C78
0000
0000
0000
0000
0000
E007
E007
E007
E007
E007
E007
E007
E007
E007
E007
E007
E007
E007
E007
E007
E00F
F00F
781F
7FF7
3FF7
1FC7
0200
ENDCHAR
STARTCHAR 01D9
ENCODING 473
SWIDTH 668 0
DWIDTH 26 0
BBX 20 42 3 -1
BITMAP
060E00
031C00
03B800
01F800
00F000
071E00
071E00
071E00
071E00
000000
000000
000000
000000
F000F0
F000F0
F000F0
F000F0
F000F0
F000F0
F000F0
F000F0
F000F0
F000F0
F000F0
F000F0
F000F0
F000F0
F000F0
F000F0
F000F0
F000F0
F000F0
F000F0
F000E0
F000E0
7001E0
7801E0
3C07C0
3FFF80
1FFF00
07FE00
004000
ENDCHAR
STARTCHAR 01DA
ENCODING 474
SWIDTH 565 0
DWIDTH 22 0
BBX 16 36 3 -1
BITMAP
1C38
0C70
0660
07E0
03C0
1C38
1C38
1C38
1C38
0000
0000
0000
0000
0000
E007
E007
E007
E007
E007
E007
E007
E007
E007
E007
E007
E007
E007
E007
E007
E00F
F00F
781F
7FF7
3FF7
1FC7
0200
ENDCHAR
STARTCHAR 01DB
ENCODING 475
SWIDTH 668 0
DWIDTH 26 0
BBX 20 42 3 -1
BITMAP
070000
038000
01C000
00C000
00E000
071E00
071E00
071E00
071E00
000000
000000
000000
000000
F000F0
F000F0
F000F0
F000F0
F000F0
F000F0
F000F0
F000F0
F000F0
F000F0
F000F0
F000F0
F000F0
F000F0
F000F0
F000F0
F000F0
F000F0
F000F0
F000F0
F000E0
F000E0
7001E0
7801E0
3C07C0
3FFF80
1FFF00
07FE00
004000
ENDCHAR
STARTCHAR 01DC
ENCODING 476
SWIDTH 565 0
DWIDTH 22 0
BBX 16 36 3 -1
BITMAP
1C00
0E00
0700
0300
0380
1C78
1C78
1C78
1C78
0000
0000
0000
0000
0000
E007
E007
E007
E007
E007
E007
E007
E007
E007
E007
E007
E007
E007
E007
E007
E00F
F00F
781F
7FF7
3FF7
1FC7
0200
ENDCHAR
STARTCHAR 01DD
ENCODING 477
SWIDTH 565 0
DWIDTH 22 0
BBX 18 23 2 -1
BITMAP
07E000
7FF800
7FFC00
783E00
400F00
000780
000780
000380
0003C0
0003C0
0003C0
FFFFC0
FFFFC0
E003C0
E00380
E00380
F00780
700700
780F00
3F7E00
1FFC00
0FF800
008000
ENDCHAR
STARTCHAR 01DE
ENCODING 478
SWIDTH 617 0
DWIDTH 24 0
BBX 24 40 0 0
BITMAP
01FF80
01FF80
01FF80
000000
01C380
01C380
01C380
01C380
000000
000000
000000
000000
003C00
007E00
007E00
007E00
00FF00
00E700
00E700
01E780
01C380
01C380
03C3C0
0381C0
0381C0
0781E0
0700E0
0700E0
0F00F0
0E0070
0FFFF0
1FFFF8
1FFFF8
3C003C
3C003C
38001C
78001E
78001E
70000E
F0000F
ENDCHAR
STARTCHAR 01DF
ENCODING 479
SWIDTH 565 0
DWIDTH 22 0
BBX 16 36 2 -1
BITMAP
1FF8
1FF8
1FF8
0000
0000
1E38
1E38
1E38
1E38
0000
0000
0000
0000
07E0
3FF8
7FFC
783E
400E
0007
0007
0007
0007
0FFF
3FFF
7E07
7007
F007
E007
E007
E00F
F00F
701F
7E7F
3FF7
1FE7
0200
ENDCHAR
STARTCHAR 01E0
ENCODING 480
SWIDTH 617 0
DWIDTH 24 0
BBX 24 40 0 0
BITMAP
01FF80
01FF80
01FF80
000000
000000
003C00
003C00
003C00
003C00
000000
000000
000000
003C00
007E00
007E00
007E00
00FF00
00E700
00E700
01E780
01C380
01C380
03C3C0
0381C0
0381C0
0781E0
0700E0
0700E0
0F00F0
0E0070
0FFFF0
1FFFF8
1FFFF8
3C003C
3C003C
38001C
78001E
78001E
70000E
F0000F
ENDCHAR
STARTCHAR 01E1
ENCODING 481
SWIDTH 565 0
DWIDTH 22 0
BBX 16 35 2 -1
BITMAP
1FF8
1FF8
1FF8
0000
0000
03C0
03C0
03C0
03C0
0000
0000
0000
07E0
3FF8
7FFC
783E
400E
0007
0007
0007
0007
0FFF
3FFF
7E07
7007
F007
E007
E007
E00F
F00F
701F
7E7F
3FF7
1FE7
0200
ENDCHAR
STARTCHAR 01E2
ENCODING 482
SWIDTH 874 0
DWIDTH 34 0
BBX 32 35 0 0
BITMAP
0000FFC0
0000FFC0
0000FFC0
00000000
00000000
00000000
00000000
003FFFFF
003FFFFF
003FFFFF
0079E000
0079E000
0071E000
00F1E000
00E1E000
01E1E000
01E1E000
01C1E000
03C1FFFE
0381FFFE
0381FFFE
0781E000
0701E000
0F01E000
0F01E000
0FFFE000
1FFFE000
1FFFE000
1C01E000
3C01E000
3801E000
7801E000
7801FFFF
7001FFFF
F001FFFF
ENDCHAR
STARTCHAR 01E3
ENCODING 483
SWIDTH 874 0
DWIDTH 34 0
BBX 31 30 2 -1
BITMAP
003FF000
003FF000
003FF000
00000000
00000000
00000000
00000000
07E00F80
3FF87FE0
7FFCFFF0
783FF0F8
400FC038
0007803C
0007801C
0007801C
0007001E
0FFFFFFE
3FFFFFFE
7E07FFFE
70070000
F0070000
E0070000
E0078000
E00F8000
F00FC000
F01DE00C
7E79FC7C
3FF0FFFC
1FE03FF0
00000200
ENDCHAR
STARTCHAR 01E4
ENCODING 484
SWIDTH 694 0
DWIDTH 27 0
BBX 24 30 2 -1
BITMAP
007F80
03FFE0
07FFF8
0FC0FC
1F003C
3E000C
3C0004
780000
780000
700000
F00000
F00000
F00000
F00000
F007FC
F007FC
F007FC
F0001C
F0001C
F0001C
7001FF
7801FC
78001C
3C001C
3E001C
1F803C
0FFFFC
07FFF8
01FFE0
000800
ENDCHAR
STARTCHAR 01E5
ENCODING 485
SWIDTH 565 0
DWIDTH 22 0
BBX 20 30 2 -8
BITMAP
03C000
0FF380
1FFB80
3E3F80
780F80
700780
F00780
F00380
E00380
E00380
E00380
E00380
E00380
E00380
F00380
F00780
700780
780F80
3C1F80
3FFB80
1FF380
07E380
000380
3FFFF0
000700
000F00
301F00
3FFE00
3FFC00
0FF000
ENDCHAR
STARTCHAR 01E6
ENCODING 486
SWIDTH 694 0
DWIDTH 27 0
BBX 22 37 2 -1
BITMAP
00C180
00E380
007700
003E00
001C00
000000
000000
007F80
03FFE0
07FFF8
0FC0FC
1F003C
3E000C
3C0004
780000
780000
700000
F00000
F00000
F00000
F00000
F007FC
F007FC
F007FC
F0001C
F0001C
F0001C
70001C
78001C
78001C
3C001C
3E001C
1F803C
0FFFFC
07FFF8
01FFE0
000800
ENDCHAR
STARTCHAR 01E7
ENCODING 487
SWIDTH 565 0
DWIDTH 22 0
BBX 17 39 2 -8
BITMAP
181800
0C3800
0E7000
066000
07E000
03C000
03C000
000000
000000
03C000
0FF380
1FFB80
3E3F80
780F80
700780
F00780
F00380
E00380
E00380
E00380
E00380
E00380
E00380
F00380
F00780
700780
780F80
3C1F80
3FFB80
1FF380
07E380
000380
000780
000700
000F00
301F00
3FFE00
3FFC00
0FF000
ENDCHAR
STARTCHAR 01E8
ENCODING 488
SWIDTH 591 0
DWIDTH 23 0
BBX 20 36 3 0
BITMAP
0C1800
0E3800
077000
03E000
01E000
000000
000000
000000
F003E0
F003C0
F00780
F00F00
F01E00
F03C00
F07800
F0F000
F1E000
F3C000
F78000
FF0000
FE0000
FF0000
FF8000
F7C000
F3C000
F1E000
F0F000
F07800
F07C00
F03E00
F01F00
F00F80
F007C0
F003E0
F001E0
F000F0
ENDCHAR
STARTCHAR 01E9
ENCODING 489
SWIDTH 514 0
DWIDTH 20 0
BBX 20 36 0 0
BITMAP
E1C000
638000
770000
3F0000
1E0000
000000
1C0000
1C0000
1C0000
1C0000
1C0000
1C0000
1C0000
1C0000
1C0000
1C01E0
1C03C0
1C0780
1C0F00
1C1E00
1C3C00
1C7800
1CF000
1DE000
1FC000
1FC000
1DE000
1CF000
1C7800
1C3C00
1C1E00
1C0F00
1C0780
1C03C0
1C01E0
1C00F0
ENDCHAR
STARTCHAR 01EA
ENCODING 490
SWIDTH 720 0
DWIDTH 28 0
BBX 24 36 2 -8
BITMAP
007E00
03FFC0
07FFE0
0FC3F0
1F00F8
3C0078
3C003C
78003C
78001E
70001E
F0000E
F0000E
F0000F
F0000F
F0000F
F0000F
F0000F
F0000F
F0000E
F0001E
70001E
78001E
78003C
3C003C
3E0078
1F01F0
0FFFF0
07FFC0
01FF80
003800
003000
007000
006000
007000
007E00
003E00
ENDCHAR
STARTCHAR 01EB
ENCODING 491
SWIDTH 540 0
DWIDTH 21 0
BBX 18 29 2 -8
BITMAP
03E000
0FF800
1FFE00
3E1E00
780F00
780780
700780
F00380
E00380
E00380
E003C0
E003C0
E003C0
E00380
F00380
F00380
700780
780700
3C0F00
3F7E00
1FFC00
0FF800
01C000
018000
030000
030000
038000
03F000
01F000
ENDCHAR
STARTCHAR 01EC
ENCODING 492
SWIDTH 720 0
DWIDTH 28 0
BBX 24 42 2 -8
BITMAP
01FF80
01FF80
01FF80
000000
000000
000000
007E00
03FFC0
07FFE0
0FC3F0
1F00F8
3C0078
3C003C
78003C
78001E
70001E
F0000E
F0000E
F0000F
F0000F
F0000F
F0000F
F0000F
F0000F
F0000E
F0001E
70001E
78001E
78003C
3C003C
3E0078
1F01F0
0FFFF0
07FFC0
01FF80
003800
003000
007000
006000
007000
007E00
003E00
ENDCHAR
STARTCHAR 01ED
ENCODING 493
SWIDTH 540 0
DWIDTH 21 0
BBX 18 36 2 -8
BITMAP
0FFC00
0FFC00
0FFC00
000000
000000
000000
000000
03E000
0FF800
1FFE00
3E1E00
780F00
780780
700780
F00380
E00380
E00380
E003C0
E003C0
E003C0
E00380
F00380
F00380
700780
780700
3C0F00
3F7E00
1FFC00
0FF800
01C000
018000
030000
030000
038000
03F000
01F000
ENDCHAR
STARTCHAR 01EE
ENCODING 494
SWIDTH 591 0
DWIDTH 23 0
BBX 19 37 3 -1
BITMAP
0E1C00
071800
033000
03F000
01E000
000000
000000
000000
FFFF80
FFFF80
FFFF80
000F80
000F00
001E00
003C00
003C00
007800
00F000
00E000
01E000
03F800
03FE00
03FF00
000F80
0003C0
0001C0
0001E0
0001E0
0001E0
0001E0
0001E0
0001C0
8003C0
F00F80
FFFF80
FFFE00
1FF800
ENDCHAR
STARTCHAR 01EF
ENCODING 495
SWIDTH 514 0
DWIDTH 20 0
BBX 17 39 1 -8
BITMAP
1C1800
0C3800
0E3000
077000
03E000
03C000
01C000
000000
000000
000000
7FFF00
7FFF00
000F00
001E00
001E00
003C00
007800
00F000
00F000
01E000
03C000
078000
07F000
07FC00
07FE00
003F00
000F00
000780
000380
000380
000380
000380
000380
000780
800F80
E01F00
FFFE00
FFFC00
3FF000
ENDCHAR
STARTCHAR 01F0
ENCODING 496
SWIDTH 257 0
DWIDTH 10 0
BBX 11 39 -1 -8
BITMAP
6060
30E0
39C0
1980
1F80
0F00
0F00
0000
0000
0000
0E00
0E00
0E00
0E00
0E00
0E00
0E00
0E00
0E00
0E00
0E00
0E00
0E00
0E00
0E00
0E00
0E00
0E00
0E00
0E00
0E00
0E00
0E00
0E00
0E00
1E00
FE00
FC00
F800
ENDCHAR
STARTCHAR 01F1
ENCODING 497
SWIDTH 1285 0
DWIDTH 50 0
BBX 44 28 3 0
BITMAP
FFFC00FFFFF0
FFFF80FFFFF0
FFFFC0FFFFF0
F007E00001E0
F001F00003E0
F000F00003C0
F00078000780
F00078000F00
F00038000F00
F0003C001E00
F0003C003C00
F0003C007C00
F0003C007800
F0003C00F000
F0003C01E000
F0003C03E000
F0003C03C000
F0003C078000
F0003C0F0000
F000780F0000
F000781E0000
F000F83C0000
F000F07C0000
F003E0780000
F00FE0F00000
FFFF80FFFFF0
FFFF00FFFFF0
FFF800FFFFF0
ENDCHAR
STARTCHAR 01F2
ENCODING 498
SWIDTH 1182 0
DWIDTH 46 0
BBX 40 28 3 0
BITMAP
FFFC000000
FFFF800000
FFFFC00000
F007E00000
F001F00000
F000F00000
F000780000
F000787FFF
F000387FFF
F0003C000F
F0003C001E
F0003C003C
F0003C0038
F0003C0078
F0003C00F0
F0003C01E0
F0003C01C0
F0003C03C0
F0003C0780
F000780F00
F000781E00
F000F81E00
F000F03C00
F003E07800
F00FE0F000
FFFF80FFFF
FFFF00FFFF
FFF800FFFF
ENDCHAR
STARTCHAR 01F3
ENCODING 499
SWIDTH 1054 0
DWIDTH 41 0
BBX 36 31 2 -1
BITMAP
0003800000
0003800000
0003800000
0003800000
0003800000
0003800000
0003800000
0003800000
03C3800000
0FF387FFF0
1FFB87FFF0
3E3F8000F0
780F8001E0
70078003C0
70078003C0
F007800780
E003800F00
E003801E00
E003801C00
E003803C00
E003807800
E00380F000
E00381E000
F00781E000
700783C000
780F878000
7C0F8F0000
3E3F8FFFF0
1FFB8FFFF0
0FF38FFFF0
0100000000
ENDCHAR
STARTCHAR 01F4
ENCODING 500
SWIDTH 694 0
DWIDTH 27 0
BBX 22 37 2 -1
BITMAP
000E00
001E00
001C00
003800
007000
000000
000000
007F80
03FFE0
07FFF8
0FC0FC
1F003C
3E000C
3C0004
780000
780000
700000
F00000
F00000
F00000
F00000
F007FC
F007FC
F007FC
F0001C
F0001C
F0001C
70001C
78001C
78001C
3C001C
3E001C
1F803C
0FFFFC
07FFF8
01FFE0
000800
ENDCHAR
STARTCHAR 01F5
ENCODING 501
SWIDTH 565 0
DWIDTH 22 0
BBX 17 39 2 -8
BITMAP
007800
00F000
00E000
01C000
038000
038000
070000
000000
000000
03C000
0FF380
1FFB80
3E3F80
780F80
700780
F00780
F00380
E00380
E00380
E00380
E00380
E00380
E00380
F00380
F00780
700780
780F80
3C1F80
3FFB80
1FF380
07E380
000380
000780
000700
000F00
301F00
3FFE00
3FFC00
0FF000
ENDCHAR
STARTCHAR 01F6
ENCODING 502
SWIDTH 1002 0
DWIDTH 39 0
BBX 33 29 3 -1
BITMAP
F000F00000
F000F00000
F000F00000
F000F00000
F000F00000
F000F00000
F000F00000
F000F00780
F000F00780
F000F00780
F000F00780
FFFFF00780
FFFFF00780
FFFFF00780
F000F00780
F000F00780
F000F00780
F000F00780
F000F00780
F000F00780
F000F00780
F000700780
F000700780
F000780700
F000780F00
F0003FFF00
F0003FFE00
F0000FFC00
0000008000
ENDCHAR
STARTCHAR 01F7
ENCODING 503
SWIDTH 617 0
DWIDTH 24 0
BBX 19 37 3 -8
BITMAP
007E00
F1FF80
F7FFC0
FFFFC0
FF03C0
FC01E0
F801E0
F801E0
F001E0
F001E0
F001E0
F001C0
F003C0
F00380
F00780
F00F00
F01E00
F03C00
F07C00
F0F800
F3E000
F7C000
FF8000
FF0000
FC0000
F80000
F00000
F00000
F00000
F00000
F00000
F00000
F00000
F00000
F00000
F00000
F00000
ENDCHAR
STARTCHAR 01F8
ENCODING 504
SWIDTH 668 0
DWIDTH 26 0
BBX 20 36 3 0
BITMAP
01C000
00E000
006000
007000
003800
000000
000000
000000
FC00F0
FC00F0
FE00F0
FE00F0
FE00F0
FF00F0
F700F0
F780F0
F380F0
F3C0F0
F1C0F0
F1E0F0
F0E0F0
F0F0F0
F070F0
F078F0
F038F0
F03CF0
F01CF0
F01EF0
F00EF0
F00FF0
F007F0
F007F0
F007F0
F003F0
F003F0
F001F0
ENDCHAR
STARTCHAR 01F9
ENCODING 505
SWIDTH 565 0
DWIDTH 22 0
BBX 16 31 3 0
BITMAP
0780
0380
01C0
00E0
00E0
0070
0038
0000
0000
01F0
E7FC
EFFE
EE3E
F80F
F00F
F007
F007
E007
E007
E007
E007
E007
E007
E007
E007
E007
E007
E007
E007
E007
E007
ENDCHAR
STARTCHAR 01FA
ENCODING 506
SWIDTH 617 0
DWIDTH 24 0
BBX 24 36 0 0
BITMAP
003C0E
007E1C
00E738
01C3B0
0181F0
018180
01C380
00E700
00FF00
007E00
007E00
007E00
00FF00
00E700
00E700
01E780
01C380
01C380
03C3C0
0381C0
0381C0
0781E0
0700E0
0700E0
0F00F0
0E0070
0FFFF0
1FFFF8
1FFFF8
3C0038
3C003C
38001C
78001E
78001E
70000E
F0000F
ENDCHAR
STARTCHAR 01FB
ENCODING 507
SWIDTH 565 0
DWIDTH 22 0
BBX 19 37 2 -1
BITMAP
0000E0
0001C0
03E380
07F380
0E7700
0C3800
1C1800
1C1800
0C3800
0E7000
07F000
03E000
000000
000000
07E000
3FF800
7FFC00
783E00
400E00
000700
000700
000700
000700
0FFF00
3FFF00
7E0700
700700
F00700
E00700
E00700
E00F00
F00F00
701F00
7E7F00
3FF700
1FE700
020000
ENDCHAR
STARTCHAR 01FC
ENCODING 508
SWIDTH 874 0
DWIDTH 34 0
BBX 32 36 0 0
BITMAP
00000E00
00001C00
00003800
00003000
00007000
00000000
00000000
00000000
003FFFFF
003FFFFF
003FFFFF
0079E000
0079E000
0071E000
00F1E000
00E1E000
01E1E000
01E1E000
01C1E000
03C1FFFE
0381FFFE
0381FFFE
0781E000
0701E000
0F01E000
0F01E000
0FFFE000
1FFFE000
1FFFE000
1C01E000
3C01E000
3801E000
7801E000
7801FFFF
7001FFFF
F001FFFF
ENDCHAR
STARTCHAR 01FD
ENCODING 509
SWIDTH 874 0
DWIDTH 34 0
BBX 31 32 2 -1
BITMAP
0001C000
00038000
00078000
00070000
000E0000
001C0000
00180000
00000000
00000000
07E00F80
3FF87FE0
7FFCFFF0
783FF0F8
400FC038
0007803C
0007801C
0007801C
0007001E
0FFFFFFE
3FFFFFFE
7E07FFFE
70070000
F0070000
E0070000
E0078000
E00F8000
F00FC000
F01DE00C
7E79FC7C
3FF0FFFC
1FE03FF0
00000200
ENDCHAR
STARTCHAR 01FE
ENCODING 510
SWIDTH 720 0
DWIDTH 28 0
BBX 24 37 2 -1
BITMAP
000E00
001C00
003800
003000
007000
000000
000000
007E06
03FF8E
07FFEE
0FC3FC
1F00F8
3C0078
3C007C
7800FC
7801DE
70039E
F0038E
F0070E
F00E0F
F01C0F
F01C0F
F0380F
F0700F
F0E00F
F1E00E
F1C01E
73801E
7F001E
7E003C
3E003C
3E0078
3F01F0
7FFFF0
77FFC0
E1FF80
401000
ENDCHAR
STARTCHAR 01FF
ENCODING 511
SWIDTH 540 0
DWIDTH 21 0
BBX 19 32 1 -2
BITMAP
003C00
007800
007000
00E000
01C000
01C000
038000
000000
000040
01F0E0
07FCC0
0FFFC0
1F0F80
3C0780
3C07C0
380FC0
781DC0
7839C0
7031C0
7071E0
70E1E0
71C1E0
71C1C0
7381C0
7F01C0
3E03C0
3E0380
1E0780
3FBF00
3FFE00
77FC00
E04000
ENDCHAR
STARTCHAR 0200
ENCODING 512
SWIDTH 617 0
DWIDTH 24 0
BBX 24 36 0 0
BITMAP
039E00
038E00
01C700
00E380
007180
000000
000000
000000
003C00
007E00
007E00
007E00
00FF00
00E700
00E700
01E780
01C380
01C380
03C3C0
0381C0
0381C0
0781E0
0700E0
0700E0
0F00F0
0E0070
0FFFF0
1FFFF8
1FFFF8
3C003C
3C003C
38001C
78001E
78001E
70000E
F0000F
ENDCHAR
STARTCHAR 0201
ENCODING 513
SWIDTH 565 0
DWIDTH 22 0
BBX 16 32 2 -1
BITMAP
1CE0
1C70
0E70
0E38
0718
031C
038C
0000
0000
07E0
3FF8
7FFC
783E
400E
0007
0007
0007
0007
0FFF
3FFF
7E07
7007
F007
E007
E007
E00F
F00F
701F
7E7F
3FF7
1FE7
0200
ENDCHAR
STARTCHAR 0202
ENCODING 514
SWIDTH 617 0
DWIDTH 24 0
BBX 24 35 0 0
BITMAP
007E00
00FF00
01E780
018180
018180
000000
000000
003C00
007E00
007E00
007E00
00FF00
00E700
00E700
01E780
01C380
01C380
03C3C0
0381C0
0381C0
0781E0
0700E0
0700E0
0F00F0
0E0070
0FFFF0
1FFFF8
1FFFF8
3C003C
3C003C
38001C
78001E
78001E
70000E
F0000F
ENDCHAR
STARTCHAR 0203
ENCODING 515
SWIDTH 565 0
DWIDTH 22 0
BBX 16 32 2 -1
BITMAP
0080
07F0
0FF8
1C38
181C
180C
0000
0000
0000
07E0
3FF8
7FFC
783E
400E
0007
0007
0007
0007
0FFF
3FFF
7E07
7007
F007
E007
E007
E00F
F00F
701F
7E7F
3FF7
1FE7
0200
ENDCHAR
STARTCHAR 0204
ENCODING 516
SWIDTH 565 0
DWIDTH 22 0
BBX 17 36 3 0
BITMAP
39C000
38E000
1C7000
0E3000
063800
000000
000000
000000
FFFF80
FFFF80
FFFF80
F00000
F00000
F00000
F00000
F00000
F00000
F00000
F00000
FFFF00
FFFF00
FFFF00
F00000
F00000
F00000
F00000
F00000
F00000
F00000
F00000
F00000
F00000
F00000
FFFF80
FFFF80
FFFF80
ENDCHAR
STARTCHAR 0205
ENCODING 517
SWIDTH 565 0
DWIDTH 22 0
BBX 18 32 2 -1
BITMAP
1C7000
0E3000
0E3800
071800
031C00
038C00
018E00
000000
000000
01F000
0FFC00
1FFE00
3E1F00
380700
780380
700380
F00380
E003C0
FFFFC0
FFFFC0
FFFFC0
E00000
E00000
F00000
F00000
700000
780000
3C0180
1FDF80
0FFF80
07FF00
004000
ENDCHAR
STARTCHAR 0206
ENCODING 518
SWIDTH 565 0
DWIDTH 22 0
BBX 17 35 3 0
BITMAP
03F000
0FF800
0F3C00
1C1C00
180C00
000000
000000
FFFF80
FFFF80
FFFF80
F00000
F00000
F00000
F00000
F00000
F00000
F00000
F00000
FFFF00
FFFF00
FFFF00
F00000
F00000
F00000
F00000
F00000
F00000
F00000
F00000
F00000
F00000
F00000
FFFF80
FFFF80
FFFF80
ENDCHAR
STARTCHAR 0207
ENCODING 519
SWIDTH 565 0
DWIDTH 22 0
BBX 18 32 2 -1
BITMAP
004000
03F800
07FC00
070C00
0E0E00
0C0600
000000
000000
000000
01F000
0FFC00
1FFE00
3E1F00
380700
780380
700380
F00380
E003C0
FFFFC0
FFFFC0
FFFFC0
E00000
E00000
F00000
F00000
700000
780000
3C0180
1FDF80
0FFF80
07FF00
004000
ENDCHAR
STARTCHAR 0208
ENCODING 520
SWIDTH 257 0
DWIDTH 10 0
BBX 11 36 -1 0
BITMAP
E380
7380
71C0
38E0
1C60
0000
0000
0000
0F00
0F00
0F00
0F00
0F00
0F00
0F00
0F00
0F00
0F00
0F00
0F00
0F00
0F00
0F00
0F00
0F00
0F00
0F00
0F00
0F00
0F00
0F00
0F00
0F00
0F00
0F00
0F00
ENDCHAR
STARTCHAR 0209
ENCODING 521
SWIDTH 257 0
DWIDTH 10 0
BBX 12 31 -1 0
BITMAP
E380
71C0
31C0
38C0
18E0
1C60
0C70
0000
0000
0000
0E00
0E00
0E00
0E00
0E00
0E00
0E00
0E00
0E00
0E00
0E00
0E00
0E00
0E00
0E00
0E00
0E00
0E00
0E00
0E00
0E00
ENDCHAR
STARTCHAR 020A
ENCODING 522
SWIDTH 257 0
DWIDTH 10 0
BBX 11 35 0 0
BITMAP
1F00
7FC0
73C0
E0E0
C060
0000
0000
1E00
1E00
1E00
1E00
1E00
1E00
1E00
1E00
1E00
1E00
1E00
1E00
1E00
1E00
1E00
1E00
1E00
1E00
1E00
1E00
1E00
1E00
1E00
1E00
1E00
1E00
1E00
1E00
ENDCHAR
STARTCHAR 020B
ENCODING 523
SWIDTH 257 0
DWIDTH 10 0
BBX 10 31 0 0
BITMAP
0C00
7F00
FF80
E1C0
C0C0
C0C0
0000
0000
0000
0000
1C00
1C00
1C00
1C00
1C00
1C00
1C00
1C00
1C00
1C00
1C00
1C00
1C00
1C00
1C00
1C00
1C00
1C00
1C00
1C00
1C00
ENDCHAR
STARTCHAR 020C
ENCODING 524
SWIDTH 720 0
DWIDTH 28 0
BBX 24 37 2 -1
BITMAP
071C00
038E00
01C600
00C700
00E380
000000
000000
007E00
03FFC0
07FFE0
0FC3F0
1F00F8
3C0078
3C003C
78003C
78001E
70001E
F0000E
F0000E
F0000F
F0000F
F0000F
F0000F
F0000F
F0000F
F0000E
F0001E
70001E
78001E
78003C
3C003C
3E0078
1F01F0
0FFFF0
07FFC0
01FF80
001000
ENDCHAR
STARTCHAR 020D
ENCODING 525
SWIDTH 540 0
DWIDTH 21 0
BBX 18 32 2 -1
BITMAP
1C6000
1C7000
0E3000
063800
071800
031C00
038C00
000000
000000
03E000
0FF800
1FFE00
3E1E00
780F00
780780
700780
F00380
E00380
E00380
E003C0
E003C0
E003C0
E00380
F00380
F00380
700780
780700
3C0F00
3F7E00
1FFC00
0FF800
008000
ENDCHAR
STARTCHAR 020E
ENCODING 526
SWIDTH 720 0
DWIDTH 28 0
BBX 24 36 2 -1
BITMAP
007E00
01FF00
01E780
038380
030180
000000
007E00
03FFC0
07FFE0
0FC3F0
1F00F8
3C0078
3C003C
78003C
78001E
70001E
F0000E
F0000E
F0000F
F0000F
F0000F
F0000F
F0000F
F0000F
F0000E
F0001E
70001E
78001E
78003C
3C003C
3E0078
1F01F0
0FFFF0
07FFC0
01FF80
001000
ENDCHAR
STARTCHAR 020F
ENCODING 527
SWIDTH 540 0
DWIDTH 21 0
BBX 18 32 2 -1
BITMAP
00C000
03F800
07FC00
0E1C00
0C0C00
0C0600
000000
000000
000000
03E000
0FF800
1FFE00
3E1E00
780F00
780780
700780
F00380
E00380
E00380
E003C0
E003C0
E003C0
E00380
F00380
F00380
700780
780700
3C0F00
3F7E00
1FFC00
0FF800
008000
ENDCHAR
STARTCHAR 0210
ENCODING 528
SWIDTH 617 0
DWIDTH 24 0
BBX 20 36 3 0
BITMAP
71C000
39C000
38E000
1C7000
0E3000
000000
000000
000000
FFF800
FFFE00
FFFF00
F01F00
F00F80
F00780
F00780
F00780
F00780
F00780
F00780
F00F00
F03F00
FFFE00
FFF800
FFFC00
F03E00
F00E00
F00F00
F00780
F00780
F00380
F003C0
F001C0
F001E0
F000E0
F000F0
F000F0
ENDCHAR
STARTCHAR 0211
ENCODING 529
SWIDTH 360 0
DWIDTH 14 0
BBX 11 31 3 0
BITMAP
E700
E380
7180
71C0
38C0
18E0
1C60
0000
0000
01E0
E7E0
EFE0
EF20
F800
F800
F000
F000
F000
E000
E000
E000
E000
E000
E000
E000
E000
E000
E000
E000
E000
E000
ENDCHAR
STARTCHAR 0212
ENCODING 530
SWIDTH 617 0
DWIDTH 24 0
BBX 20 35 3 0
BITMAP
07E000
0FF000
1E7800
181800
181800
000000
000000
FFF800
FFFE00
FFFF00
F01F00
F00F80
F00780
F00780
F00780
F00780
F00780
F00780
F00F00
F03F00
FFFE00
FFF800
FFFC00
F03E00
F00E00
F00F00
F00780
F00780
F00380
F003C0
F001C0
F001E0
F000E0
F000F0
F000F0
ENDCHAR
STARTCHAR 0213
ENCODING 531
SWIDTH 360 0
DWIDTH 14 0
BBX 12 31 3 0
BITMAP
0200
1FC0
3FE0
70E0
6070
6030
0000
0000
0000
01E0
E7E0
EFE0
EF20
F800
F800
F000
F000
F000
E000
E000
E000
E000
E000
E000
E000
E000
E000
E000
E000
E000
E000
ENDCHAR
STARTCHAR 0214
ENCODING 532
SWIDTH 668 0
DWIDTH 26 0
BBX 20 37 3 -1
BITMAP
0E7000
0E3800
071C00
038C00
018E00
000000
000000
000000
F000F0
F000F0
F000F0
F000F0
F000F0
F000F0
F000F0
F000F0
F000F0
F000F0
F000F0
F000F0
F000F0
F000F0
F000F0
F000F0
F000F0
F000F0
F000F0
F000F0
F000E0
F000E0
7001E0
7801E0
3C07C0
3FFF80
1FFF00
07FE00
004000
ENDCHAR
STARTCHAR 0215
ENCODING 533
SWIDTH 565 0
DWIDTH 22 0
BBX 16 32 3 -1
BITMAP
1CE0
1C70
0E30
0E38
0718
031C
038C
0000
0000
0000
E007
E007
E007
E007
E007
E007
E007
E007
E007
E007
E007
E007
E007
E007
E007
E00F
F00F
781F
7FF7
3FF7
1FC7
0200
ENDCHAR
STARTCHAR 0216
ENCODING 534
SWIDTH 668 0
DWIDTH 26 0
BBX 20 36 3 -1
BITMAP
01F800
03FC00
079E00
060600
0E0600
000000
000000
F000F0
F000F0
F000F0
F000F0
F000F0
F000F0
F000F0
F000F0
F000F0
F000F0
F000F0
F000F0
F000F0
F000F0
F000F0
F000F0
F000F0
F000F0
F000F0
F000F0
F000E0
F000E0
7001E0
7801E0
3C07C0
3FFF80
1FFF00
07FE00
004000
ENDCHAR
STARTCHAR 0217
ENCODING 535
SWIDTH 565 0
DWIDTH 22 0
BBX 16 32 3 -1
BITMAP
0080
07F0
0FF8
0E18
1C0C
180C
0000
0000
0000
0000
E007
E007
E007
E007
E007
E007
E007
E007
E007
E007
E007
E007
E007
E007
E007
E00F
F00F
781F
7FF7
3FF7
1FC7
0200
ENDCHAR
STARTCHAR 0218
ENCODING 536
SWIDTH 565 0
DWIDTH 22 0
BBX 18 38 2 -9
BITMAP
03F800
0FFF80
3FFF80
3E0F80
780180
700000
F00000
F00000
F00000
F00000
780000
7C0000
7FC000
3FF800
0FFE00
03FF00
003F80
0007C0
0003C0
0003C0
0001C0
0001C0
0001C0
0003C0
C003C0
F00780
FFFF80
FFFF00
3FFC00
008000
000000
000000
00E000
01E000
01C000
01C000
018000
038000
ENDCHAR
STARTCHAR 0219
ENCODING 537
SWIDTH 462 0
DWIDTH 18 0
BBX 15 31 2 -9
BITMAP
07E0
3FFC
7FFC
781C
F004
E000
E000
E000
F000
7E00
7FE0
1FF8
03FC
007C
001C
001E
001E
001C
C03C
F8FC
FFF8
7FE0
0200
0000
0000
03C0
0380
0380
0380
0700
0700
ENDCHAR
STARTCHAR 021A
ENCODING 538
SWIDTH 540 0
DWIDTH 21 0
BBX 22 37 0 -9
BITMAP
FFFFFC
FFFFFC
FFFFFC
007000
007000
007000
007000
007000
007000
007000
007000
007000
007000
007000
007000
007000
007000
007000
007000
007000
007000
007000
007000
007000
007000
007000
007000
007000
000000
000000
000000
007800
007000
007000
00E000
00E000
00C000
ENDCHAR
STARTCHAR 021B
ENCODING 539
SWIDTH 360 0
DWIDTH 14 0
BBX 12 36 1 -9
BITMAP
3800
3800
3800
3800
3800
3800
FFF0
FFF0
3800
3800
3800
3800
3800
3800
3800
3800
3800
3800
3800
3800
3800
3800
3C00
1C00
1FF0
0FF0
07F0
0000
0000
0000
01C0
03C0
0380
0380
0300
0700
ENDCHAR
STARTCHAR 021C
ENCODING 540
SWIDTH 565 0
DWIDTH 22 0
BBX 17 37 3 -8
BITMAP
07E000
1FF800
7FFC00
FC7E00
F01E00
C00F00
800F00
000F00
000F00
000F00
000F00
000E00
001E00
003C00
007800
01F000
07F000
1FFC00
1FFE00
1C0F00
000F00
000700
000700
000780
000700
000700
000F00
001E00
003E00
007C00
00F800
03F000
0FE000
3F8000
FE0000
F80000
C00000
ENDCHAR
STARTCHAR 021D
ENCODING 541
SWIDTH 462 0
DWIDTH 18 0
BBX 15 30 1 -8
BITMAP
03C0
1FF0
7FFC
783C
601E
000E
000E
000E
001C
001C
0038
0070
01E0
07F0
1FF8
1C1C
100E
000E
000E
000E
000E
001E
001C
003C
00F8
03E0
0FC0
7F00
FC00
E000
ENDCHAR
STARTCHAR 021E
ENCODING 542
SWIDTH 668 0
DWIDTH 26 0
BBX 20 36 3 0
BITMAP
070600
038C00
01DC00
00F800
00F000
000000
000000
000000
F000F0
F000F0
F000F0
F000F0
F000F0
F000F0
F000F0
F000F0
F000F0
F000F0
F000F0
FFFFF0
FFFFF0
FFFFF0
F000F0
F000F0
F000F0
F000F0
F000F0
F000F0
F000F0
F000F0
F000F0
F000F0
F000F0
F000F0
F000F0
F000F0
ENDCHAR
STARTCHAR 021F
ENCODING 543
SWIDTH 565 0
DWIDTH 22 0
BBX 19 36 0 0
BITMAP
E1C000
638000
330000
3F0000
1E0000
000000
1C0000
1C0000
1C0000
1C0000
1C0000
1C0000
1C0000
1C0000
1C3E00
1CFF80
1DFFC0
1DC7C0
1F01E0
1E01E0
1E00E0
1E00E0
1C00E0
1C00E0
1C00E0
1C00E0
1C00E0
1C00E0
1C00E0
1C00E0
1C00E0
1C00E0
1C00E0
1C00E0
1C00E0
1C00E0
ENDCHAR
STARTCHAR 0220
ENCODING 544
SWIDTH 668 0
DWIDTH 26 0
BBX 19 37 3 -8
BITMAP
007C00
F1FF00
F3FF80
F7FFC0
FF07C0
FC03C0
FC01E0
F801E0
F800E0
F000E0
F000E0
F000E0
F000E0
F000E0
F000E0
F000E0
F000E0
F000E0
F000E0
F000E0
F000E0
F000E0
F000E0
F000E0
F000E0
F000E0
F000E0
F000E0
F000E0
0000E0
0000E0
0000E0
0000E0
0000E0
0000E0
0000E0
0000E0
ENDCHAR
STARTCHAR 0221
ENCODING 545
SWIDTH 745 0
DWIDTH 29 0
BBX 26 33 2 -3
BITMAP
00038000
00038000
00038000
00038000
00038000
00038000
00038000
00038000
03C38000
0FF38000
1FFB8000
3E3F8000
780F8000
70078000
70078000
F0078000
E0038000
E0038000
E0038000
E0038000
E0038000
E0039F00
E003BF80
F007FB80
7007F3C0
780FF380
7C0FE380
3F3FEF80
1FF9FF00
0FF3FE00
01039000
00038000
00078000
ENDCHAR
STARTCHAR 0222
ENCODING 546
SWIDTH 642 0
DWIDTH 25 0
BBX 21 30 2 -1
BITMAP
001C00
001F80
0007C0
0781E0
1F80E0
3E00F0
7800F0
7000F0
7000F0
7000F0
7800E0
3C03C0
1FFF80
07FE00
0FFF00
1FFFC0
7C01E0
7800F0
F000F0
F00070
E00078
E00078
F00070
F000F0
7800F0
7C01E0
3FFFE0
1FFFC0
0FFF00
006000
ENDCHAR
STARTCHAR 0223
ENCODING 547
SWIDTH 540 0
DWIDTH 21 0
BBX 17 26 2 -1
BITMAP
380700
700700
700700
700780
700780
700700
780700
3C0F00
1FFE00
0FF800
0FFC00
3FFE00
780F00
700780
F00380
F00380
E00380
E00380
F00380
F00380
F00780
780F80
7FFF00
3FFE00
0FFC00
008000
ENDCHAR
STARTCHAR 0224
ENCODING 548
SWIDTH 617 0
DWIDTH 24 0
BBX 20 36 2 -8
BITMAP
FFFFF0
FFFFF0
FFFFF0
0001E0
0001E0
0003C0
000780
000F00
000F00
001E00
003C00
007C00
007800
00F000
01E000
01E000
03C000
078000
0F0000
0F0000
1E0000
3C0000
7C0000
780000
F00000
FFFFF0
FFFFF0
FFFFF0
000070
000070
000070
000070
0000F0
003FF0
003FE0
003FC0
ENDCHAR
STARTCHAR 0225
ENCODING 549
SWIDTH 462 0
DWIDTH 18 0
BBX 16 29 1 -8
BITMAP
7FFF
7FFF
000F
000E
001E
003C
0078
00F0
00F0
01E0
03C0
0780
0700
0F00
1E00
3C00
7800
7800
FFFF
FFFF
FFFF
0007
0007
0007
000F
000E
03FE
03FC
03F8
ENDCHAR
STARTCHAR 0226
ENCODING 550
SWIDTH 617 0
DWIDTH 24 0
BBX 24 36 0 0
BITMAP
003C00
003C00
003C00
003C00
000000
000000
000000
000000
003C00
007E00
007E00
007E00
00FF00
00E700
00E700
01E780
01C380
01C380
03C3C0
0381C0
0381C0
0781E0
0700E0
0700E0
0F00F0
0E0070
0FFFF0
1FFFF8
1FFFF8
3C003C
3C003C
38001C
78001E
78001E
70000E
F0000F
ENDCHAR
STARTCHAR 0227
ENCODING 551
SWIDTH 565 0
DWIDTH 22 0
BBX 16 31 2 -1
BITMAP
03C0
03C0
03C0
03C0
03C0
0000
0000
0000
07E0
3FF8
7FFC
783E
400E
0007
0007
0007
0007
0FFF
3FFF
7E07
7007
F007
E007
E007
E00F
F00F
701F
7E7F
3FF7
1FE7
0200
ENDCHAR
STARTCHAR 0228
ENCODING 552
SWIDTH 565 0
DWIDTH 22 0
BBX 17 35 3 -8
BITMAP
FFFF80
FFFF80
FFFF80
F00000
F00000
F00000
F00000
F00000
F00000
F00000
F00000
FFFF00
FFFF00
FFFF00
F00000
F00000
F00000
F00000
F00000
F00000
F00000
F00000
F00000
F00000
F00000
FFFF80
FFFF80
FFFF80
00C000
006000
007000
007000
007000
07F000
07E000
ENDCHAR
STARTCHAR 0229
ENCODING 553
SWIDTH 565 0
DWIDTH 22 0
BBX 18 29 2 -8
BITMAP
01F000
0FFC00
1FFE00
3E1F00
380700
780380
700380
F00380
E003C0
FFFFC0
FFFFC0
FFFFC0
E00000
E00000
F00000
F00000
700000
780000
3C0180
1FDF80
0FFF80
07FF00
00E000
006000
003000
003000
007000
07F000
07E000
ENDCHAR
STARTCHAR 022A
ENCODING 554
SWIDTH 720 0
DWIDTH 28 0
BBX 24 41 2 -1
BITMAP
01FF80
01FF80
01FF80
000000
01C780
01C780
01C780
01C780
000000
000000
000000
007E00
03FFC0
07FFE0
0FC3F0
1F00F8
3C0078
3C003C
78003C
78001E
70001E
F0000E
F0000E
F0000F
F0000F
F0000F
F0000F
F0000F
F0000F
F0000E
F0001E
70001E
78001E
78003C
3C003C
3E0078
1F01F0
0FFFF0
07FFC0
01FF80
001000
ENDCHAR
STARTCHAR 022B
ENCODING 555
SWIDTH 540 0
DWIDTH 21 0
BBX 18 36 2 -1
BITMAP
0FFC00
0FFC00
0FFC00
000000
000000
0E3C00
0E3C00
0E3C00
0E3C00
000000
000000
000000
000000
03E000
0FF800
1FFE00
3E1E00
780F00
780780
700780
F00380
E00380
E00380
E003C0
E003C0
E003C0
E00380
F00380
F00380
700780
780700
3C0F00
3F7E00
1FFC00
0FF800
008000
ENDCHAR
STARTCHAR 022C
ENCODING 556
SWIDTH 720 0
DWIDTH 28 0
BBX 24 41 2 -1
BITMAP
01FF80
01FF80
01FF80
000000
00E180
01F980
03FF80
030F00
000000
000000
000000
007E00
03FFC0
07FFE0
0FC3F0
1F00F8
3C0078
3C003C
78003C
78001E
70001E
F0000E
F0000E
F0000F
F0000F
F0000F
F0000F
F0000F
F0000F
F0000E
F0001E
70001E
78001E
78003C
3C003C
3E0078
1F01F0
0FFFF0
07FFC0
01FF80
001000
ENDCHAR
STARTCHAR 022D
ENCODING 557
SWIDTH 540 0
DWIDTH 21 0
BBX 18 35 2 -1
BITMAP
0FFC00
0FFC00
0FFC00
000000
070C00
0FCC00
1DFC00
187800
000000
000000
000000
000000
03E000
0FF800
1FFE00
3E1E00
780F00
780780
700780
F00380
E00380
E00380
E003C0
E003C0
E003C0
E00380
F00380
F00380
700780
780700
3C0F00
3F7E00
1FFC00
0FF800
008000
ENDCHAR
STARTCHAR 022E
ENCODING 558
SWIDTH 720 0
DWIDTH 28 0
BBX 24 37 2 -1
BITMAP
003C00
003C00
003C00
003C00
000000
000000
000000
007E00
03FFC0
07FFE0
0FC3F0
1F00F8
3C0078
3C003C
78003C
78001E
70001E
F0000E
F0000E
F0000F
F0000F
F0000F
F0000F
F0000F
F0000F
F0000E
F0001E
70001E
78001E
78003C
3C003C
3E0078
1F01F0
0FFFF0
07FFC0
01FF80
001000
ENDCHAR
STARTCHAR 022F
ENCODING 559
SWIDTH 540 0
DWIDTH 21 0
BBX 18 31 2 -1
BITMAP
01C000
01C000
01C000
01C000
01C000
000000
000000
000000
03E000
0FF800
1FFE00
3E1E00
780F00
780780
700780
F00380
E00380
E00380
E003C0
E003C0
E003C0
E00380
F00380
F00380
700780
780700
3C0F00
3F7E00
1FFC00
0FF800
008000
ENDCHAR
STARTCHAR 0230
ENCODING 560
SWIDTH 720 0
DWIDTH 28 0
BBX 24 41 2 -1
BITMAP
01FF80
01FF80
01FF80
000000
000000
003C00
003C00
003C00
003C00
000000
000000
007E00
03FFC0
07FFE0
0FC3F0
1F00F8
3C0078
3C003C
78003C
78001E
70001E
F0000E
F0000E
F0000F
F0000F
F0000F
F0000F
F0000F
F0000F
F0000E
F0001E
70001E
78001E
78003C
3C003C
3E0078
1F01F0
0FFFF0
07FFC0
01FF80
001000
ENDCHAR
STARTCHAR 0231
ENCODING 561
SWIDTH 540 0
DWIDTH 21 0
BBX 18 36 2 -1
BITMAP
0FFC00
0FFC00
0FFC00
000000
000000
01C000
01C000
01C000
01C000
01C000
000000
000000
000000
03E000
0FF800
1FFE00
3E1E00
780F00
780780
700780
F00380
E00380
E00380
E003C0
E003C0
E003C0
E00380
F00380
F00380
700780
780700
3C0F00
3F7E00
1FFC00
0FF800
008000
ENDCHAR
STARTCHAR 0232
ENCODING 562
SWIDTH 540 0
DWIDTH 21 0
BBX 21 35 0 0
BITMAP
03FF00
03FF00
03FF00
000000
000000
000000
000000
F00078
780070
3800F0
3C01E0
1E01E0
0E03C0
0F0380
070780
078F00
03CE00
01DE00
01FC00
00FC00
00F800
007000
007000
007000
007000
007000
007000
007000
007000
007000
007000
007000
007000
007000
007000
ENDCHAR
STARTCHAR 0233
ENCODING 563
SWIDTH 540 0
DWIDTH 21 0
BBX 18 37 1 -8
BITMAP
0FFE00
0FFE00
0FFE00
000000
000000
000000
000000
000000
F001C0
7001C0
7003C0
780380
380380
380780
1C0700
1C0700
1E0F00
0E0E00
0E1E00
0F1C00
071C00
073C00
03B800
03B800
03F800
01F000
01F000
01F000
00E000
00E000
01C000
01C000
03C000
038000
3F8000
3F0000
3E0000
ENDCHAR
STARTCHAR 0234
ENCODING 564
SWIDTH 437 0
DWIDTH 17 0
BBX 13 33 2 -3
BITMAP
7000
7000
7000
7000
7000
7000
7000
7000
7000
7000
7000
7000
7000
7000
7000
7000
7000
7000
7000
7000
7000
73F0
77F0
77F8
7F38
7E78
7C78
7CF0
3FF0
3FE0
7800
7000
F000
ENDCHAR
STARTCHAR 0235
ENCODING 565
SWIDTH 771 0
DWIDTH 30 0
BBX 25 25 3 -3
BITMAP
01F00000
E7FC0000
EFFE0000
EE3E0000
F80F0000
F00F0000
F0070000
F0070000
E0070000
E0070000
E0070000
E0070000
E0070000
E0073F00
E0077F00
E0077780
E007E780
E007E780
E007C700
E007DF00
E003FF00
E003FE00
0007A000
00070000
000F0000
ENDCHAR
STARTCHAR 0236
ENCODING 566
SWIDTH 437 0
DWIDTH 17 0
BBX 14 30 1 -3
BITMAP
3800
3800
3800
3800
3800
3800
FFF0
FFF0
3800
3800
3800
3800
3800
3800
3800
3800
3800
3800
39F8
3BF8
3BFC
3F9C
3F1C
3E3C
1E78
1FF8
1FF0
3C00
3800
3800
ENDCHAR
STARTCHAR 0237
ENCODING 567
SWIDTH 257 0
DWIDTH 10 0
BBX 7 29 -1 -8
BITMAP
0E
0E
0E
0E
0E
0E
0E
0E
0E
0E
0E
0E
0E
0E
0E
0E
0E
0E
0E
0E
0E
0E
0E
0E
0E
1E
FE
FC
F8
ENDCHAR
STARTCHAR 0238
ENCODING 568
SWIDTH 900 0
DWIDTH 35 0
BBX 31 31 2 -1
BITMAP
00038000
00038000
00038000
00038000
00038000
00038000
00038000
00038000
03C38780
0FF39FE0
1FFBBFF0
3E3FF8F8
780FE03C
7007C01C
7007C01C
F007C01E
E003800E
E003800E
E003800E
E003800E
E003800E
E003800E
E003800E
F007C01E
7007C01C
780FE03C
7C0FE07C
3F3FB8F8
1FFBBFF0
0FF39FE0
01000100
ENDCHAR
STARTCHAR 0239
ENCODING 569
SWIDTH 900 0
DWIDTH 35 0
BBX 31 30 2 -8
BITMAP
03C00780
0FF39FE0
1FFBBFF0
3E3FF8F8
780FE03C
7007C01C
7007C01C
F007C01E
E003800E
E003800E
E003800E
E003800E
E003800E
E003800E
E003800E
F007C01E
7007C01C
780FE03C
7C0FE07C
3F3FB8F8
1FFBBFF0
0FF39FE0
01038100
00038000
00038000
00038000
00038000
00038000
00038000
00038000
ENDCHAR
STARTCHAR 023A
ENCODING 570
SWIDTH 617 0
DWIDTH 24 0
BBX 24 31 0 -1
BITMAP
000002
000007
003C07
007E0E
007E1C
007E38
00FF38
00E770
00E7E0
01E7C0
01C3C0
01C380
03C7C0
038FC0
038FC0
079DE0
0738E0
0770E0
0FF0F0
0EE070
0FFFF0
1FFFF8
1FFFF8
1F003C
3E003C
3C001C
78001E
78001E
70000E
F0000F
400000
ENDCHAR
STARTCHAR 023B
ENCODING 571
SWIDTH 642 0
DWIDTH 25 0
BBX 24 31 0 -1
BITMAP
000002
001FC3
00FFFF
01FFFE
03F07E
07C01E
0F803E
0F0072
1E00E0
1E00E0
1C01C0
3C0380
3C0700
3C0700
3C0E00
3C1C00
3C3800
3C7800
3C7000
3CE000
3DC000
1F8000
1F8000
1F0000
0F0002
1F8006
1FE01E
3BFFFE
71FFFC
E07FF0
600200
ENDCHAR
STARTCHAR 023C
ENCODING 572
SWIDTH 488 0
DWIDTH 19 0
BBX 19 25 0 -2
BITMAP
000040
007CE0
03FFC0
07FFC0
0F8380
0F0700
1E0600
1C0E00
3C1C00
3C3800
383000
387000
38E000
39C000
398000
3F8000
3F0000
1E0000
1E0000
1F0080
3FEF80
77FF80
71FF00
E01000
400000
ENDCHAR
STARTCHAR 023D
ENCODING 573
SWIDTH 514 0
DWIDTH 20 0
BBX 19 28 0 0
BITMAP
1E0000
1E0000
1E0000
1E0000
1E0000
1E0000
1E0000
1E0000
1E0000
1E0000
1E0000
1E0000
FFC000
FFC000
FFC000
1E0000
1E0000
1E0000
1E0000
1E0000
1E0000
1E0000
1E0000
1E0000
1E0000
1FFFE0
1FFFE0
1FFFE0
ENDCHAR
STARTCHAR 023E
ENCODING 574
SWIDTH 540 0
DWIDTH 21 0
BBX 23 30 -1 0
BITMAP
000006
7FFFFE
7FFFFE
7FFFFE
003838
003870
003870
0038E0
0039C0
003B80
003F80
003F00
003E00
003C00
003C00
003800
007800
00F800
01F800
01F800
03B800
073800
0E3800
0E3800
1C3800
383800
703800
703800
E03800
400000
ENDCHAR
STARTCHAR 023F
ENCODING 575
SWIDTH 462 0
DWIDTH 18 0
BBX 16 31 2 -9
BITMAP
07E0
3FFC
7FFC
781C
F004
E000
E000
E000
F000
7E00
3FE0
1FF0
03FC
007C
001C
001E
001E
001C
C03C
F8FC
FFF8
7FE0
0F80
07C0
03E0
01F0
00F8
007C
003F
001F
000F
ENDCHAR
STARTCHAR 0240
ENCODING 576
SWIDTH 462 0
DWIDTH 18 0
BBX 17 30 1 -9
BITMAP
7FFF00
7FFF00
000F00
000E00
001E00
003C00
007800
00F000
00F000
01E000
03C000
078000
070000
0F0000
1E0000
3C0000
780000
780000
F80000
FE0000
FE0000
0F0000
078000
03C000
01E000
00F000
00F800
007E00
003F80
000F80
ENDCHAR
STARTCHAR 0241
ENCODING 577
SWIDTH 540 0
DWIDTH 21 0
BBX 19 28 1 0
BITMAP
7FFE00
FFFF00
FFFF80
C007C0
0003C0
0001E0
0001E0
0001E0
0001E0
0001E0
0001E0
0003C0
0007C0
03FF80
03FF80
03FE00
03E000
03C000
03C000
03C000
03C000
03C000
03C000
03C000
03C000
03C000
03C000
03C000
ENDCHAR
STARTCHAR 0242
ENCODING 578
SWIDTH 437 0
DWIDTH 17 0
BBX 15 22 1 0
BITMAP
1F80
FFE0
FFF8
F9F8
807C
003C
001C
001E
001E
001E
001E
003C
003C
00FC
0FF8
0FF0
0FE0
0F00
0F00
0F00
0F00
0F00
ENDCHAR
STARTCHAR 0243
ENCODING 579
SWIDTH 617 0
DWIDTH 24 0
BBX 22 28 0 0
BITMAP
1FFF80
1FFFE0
1FFFE0
1E01F0
1E00F0
1E0070
1E0078
1E0070
1E0070
1E00F0
1E01F0
1FFFE0
1FFF80
1FFFC0
1E07F0
1E00F0
1E0078
1E0038
FFF838
FFF83C
FFF83C
1E0038
1E0078
1E0078
1E01F0
1FFFF0
1FFFC0
1FFF00
ENDCHAR
STARTCHAR 0244
ENCODING 580
SWIDTH 668 0
DWIDTH 26 0
BBX 25 29 0 -1
BITMAP
1E001E00
1E001E00
1E001E00
1E001E00
1E001E00
1E001E00
1E001E00
1E001E00
1E001E00
1E001E00
1E001E00
FFFFFF80
FFFFFF80
FFFFFF80
1E001E00
1E001E00
1E001E00
1E001E00
1E001E00
1E001E00
1E001C00
1E001C00
0E003C00
0F003C00
0780F800
07FFF000
03FFE000
00FFC000
00080000
ENDCHAR
STARTCHAR 0245
ENCODING 581
SWIDTH 617 0
DWIDTH 24 0
BBX 24 28 0 0
BITMAP
003C00
007E00
007E00
007E00
00FF00
00E700
00E700
01E780
01C380
01C380
03C3C0
0381C0
0381C0
0781E0
0700E0
0700E0
0F00F0
0E0070
0E0070
1E0078
1C0038
3C003C
3C003C
38001C
78001E
78001E
70000E
F0000F
ENDCHAR
STARTCHAR 0246
ENCODING 582
SWIDTH 565 0
DWIDTH 22 0
BBX 17 36 3 -4
BITMAP
000700
000700
000600
000E00
FFFF80
FFFF80
FFFF80
F01C00
F01C00
F03800
F03800
F03800
F07000
F07000
F07000
FFFF00
FFFF00
FFFF00
F0E000
F1C000
F1C000
F1C000
F38000
F38000
F38000
F70000
F70000
F70000
F60000
FFFF80
FFFF80
FFFF80
1C0000
1C0000
1C0000
380000
ENDCHAR
STARTCHAR 0247
ENCODING 583
SWIDTH 565 0
DWIDTH 22 0
BBX 18 29 2 -4
BITMAP
000E00
000E00
001C00
01FC00
0FFC00
1FFE00
3E3F00
383F80
787380
707380
F0E380
E0E3C0
FFFFC0
FFFFC0
FFFFC0
E1C000
E38000
F38000
F30000
770000
7F0000
3E0180
1F9F80
0FFF80
1FFF00
1C4000
1C0000
380000
380000
ENDCHAR
STARTCHAR 0248
ENCODING 584
SWIDTH 257 0
DWIDTH 10 0
BBX 12 36 -2 -8
BITMAP
0780
0780
0780
0780
0780
0780
0780
0780
0780
0780
0780
0780
0780
3FF0
3FF0
3FF0
0780
0780
0780
0780
0780
0780
0780
0780
0780
0780
0780
0780
0780
0780
0700
0F00
3F00
FE00
FC00
F000
ENDCHAR
STARTCHAR 0249
ENCODING 585
SWIDTH 257 0
DWIDTH 10 0
BBX 10 38 -1 -8
BITMAP
0E00
0E00
0E00
0E00
0E00
0000
0000
0000
0000
0E00
0E00
0E00
0E00
0E00
0E00
0E00
0E00
0E00
7FC0
7FC0
7FC0
0E00
0E00
0E00
0E00
0E00
0E00
0E00
0E00
0E00
0E00
0E00
0E00
0E00
1E00
FE00
FC00
F800
ENDCHAR
STARTCHAR 024A
ENCODING 586
SWIDTH 694 0
DWIDTH 27 0
BBX 27 37 2 -8
BITMAP
00FC0000
03FF1C00
0FFF9C00
1F87DC00
1E01DC00
3C00FC00
38007C00
78007C00
70003C00
70003C00
F0003C00
F0003C00
F0003C00
F0001C00
F0001C00
F0001C00
F0001C00
F0003C00
F0003C00
F0003C00
70003C00
78003C00
78007C00
3C00FC00
3C00FC00
1F03DC00
0FFF9C00
07FF1C00
03FE1C00
00201C00
00001C00
00001E00
00001E00
00000FC0
00000FE0
000007E0
000000E0
ENDCHAR
STARTCHAR 024B
ENCODING 587
SWIDTH 565 0
DWIDTH 22 0
BBX 21 30 2 -8
BITMAP
03C000
0FF380
1FFB80
3E3F80
780F80
700780
700780
F00780
E00380
E00380
E00380
E00380
E00380
E00380
E00380
F00780
700780
780F80
7C0F80
3E3F80
1FFB80
0FF380
010380
000380
000380
000380
0003C0
0001F8
0000F8
000078
ENDCHAR
STARTCHAR 024C
ENCODING 588
SWIDTH 617 0
DWIDTH 24 0
BBX 23 28 0 0
BITMAP
1FFF00
1FFFC0
1FFFE0
1E03E0
1E01F0
1E00F0
1E00F0
1E00F0
1E00F0
1E00F0
1E00F0
1E01E0
1E07E0
FFFFC0
FFFF00
FFFF80
1E07C0
1E01C0
1E01E0
1E00F0
1E00F0
1E0070
1E0078
1E0038
1E003C
1E001C
1E001E
1E001E
ENDCHAR
STARTCHAR 024D
ENCODING 589
SWIDTH 360 0
DWIDTH 14 0
BBX 14 22 0 0
BITMAP
003C
1CFC
1DFC
1DE4
1F00
1F00
1E00
1E00
1C00
1C00
FF80
FF80
FF80
1C00
1C00
1C00
1C00
1C00
1C00
1C00
1C00
1C00
ENDCHAR
STARTCHAR 024E
ENCODING 590
SWIDTH 540 0
DWIDTH 21 0
BBX 22 28 0 0
BITMAP
F00078
780070
3800F0
3C01E0
FFFFFC
FFFFFC
FFFFFC
070780
078F00
03CE00
01DE00
01FC00
00FC00
00F800
007000
007000
007000
007000
007000
007000
007000
007000
007000
007000
007000
007000
007000
007000
ENDCHAR
STARTCHAR 024F
ENCODING 591
SWIDTH 540 0
DWIDTH 21 0
BBX 21 29 0 -8
BITMAP
7800E0
3800E0
3801E0
3C01C0
1C01C0
1C03C0
0E0380
0E0380
FFFFF8
FFFFF8
FFFFF8
078E00
038E00
039E00
01DC00
01DC00
01FC00
00F800
00F800
00F800
007000
007000
00E000
00E000
01E000
01C000
1FC000
1F8000
1F0000
ENDCHAR
STARTCHAR 0250
ENCODING 592
SWIDTH 540 0
DWIDTH 21 0
BBX 16 23 3 -1
BITMAP
01F0
E7FC
EFFE
FE1E
F80F
F007
F007
F007
E007
E00F
E01E
FFFE
FFFC
FFF0
E000
E000
E000
7000
7806
3F7E
3FFE
0FFC
0080
ENDCHAR
STARTCHAR 0251
ENCODING 593
SWIDTH 565 0
DWIDTH 22 0
BBX 17 23 2 -1
BITMAP
03C000
0FF380
1FFB80
3E3F80
780F80
700780
700780
F00780
E00380
E00380
E00380
E00380
E00380
E00380
E00380
F00780
700780
780F80
7C0F80
3E3F80
1FFB80
0FF380
010000
ENDCHAR
STARTCHAR 0252
ENCODING 594
SWIDTH 565 0
DWIDTH 22 0
BBX 17 23 3 -1
BITMAP
01F000
E7FC00
EFFE00
EE1E00
F80F00
F80700
F00780
F00380
F00380
E00380
E00380
E00380
E00380
E00380
F00380
F00380
F00780
F80700
FC0F00
EF3E00
EFFC00
E3F800
004000
ENDCHAR
STARTCHAR 0253
ENCODING 595
SWIDTH 565 0
DWIDTH 22 0
BBX 17 31 3 -1
BITMAP
07C000
1FC000
3FC000
7C0000
700000
F00000
E00000
E00000
E1F000
E7FC00
EFFE00
EE1E00
F80F00
F80700
F00780
F00380
F00380
E00380
E00380
E00380
E00380
E00380
F00380
F00380
F00780
F80700
FC0F00
EF3E00
EFFC00
E3F800
004000
ENDCHAR
STARTCHAR 0254
ENCODING 596
SWIDTH 488 0
DWIDTH 19 0
BBX 15 23 2 -1
BITMAP
1F80
FFE0
FFF0
E0F8
803C
003C
001E
001E
000E
000E
000E
000E
000E
000E
000E
001E
001E
003C
807C
FBF8
FFF0
7FC0
0400
ENDCHAR
STARTCHAR 0255
ENCODING 597
SWIDTH 488 0
DWIDTH 19 0
BBX 15 25 2 -3
BITMAP
01F0
0FFE
1FFE
3E0E
3C00
7800
7000
F000
F000
E000
E000
E000
E000
E000
F060
F1FC
73FE
7F8E
3F0E
3FBE
1FFE
0FFC
0EE0
0E00
0E00
ENDCHAR
STARTCHAR 0256
ENCODING 598
SWIDTH 565 0
DWIDTH 22 0
BBX 21 38 2 -8
BITMAP
000380
000380
000380
000380
000380
000380
000380
000380
03C380
0FF380
1FFB80
3E3F80
780F80
700780
700780
F00780
E00380
E00380
E00380
E00380
E00380
E00380
E00380
F00780
700780
780F80
7C0F80
3E3F80
1FFB80
0FF380
010380
000380
000380
000380
0003C0
0001F8
0000F8
000078
ENDCHAR
STARTCHAR 0257
ENCODING 599
SWIDTH 617 0
DWIDTH 24 0
BBX 23 31 2 -1
BITMAP
00001E
0000FE
0001FE
0001E0
0003C0
000380
000380
000380
03C380
0FF380
1FFB80
3E3F80
780F80
700780
700780
F00780
E00380
E00380
E00380
E00380
E00380
E00380
E00380
F00780
700780
780F80
7C0F80
3E3F80
1FFB80
0FF380
010000
ENDCHAR
STARTCHAR 0258
ENCODING 600
SWIDTH 565 0
DWIDTH 22 0
BBX 18 23 2 -1
BITMAP
03E000
0FF800
1FFE00
3C3E00
780F00
700780
F00380
E00380
E00380
FFFFC0
FFFFC0
FFFFC0
0003C0
0003C0
000380
000380
000780
000700
400F00
7EFE00
7FFC00
3FF800
010000
ENDCHAR
STARTCHAR 0259
ENCODING 601
SWIDTH 565 0
DWIDTH 22 0
BBX 18 23 2 -1
BITMAP
07E000
7FF800
7FFC00
783E00
400F00
000780
000780
000380
0003C0
0003C0
0003C0
FFFFC0
FFFFC0
E003C0
E00380
E00380
F00780
700700
780F00
3F7E00
1FFC00
0FF800
008000
ENDCHAR
STARTCHAR 025A
ENCODING 602
SWIDTH 745 0
DWIDTH 29 0
BBX 27 23 2 -1
BITMAP
07E00000
7FF80000
7FFC1E00
783E3E00
400FFE00
0007FE00
0007CE00
000F8E00
003FCE00
00FBCF00
01F3C7E0
07C3C7E0
0F83C1E0
3E03C000
7C038000
F0038000
F0078000
70070000
780F0000
3F7E0000
1FFC0000
0FF80000
00800000
ENDCHAR
STARTCHAR 025B
ENCODING 603
SWIDTH 488 0
DWIDTH 19 0
BBX 15 23 2 -1
BITMAP
07F0
1FFC
3FFC
7C1C
7800
7000
7000
7000
3800
1FE0
07E0
3FE0
7C00
7000
F000
E000
E000
F000
7802
7F3E
3FFE
0FFE
0080
ENDCHAR
STARTCHAR 025C
ENCODING 604
SWIDTH 488 0
DWIDTH 19 0
BBX 15 22 2 -1
BITMAP
1FC0
7FF0
7FF8
707C
003C
001C
001C
001C
0038
0FF0
0FC0
0FF0
007C
001C
001C
001E
001E
001C
803C
F9FC
FFF8
FFE0
ENDCHAR
STARTCHAR 025D
ENCODING 605
SWIDTH 694 0
DWIDTH 27 0
BBX 25 22 2 -1
BITMAP
1FC00000
7FF00000
7FF83800
707CF800
003DF800
001FF800
001FB800
001E3800
00383C00
0FF01C00
0FC01F80
0FF00F80
007C0380
001C0000
001C0000
001E0000
001E0000
001C0000
803C0000
F9FC0000
FFF80000
FFE00000
ENDCHAR
STARTCHAR 025E
ENCODING 606
SWIDTH 591 0
DWIDTH 23 0
BBX 19 23 2 -1
BITMAP
01FC00
07FF00
1FFF80
3F07C0
3C01C0
7801C0
7001C0
F001C0
F003C0
E0FF80
E0FC00
E0FF80
E007C0
E001C0
F000E0
F000E0
7000E0
7801E0
3C03C0
3F8FC0
1FFF80
07FF00
002000
ENDCHAR
STARTCHAR 025F
ENCODING 607
SWIDTH 257 0
DWIDTH 10 0
BBX 10 29 -1 -8
BITMAP
0E00
0E00
0E00
0E00
0E00
0E00
0E00
0E00
0E00
7FC0
7FC0
7FC0
0E00
0E00
0E00
0E00
0E00
0E00
0E00
0E00
0E00
0E00
0E00
0E00
0E00
1E00
FE00
FC00
F800
ENDCHAR
STARTCHAR 0260
ENCODING 608
SWIDTH 617 0
DWIDTH 24 0
BBX 23 38 2 -8
BITMAP
00001E
0000FE
0001FE
0001E0
0003C0
000380
000380
000380
03C380
0FF380
1FFB80
3E3F80
780F80
700780
F00780
F00380
E00380
E00380
E00380
E00380
E00380
E00380
F00380
F00780
700780
780F80
3C1F80
3FFB80
1FF380
07E380
000380
000780
000700
000F00
301F00
3FFE00
3FFC00
0FF000
ENDCHAR
STARTCHAR 0261
ENCODING 609
SWIDTH 565 0
DWIDTH 22 0
BBX 17 29 2 -8
BITMAP
0FFF80
1FFF80
3FFF80
780380
780380
700380
F00380
E00380
E00380
E00380
E00380
E00380
E00380
F00380
F00780
700780
780F80
3C1F80
3FFB80
1FF380
07E380
000380
000780
000700
000F00
301F00
3FFE00
3FFC00
0FF000
ENDCHAR
STARTCHAR 0262
ENCODING 610
SWIDTH 565 0
DWIDTH 22 0
BBX 17 23 2 -1
BITMAP
01F000
0FFE00
1FFF00
3E0F00
3C0100
780000
700000
F00000
F00000
E00000
E00000
E01F80
E01F80
E01F80
F00380
F00380
700380
780380
3C0380
3F9F80
1FFF80
07FF00
004000
ENDCHAR
STARTCHAR 0263
ENCODING 611
SWIDTH 540 0
DWIDTH 21 0
BBX 17 29 2 -8
BITMAP
E00380
700700
700700
780E00
380E00
3C1E00
1C1C00
1E3C00
0E3800
0E7800
077000
077000
03E000
03E000
01C000
01C000
03E000
07E000
077000
0F7000
0E3800
0E3800
1E3800
1C1C00
1C1C00
1E3800
0FF800
0FF800
07F000
ENDCHAR
STARTCHAR 0264
ENCODING 612
SWIDTH 540 0
DWIDTH 21 0
BBX 17 22 2 -1
BITMAP
F00780
780F00
380E00
3C1E00
1E3C00
0E3800
0F7800
07F000
03E000
03E000
03E000
07E000
07F000
0F7800
0E3800
1E3800
1C1C00
1C3C00
0F7800
0FF800
07F000
008000
ENDCHAR
STARTCHAR 0265
ENCODING 613
SWIDTH 565 0
DWIDTH 22 0
BBX 16 29 3 -8
BITMAP
E007
E007
E007
E007
E007
E007
E007
E007
E007
E007
E007
E007
E007
E007
E007
E00F
F00F
781F
7FF7
3FF7
1FC7
0207
0007
0007
0007
0007
0007
0007
0007
ENDCHAR
STARTCHAR 0266
ENCODING 614
SWIDTH 565 0
DWIDTH 22 0
BBX 16 30 3 0
BITMAP
07C0
3FC0
7FC0
7800
7000
F000
E000
E000
E1F0
E7FC
EFFE
EE3E
F80F
F00F
F007
F007
E007
E007
E007
E007
E007
E007
E007
E007
E007
E007
E007
E007
E007
E007
ENDCHAR
STARTCHAR 0267
ENCODING 615
SWIDTH 565 0
DWIDTH 22 0
BBX 16 38 3 -8
BITMAP
07C0
3FC0
7FC0
7800
7000
F000
E000
E000
E1F0
E7FC
EFFE
EE3E
F80F
F00F
F007
F007
E007
E007
E007
E007
E007
E007
E007
E007
E007
E007
E007
E007
E007
E007
0007
0007
0007
0007
000F
03FE
03FE
03F8
ENDCHAR
STARTCHAR 0268
ENCODING 616
SWIDTH 257 0
DWIDTH 10 0
BBX 9 30 0 0
BITMAP
1C00
1C00
1C00
1C00
1C00
0000
0000
0000
0000
1C00
1C00
1C00
1C00
1C00
1C00
1C00
1C00
1C00
FF80
FF80
FF80
1C00
1C00
1C00
1C00
1C00
1C00
1C00
1C00
1C00
ENDCHAR
STARTCHAR 0269
ENCODING 617
SWIDTH 308 0
DWIDTH 12 0
BBX 8 21 3 0
BITMAP
E0
E0
E0
E0
E0
E0
E0
E0
E0
E0
E0
E0
E0
E0
E0
E0
E0
F0
7F
3F
1F
ENDCHAR
STARTCHAR 026A
ENCODING 618
SWIDTH 334 0
DWIDTH 13 0
BBX 9 21 2 0
BITMAP
FF80
FF80
FF80
1C00
1C00
1C00
1C00
1C00
1C00
1C00
1C00
1C00
1C00
1C00
1C00
1C00
1C00
1C00
FF80
FF80
FF80
ENDCHAR
STARTCHAR 026B
ENCODING 619
SWIDTH 360 0
DWIDTH 14 0
BBX 12 30 1 0
BITMAP
0F00
0F00
0F00
0F00
0F00
0F00
0F00
0F00
0F00
0F00
0F00
0F00
0F00
3F70
7F60
6FE0
EFE0
CFC0
0F00
0F00
0F00
0F00
0F00
0F00
0F00
0F00
0F00
0F00
0F00
0F00
ENDCHAR
STARTCHAR 026C
ENCODING 620
SWIDTH 437 0
DWIDTH 17 0
BBX 14 30 1 0
BITMAP
0380
0380
0380
0380
0380
0380
0380
0380
0380
0380
3F80
7F80
7F80
E780
E380
FFFC
7FFC
3FFC
0380
0380
0380
0380
0380
0380
0380
0380
0380
0380
0380
0380
ENDCHAR
STARTCHAR 026D
ENCODING 621
SWIDTH 257 0
DWIDTH 10 0
BBX 7 38 3 -8
BITMAP
E0
E0
E0
E0
E0
E0
E0
E0
E0
E0
E0
E0
E0
E0
E0
E0
E0
E0
E0
E0
E0
E0
E0
E0
E0
E0
E0
E0
E0
E0
E0
E0
F0
70
70
7E
3E
1E
ENDCHAR
STARTCHAR 026E
ENCODING 622
SWIDTH 642 0
DWIDTH 25 0
BBX 20 38 3 -8
BITMAP
E00000
E00000
E00000
E00000
E00000
E00000
E00000
E00000
E00000
FFFFC0
FFFFC0
E001C0
E003C0
E00780
E00F00
E00F00
E01E00
E03C00
E07800
E07000
E0F000
E1FC00
E1FF00
E1FF80
E007C0
E001E0
E000E0
E000F0
E000F0
E000F0
0000F0
0000F0
0000E0
1001E0
1C07E0
1FFFC0
1FFF80
07FE00
ENDCHAR
STARTCHAR 026F
ENCODING 623
SWIDTH 874 0
DWIDTH 34 0
BBX 28 21 3 -1
BITMAP
E0070070
E0070070
E0070070
E0070070
E0070070
E0070070
E0070070
E0070070
E0070070
E0070070
E0070070
E0070070
E0070070
E00F0070
E00F0070
F00F00F0
701F00F0
783F81F0
7FF3FFF0
3FE3FF70
1FC0FE70
ENDCHAR
STARTCHAR 0270
ENCODING 624
SWIDTH 874 0
DWIDTH 34 0
BBX 28 29 3 -8
BITMAP
E0070070
E0070070
E0070070
E0070070
E0070070
E0070070
E0070070
E0070070
E0070070
E0070070
E0070070
E0070070
E0070070
E00F0070
E00F0070
F00F00F0
701F00F0
783F81F0
7FF3FFF0
3FE3FF70
1FC0FE70
00000070
00000070
00000070
00000070
00000070
00000070
00000070
00000070
ENDCHAR
STARTCHAR 0271
ENCODING 625
SWIDTH 874 0
DWIDTH 34 0
BBX 28 30 3 -8
BITMAP
01F00F00
E7F83FC0
EFFC7FE0
EE3EF3E0
F80FC0F0
F00F80F0
F00F0070
F00F0070
E0070070
E0070070
E0070070
E0070070
E0070070
E0070070
E0070070
E0070070
E0070070
E0070070
E0070070
E0070070
E0070070
E0070070
00000070
00000070
00000070
00000070
000000F0
00003FE0
00003FE0
00003F80
ENDCHAR
STARTCHAR 0272
ENCODING 626
SWIDTH 591 0
DWIDTH 23 0
BBX 20 30 -1 -8
BITMAP
000F00
0E3FC0
0E7FE0
0EF3E0
0F80F0
0F8070
0F0070
0F0070
0F0070
0E0070
0E0070
0E0070
0E0070
0E0070
0E0070
0E0070
0E0070
0E0070
0E0070
0E0070
0E0070
0E0070
0E0000
0E0000
0E0000
0E0000
1E0000
FE0000
FC0000
F80000
ENDCHAR
STARTCHAR 0273
ENCODING 627
SWIDTH 591 0
DWIDTH 23 0
BBX 20 30 3 -8
BITMAP
01F000
E7FC00
EFFE00
EE3E00
F80F00
F00F00
F00700
F00700
E00700
E00700
E00700
E00700
E00700
E00700
E00700
E00700
E00700
E00700
E00700
E00700
E00700
E00700
000700
000700
000700
000780
000380
0003F0
0001F0
0000F0
ENDCHAR
STARTCHAR 0274
ENCODING 628
SWIDTH 565 0
DWIDTH 22 0
BBX 16 21 3 0
BITMAP
F807
FC07
FC07
FE07
EE07
EF07
E707
E707
E787
E387
E3C7
E1C7
E1E7
E0E7
E0F7
E077
E07F
E03F
E03F
E01F
E01F
ENDCHAR
STARTCHAR 0275
ENCODING 629
SWIDTH 540 0
DWIDTH 21 0
BBX 18 23 2 -1
BITMAP
03E000
0FF800
1FFE00
3E3E00
780F00
780780
700780
F00380
E00380
FFFF80
FFFFC0
FFFFC0
E003C0
E00380
F00380
F00380
700780
780700
3C0F00
3F7E00
1FFC00
0FF800
008000
ENDCHAR
STARTCHAR 0276
ENCODING 630
SWIDTH 771 0
DWIDTH 30 0
BBX 25 21 2 0
BITMAP
03FFFF80
0FFFFF80
1F0FFF80
3C0E0000
780E0000
700E0000
F00E0000
E00E0000
E00FFF00
E00FFF00
E00FFF00
E00E0000
E00E0000
E00E0000
F00E0000
700E0000
780E0000
3C0E0000
1FCFFF80
0FFFFF80
01FFFF80
ENDCHAR
STARTCHAR 0277
ENCODING 631
SWIDTH 668 0
DWIDTH 26 0
BBX 20 23 3 -1
BITMAP
01F800
07FE00
1FFF00
3E0F80
3C03C0
7801C0
7001E0
F000E0
F000E0
E0E0F0
E0E070
E0E070
E0E070
E0E070
E0E070
E0F070
E0F070
E0F0F0
F1F0E0
7BBDE0
7F9FC0
3F0F80
0C0300
ENDCHAR
STARTCHAR 0278
ENCODING 632
SWIDTH 591 0
DWIDTH 23 0
BBX 19 38 2 -8
BITMAP
00E000
00E000
00E000
00E000
00E000
00E000
00E000
00E000
03F800
0FFE00
1FFF00
3EEF80
78E3C0
78E3C0
70E1C0
F0E1E0
E0E0E0
E0E0E0
E0E0E0
E0E0E0
E0E0E0
E0E0E0
F0E1E0
F0E1E0
70E1C0
78E3C0
3CE7C0
3FFF80
1FFF00
0FFE00
00E000
00E000
00E000
00E000
00E000
00E000
00E000
00E000
ENDCHAR
STARTCHAR 0279
ENCODING 633
SWIDTH 385 0
DWIDTH 15 0
BBX 11 22 0 -1
BITMAP
00E0
00E0
00E0
00E0
00E0
00E0
00E0
00E0
00E0
00E0
00E0
00E0
00E0
00E0
00E0
01E0
01E0
03E0
FFE0
FEE0
FCE0
4000
ENDCHAR
STARTCHAR 027A
ENCODING 634
SWIDTH 385 0
DWIDTH 15 0
BBX 11 30 0 -1
BITMAP
00E0
00E0
00E0
00E0
00E0
00E0
00E0
00E0
00E0
00E0
00E0
00E0
00E0
00E0
00E0
00E0
00E0
00E0
00E0
00E0
00E0
00E0
00E0
01E0
01E0
03E0
FFE0
FEE0
FCE0
4000
ENDCHAR
STARTCHAR 027B
ENCODING 635
SWIDTH 385 0
DWIDTH 15 0
BBX 15 29 0 -8
BITMAP
00E0
00E0
00E0
00E0
00E0
00E0
00E0
00E0
00E0
00E0
00E0
00E0
00E0
00E0
00E0
01E0
01E0
03E0
FFE0
FEE0
FCE0
40E0
00E0
00E0
00F0
0070
007E
003E
001E
ENDCHAR
STARTCHAR 027C
ENCODING 636
SWIDTH 360 0
DWIDTH 14 0
BBX 11 30 3 -8
BITMAP
01E0
E7E0
EFE0
EF20
F800
F800
F000
F000
F000
E000
E000
E000
E000
E000
E000
E000
E000
E000
E000
E000
E000
E000
E000
E000
E000
E000
E000
E000
E000
E000
ENDCHAR
STARTCHAR 027D
ENCODING 637
SWIDTH 360 0
DWIDTH 14 0
BBX 11 30 3 -8
BITMAP
01E0
E7E0
EFE0
EF20
F800
F800
F000
F000
F000
E000
E000
E000
E000
E000
E000
E000
E000
E000
E000
E000
E000
E000
E000
E000
E000
F000
7000
7FC0
3FC0
1FC0
ENDCHAR
STARTCHAR 027E
ENCODING 638
SWIDTH 488 0
DWIDTH 19 0
BBX 13 22 2 0
BITMAP
01F8
07F8
0FF8
0F00
1E00
1C00
1C00
1C00
1C00
1C00
1C00
1C00
1C00
1C00
1C00
1C00
1C00
1C00
1C00
FF80
FF80
FF80
ENDCHAR
STARTCHAR 027F
ENCODING 639
SWIDTH 488 0
DWIDTH 19 0
BBX 13 22 2 0
BITMAP
FC00
FF00
FF80
03C0
01C0
01C0
01C0
01C0
01C0
01C0
01C0
01C0
01C0
01C0
01C0
01C0
01C0
01C0
01C0
0FF8
0FF8
0FF8
ENDCHAR
STARTCHAR 0280
ENCODING 640
SWIDTH 540 0
DWIDTH 21 0
BBX 17 21 3 0
BITMAP
FFE000
FFF800
FFF800
E03C00
E01C00
E01C00
E01C00
E01C00
E07C00
FFF800
FFF000
FFE000
E07000
E03800
E03C00
E01C00
E00E00
E00E00
E00700
E00700
E00380
ENDCHAR
STARTCHAR 0281
ENCODING 641
SWIDTH 540 0
DWIDTH 21 0
BBX 17 21 3 0
BITMAP
E00780
E00700
E00F00
E00E00
E01E00
E01C00
E03C00
E07800
E0F000
FFE000
FFF000
FFF800
E03C00
E01C00
E01C00
E01C00
E03C00
E07C00
FFF800
FFF000
FFC000
ENDCHAR
STARTCHAR 0282
ENCODING 642
SWIDTH 462 0
DWIDTH 18 0
BBX 15 30 2 -8
BITMAP
07E0
3FFC
7FFC
781C
F004
E000
E000
E000
F000
7E00
7FE0
1FF8
03FC
007C
001C
001E
001E
001C
C03C
F8FC
FFF8
FFE0
E200
E000
E000
E000
F000
7FC0
7FC0
1FC0
ENDCHAR
STARTCHAR 0283
ENCODING 643
SWIDTH 308 0
DWIDTH 12 0
BBX 13 38 -1 -8
BITMAP
0038
03F8
07F8
0780
0700
0F00
0E00
0E00
0E00
0E00
0E00
0E00
0E00
0E00
0E00
0E00
0E00
0E00
0E00
0E00
0E00
0E00
0E00
0E00
0E00
0E00
0E00
0E00
0E00
0E00
0E00
0E00
0E00
0E00
1E00
FE00
FC00
F800
ENDCHAR
STARTCHAR 0284
ENCODING 644
SWIDTH 308 0
DWIDTH 12 0
BBX 13 38 -1 -8
BITMAP
0038
03F8
07F8
0780
0700
0F00
0E00
0E00
0E00
7E00
7E00
0E00
0E00
0E00
0E00
0E00
0E00
0E00
7FC0
7FC0
7FC0
0E00
0E00
0E00
0E00
0E00
0E00
0E00
0E00
0E00
0E00
0E00
0E00
0E00
1E00
FE00
FC00
F800
ENDCHAR
STARTCHAR 0285
ENCODING 645
SWIDTH 411 0
DWIDTH 16 0
BBX 13 29 1 -8
BITMAP
FE00
FF00
1F00
0780
0380
0380
0380
0380
0380
0380
0380
0380
0380
0380
0380
0380
0380
0380
0380
0380
0380
0380
0380
0380
0380
03C0
01F8
00F8
0078
ENDCHAR
STARTCHAR 0286
ENCODING 646
SWIDTH 308 0
DWIDTH 12 0
BBX 17 38 -5 -8
BITMAP
000380
003F80
007F80
007800
007000
00F000
00E000
00E000
00E000
00E000
00E000
00E000
00E000
00E000
00E000
00E000
00E000
00E000
00E000
00E000
00E000
00E000
00E000
00E000
00E000
00E000
00E000
00E000
00E000
00E000
3FFE00
7FFE00
7FFE00
E0E000
E1E000
7FE000
7FC000
3F8000
ENDCHAR
STARTCHAR 0287
ENCODING 647
SWIDTH 360 0
DWIDTH 14 0
BBX 12 27 1 -6
BITMAP
FE00
FF00
FF80
0380
0380
03C0
03C0
03C0
03C0
03C0
03C0
03C0
03C0
03C0
03C0
03C0
03C0
03C0
FFF0
FFF0
FFF0
03C0
03C0
03C0
03C0
03C0
03C0
ENDCHAR
STARTCHAR 0288
ENCODING 648
SWIDTH 360 0
DWIDTH 14 0
BBX 12 35 1 -8
BITMAP
3800
3800
3800
3800
3800
3800
FFF0
FFF0
3800
3800
3800
3800
3800
3800
3800
3800
3800
3800
3800
3800
3800
3800
3800
3800
3800
3800
3800
3800
3800
3C00
3C00
1C00
1FF0
0FF0
07F0
ENDCHAR
STARTCHAR 0289
ENCODING 649
SWIDTH 565 0
DWIDTH 22 0
BBX 22 22 0 -1
BITMAP
1C00E0
1C00E0
1C00E0
1C00E0
1C00E0
1C00E0
1C00E0
1C00E0
1C00E0
FFFFFC
FFFFFC
FFFFFC
1C00E0
1C00E0
1C00E0
1C01E0
1E01E0
0F03E0
0FFEE0
07FEE0
03F8E0
004000
ENDCHAR
STARTCHAR 028A
ENCODING 650
SWIDTH 565 0
DWIDTH 22 0
BBX 18 22 2 -1
BITMAP
FF3FC0
FF3FC0
FF3FC0
1F3E00
3E1E00
3C0F00
780780
700780
F00380
F00380
F003C0
E003C0
E003C0
F00380
F00380
700380
780780
3C0F00
3FFE00
1FFC00
07F800
00C000
ENDCHAR
STARTCHAR 028B
ENCODING 651
SWIDTH 540 0
DWIDTH 21 0
BBX 16 21 3 0
BITMAP
E060
E078
E07C
E03E
E01E
E00E
E00F
E007
E007
E007
E007
E007
E007
E007
E00F
F00E
701E
783C
7FF8
3FF0
1FC0
ENDCHAR
STARTCHAR 028C
ENCODING 652
SWIDTH 540 0
DWIDTH 21 0
BBX 19 21 1 0
BITMAP
01F000
01F000
03F000
03B800
03B800
07BC00
071C00
071C00
0F1E00
0E0E00
0E0E00
1E0F00
1C0700
1C0700
3C0780
380380
380380
7803C0
7001C0
7001C0
F001E0
ENDCHAR
STARTCHAR 028D
ENCODING 653
SWIDTH 745 0
DWIDTH 29 0
BBX 25 21 2 0
BITMAP
0F00F000
0F80F800
0F80F800
0F80F800
1F81F800
1DC1FC00
1DC1DC00
1DC19C00
3CC39C00
38E39E00
38E38E00
38E30E00
78E70E00
70670E00
70770700
70770700
707E0700
E03E0700
E03E0780
E03E0380
E03C0380
ENDCHAR
STARTCHAR 028E
ENCODING 654
SWIDTH 540 0
DWIDTH 21 0
BBX 19 30 1 0
BITMAP
000380
001F80
003F80
003C00
007800
007000
00F000
00E000
00E000
01E000
01E000
01F000
03F000
03F800
03B800
07B800
071C00
071C00
0F1C00
0E0E00
1E0E00
1C0F00
1C0700
3C0700
380780
380380
780380
7003C0
7001C0
F001E0
ENDCHAR
STARTCHAR 028F
ENCODING 655
SWIDTH 540 0
DWIDTH 21 0
BBX 17 21 2 0
BITMAP
F00780
780700
780F00
3C1E00
1C1C00
1E3C00
0E3800
0F7800
07F000
03E000
03E000
01C000
01C000
01C000
01C000
01C000
01C000
01C000
01C000
01C000
01C000
ENDCHAR
STARTCHAR 0290
ENCODING 656
SWIDTH 462 0
DWIDTH 18 0
BBX 20 29 1 -8
BITMAP
7FFF00
7FFF00
000F00
000E00
001E00
003C00
007800
00F000
00F000
01E000
03C000
078000
070000
0F0000
1E0000
3C0000
780000
780000
FFFF00
FFFF00
FFFF00
000700
000700
000700
000700
000780
0003F0
0003F0
0000F0
ENDCHAR
STARTCHAR 0291
ENCODING 657
SWIDTH 462 0
DWIDTH 18 0
BBX 16 23 1 -2
BITMAP
7FFF
7FFF
000F
000E
001E
003C
0078
00F0
00F0
01E0
03C0
0780
0700
0F7C
1EFE
3CFF
79C7
79C7
FFFF
FFFE
FFFC
0180
0180
ENDCHAR
STARTCHAR 0292
ENCODING 658
SWIDTH 514 0
DWIDTH 20 0
BBX 17 29 1 -8
BITMAP
7FFF00
7FFF00
000F00
001E00
001E00
003C00
007800
00F000
00F000
01E000
03C000
078000
07F000
07FC00
07FE00
003F00
000F00
000780
000380
000380
000380
000380
000380
000780
800F80
E01F00
FFFE00
FFFC00
3FF000
ENDCHAR
STARTCHAR 0293
ENCODING 659
SWIDTH 514 0
DWIDTH 20 0
BBX 17 29 2 -8
BITMAP
FFFE00
FFFE00
001E00
003C00
003C00
007800
00F000
01E000
01E000
03C000
078000
0F0000
0FE000
0FF800
0FFC00
007E00
001E00
000F00
000700
000700
000700
1FC700
3FFF00
7FFF00
701F00
703F80
7FFF80
7FFB80
3FE180
ENDCHAR
STARTCHAR 0294
ENCODING 660
SWIDTH 462 0
DWIDTH 18 0
BBX 15 30 1 0
BITMAP
0600
7FE0
FFF0
F9F8
803C
001C
001E
001E
000E
000E
000E
001E
001C
003C
00F8
07F0
07E0
0780
0700
0700
0700
0700
0700
0700
0700
0700
0700
0700
0700
0700
ENDCHAR
STARTCHAR 0295
ENCODING 661
SWIDTH 462 0
DWIDTH 18 0
BBX 15 30 1 0
BITMAP
00C0
07FC
1FFE
3F3E
3C02
7800
7000
7000
F000
F000
7000
7000
7800
7C00
3F00
1FE0
0FE0
01E0
01E0
01E0
01E0
01E0
01E0
01E0
01E0
01E0
01E0
01E0
01E0
01E0
ENDCHAR
STARTCHAR 0296
ENCODING 662
SWIDTH 462 0
DWIDTH 18 0
BBX 15 30 1 0
BITMAP
0700
0700
0700
0700
0700
0700
0700
0700
0700
0700
0700
0700
0700
07C0
07F0
07F8
007C
003C
001E
001E
000E
000E
000E
001E
001C
803C
E07C
FFF8
FFF0
1F80
ENDCHAR
STARTCHAR 0297
ENCODING 663
SWIDTH 462 0
DWIDTH 18 0
BBX 15 38 1 -8
BITMAP
00C0
07FE
1FFE
3F1E
3C02
7800
7000
7000
F000
F000
F000
F000
F000
F000
F000
F000
F000
F000
F000
F000
F000
F000
F000
F000
F000
F000
F000
F000
F000
F000
7000
7000
7000
7800
3C06
1FFE
0FFE
07FC
ENDCHAR
STARTCHAR 0298
ENCODING 664
SWIDTH 720 0
DWIDTH 28 0
BBX 24 30 2 -1
BITMAP
007E00
03FFC0
07FFE0
0FC3F0
1F00F8
3C0078
3C003C
78003C
78001E
70001E
F0000E
F0000E
F0000F
F0380F
F03C0F
F03C0F
F0180F
F0000F
F0000E
F0001E
70001E
78001E
78003C
3C003C
3E0078
1F01F0
0FFFF0
07FFC0
01FF80
001000
ENDCHAR
STARTCHAR 0299
ENCODING 665
SWIDTH 514 0
DWIDTH 20 0
BBX 16 21 3 0
BITMAP
FFF0
FFF8
E0FC
E01E
E01E
E00E
E01E
E03C
FFF8
FFE0
FFF8
E03C
E00E
E00E
E00F
E00F
E00E
E01E
FFFE
FFFC
FFF0
ENDCHAR
STARTCHAR 029A
ENCODING 666
SWIDTH 591 0
DWIDTH 23 0
BBX 19 23 2 -1
BITMAP
07E000
1FFC00
7FFF00
7C1F80
700780
F003C0
F001C0
7001C0
7801E0
3FE1E0
0FE0E0
3FE0E0
7800E0
F001E0
E001E0
E001C0
E001C0
E003C0
F00780
7E3F00
3FFE00
1FFC00
008000
ENDCHAR
STARTCHAR 029B
ENCODING 667
SWIDTH 642 0
DWIDTH 25 0
BBX 23 31 2 -1
BITMAP
00003E
0001FE
0003FE
0003C0
000380
000780
000700
000700
01F700
0FFF00
1FFF00
3E0F00
3C0100
780000
700000
F00000
F00000
E00000
E00000
E01F80
E01F80
E01F80
F00380
F00380
700380
780380
3C0380
3F9F80
1FFF80
07FF00
004000
ENDCHAR
STARTCHAR 029C
ENCODING 668
SWIDTH 591 0
DWIDTH 23 0
BBX 17 21 3 0
BITMAP
E00380
E00380
E00380
E00380
E00380
E00380
E00380
E00380
FFFF80
FFFF80
FFFF80
E00380
E00380
E00380
E00380
E00380
E00380
E00380
E00380
E00380
E00380
ENDCHAR
STARTCHAR 029D
ENCODING 669
SWIDTH 257 0
DWIDTH 10 0
BBX 15 38 -5 -8
BITMAP
00E0
00E0
00E0
00E0
00E0
0000
0000
0000
0000
00E0
00E0
00E0
00E0
00E0
00E0
00E0
00E0
00E0
00E0
00E0
00E0
00E0
00E0
00E0
00E0
00E0
00E0
00E0
00E0
00E0
3FFE
7FFE
7FFE
E0E0
E1E0
7FE0
7FC0
3F80
ENDCHAR
STARTCHAR 029E
ENCODING 670
SWIDTH 591 0
DWIDTH 23 0
BBX 16 29 4 -8
BITMAP
F007
7807
3C07
1E07
0F07
0787
03C7
03E7
01F7
00FF
007F
007F
00F7
01E7
03C7
0787
0F07
1E07
3C07
7807
F007
0007
0007
0007
0007
0007
0007
0007
0007
ENDCHAR
STARTCHAR 029F
ENCODING 671
SWIDTH 462 0
DWIDTH 18 0
BBX 14 21 3 0
BITMAP
E000
E000
E000
E000
E000
E000
E000
E000
E000
E000
E000
E000
E000
E000
E000
E000
E000
E000
FFFC
FFFC
FFFC
ENDCHAR
STARTCHAR 02A0
ENCODING 672
SWIDTH 668 0
DWIDTH 26 0
BBX 24 38 2 -8
BITMAP
00001F
0000FF
0001FF
0001E0
0003C0
000380
000380
000380
03C380
0FF380
1FFB80
3E3F80
780F80
700780
700780
F00780
E00380
E00380
E00380
E00380
E00380
E00380
E00380
F00780
700780
780F80
7C0F80
3E3F80
1FFB80
0FF380
010380
000380
000380
000380
000380
000380
000380
000380
ENDCHAR
STARTCHAR 02A1
ENCODING 673
SWIDTH 462 0
DWIDTH 18 0
BBX 15 30 1 0
BITMAP
0600
7FE0
FFF0
F9F8
803C
001C
001E
001E
000E
000E
000E
001E
001C
003C
00F8
07F0
07E0
0780
0700
0700
0700
0700
7FF0
7FF0
7FF0
0700
0700
0700
0700
0700
ENDCHAR
STARTCHAR 02A2
ENCODING 674
SWIDTH 462 0
DWIDTH 18 0
BBX 15 30 1 0
BITMAP
00C0
07FC
1FFE
3F3E
3C02
7800
7000
7000
F000
F000
7000
7000
7800
7C00
3F00
1FE0
0FE0
01E0
01E0
01E0
01E0
01E0
1FFE
1FFE
1FFE
01E0
01E0
01E0
01E0
01E0
ENDCHAR
STARTCHAR 02A3
ENCODING 675
SWIDTH 925 0
DWIDTH 36 0
BBX 32 31 2 -1
BITMAP
00038000
00038000
00038000
00038000
00038000
00038000
00038000
00038000
03C38000
0FF3FFFF
1FFBFFFF
3E3F800F
780F800F
7007801E
7007803C
F0078078
E0038070
E00380F0
E00381E0
E00383C0
E0038380
E0038780
E0038F00
F0079E00
7007BC00
780FBC00
7C0FF800
3F3FFFFF
1FFBFFFF
0FF3FFFF
01000000
ENDCHAR
STARTCHAR 02A4
ENCODING 676
SWIDTH 951 0
DWIDTH 37 0
BBX 34 38 2 -8
BITMAP
0003800000
0003800000
0003800000
0003800000
0003800000
0003800000
0003800000
0003800000
03C3800000
0FF3FFFF00
1FFBFFFF00
3E3F800F00
780F800F00
7007801E00
7007803C00
F007807800
E003807000
E00380F000
E00381E000
E00383C000
E003838000
E00387F000
E00387FC00
F00787FE00
7007801F00
780F800F80
7C0F800780
3F3F800380
1FFB8003C0
0FF38003C0
01000003C0
0000000380
0000000780
0000000780
0000701F00
00007FFE00
00007FFC00
00003FF000
ENDCHAR
STARTCHAR 02A5
ENCODING 677
SWIDTH 925 0
DWIDTH 36 0
BBX 32 32 2 -2
BITMAP
00038000
00038000
00038000
00038000
00038000
00038000
00038000
00038000
03C38000
0FF3FFFF
1FFBFFFF
3E3F800F
780F800F
7007801E
7007803C
F0078078
E0038070
E00380F0
E00381E0
E00383C0
E0038780
E0038780
E0038F7C
F0079E7E
7007BCFF
780FBCC7
7C0FF9C7
3F3FFFFF
1FFBFFFE
0FF3FFFC
01000180
00000180
ENDCHAR
STARTCHAR 02A6
ENCODING 678
SWIDTH 745 0
DWIDTH 29 0
BBX 26 27 1 0
BITMAP
38000000
38000000
38000000
38000000
38000000
38007E00
FFF3FF80
FFF7FF80
380F8180
380E0000
380E0000
380E0000
380E0000
380F0000
3807E000
3807FE00
3801FF00
38003F80
380007C0
380001C0
380001C0
380001C0
3C0001C0
1C0007C0
1FFFFF80
0FFFFF80
07FFFE00
ENDCHAR
STARTCHAR 02A7
ENCODING 679
SWIDTH 540 0
DWIDTH 21 0
BBX 21 38 1 -8
BITMAP
000078
0003F8
0007F8
380F80
380E00
380E00
380E00
380E00
380E00
FFFE00
FFFE00
380E00
380E00
380E00
380E00
380E00
380E00
380E00
380E00
380E00
380E00
380E00
380E00
380E00
380E00
3C0E00
1C0E00
1FFE00
0FFE00
07FE00
000E00
000E00
000E00
000E00
001E00
00FC00
00FC00
00F000
ENDCHAR
STARTCHAR 02A8
ENCODING 680
SWIDTH 694 0
DWIDTH 27 0
BBX 24 30 1 -3
BITMAP
380000
380000
380000
380000
380000
3800FC
FFF3FF
FFFFFF
381F87
381E00
383C00
383800
383800
387800
387800
387800
387800
387800
387800
387830
3838FE
383DFF
3C3FC7
1C1F87
1FFFEF
0FFFFF
07FFFE
000738
000700
000700
ENDCHAR
STARTCHAR 02A9
ENCODING 681
SWIDTH 771 0
DWIDTH 30 0
BBX 27 38 1 -8
BITMAP
00F00000
07F00000
0FF00000
1F000000
1C000000
1C000000
1C000000
1C000000
1C003E00
FFFCFF80
FFFDFFC0
1C1DC7C0
1C1F01E0
1C1E01E0
1C1E00E0
1C1E00E0
1C1C00E0
1C1C00E0
1C1C00E0
1C1C00E0
1C1C00E0
1C1C00E0
1C1C00E0
1C1C00E0
1C1C00E0
1C1C00E0
1C1C00E0
1C1C00E0
1C1C00E0
1C1C00E0
000000E0
000000E0
000000E0
000000E0
000001E0
00007FC0
00007FC0
00007F00
ENDCHAR
STARTCHAR 02AA
ENCODING 682
SWIDTH 642 0
DWIDTH 25 0
BBX 20 30 3 0
BITMAP
E00000
E00000
E00000
E00000
E00000
E00000
E00000
E00000
E03F00
E0FFE0
E1FFE0
E3E0E0
E38000
E38000
E38000
E38000
E3C000
E3F800
E1FF00
E0FFC0
E01FE0
E001F0
E000F0
E00070
E00070
E000F0
E001F0
FFFFE0
FFFFC0
FFFF80
ENDCHAR
STARTCHAR 02AB
ENCODING 683
SWIDTH 591 0
DWIDTH 23 0
BBX 18 30 3 0
BITMAP
E00000
E00000
E00000
E00000
E00000
E00000
E00000
E00000
E00000
FFFFC0
FFFFC0
E001C0
E003C0
E00780
E00700
E00F00
E01E00
E03C00
E07800
E07800
E0F000
E1E000
E3C000
E38000
E78000
EF0000
FE0000
FFFFC0
FFFFC0
FFFFC0
ENDCHAR
STARTCHAR 02AC
ENCODING 684
SWIDTH 462 0
DWIDTH 18 0
BBX 16 26 1 -1
BITMAP
C183
C3C3
63C7
63C6
6246
6666
366C
366C
342C
3C3C
1C38
1C18
0000
0000
C183
C3C3
63C6
6346
6266
6666
366C
362C
343C
1C3C
1C38
1818
ENDCHAR
STARTCHAR 02AD
ENCODING 685
SWIDTH 462 0
DWIDTH 18 0
BBX 16 22 1 3
BITMAP
FFFF
FFFF
FFFF
C003
C003
C003
C003
C003
0000
0000
0000
0000
0000
0000
FFFF
FFFF
FFFF
C003
C003
C003
C003
C003
ENDCHAR
STARTCHAR 02AE
ENCODING 686
SWIDTH 591 0
DWIDTH 23 0
BBX 20 38 0 -8
BITMAP
C00000
F80000
FC0000
3C0000
1E0000
0E0000
0E0000
0E0000
0E0000
0E0070
0E0070
0E0070
0E0070
0E0070
0E0070
0E0070
0E0070
0E0070
0E0070
0E0070
0E0070
0E0070
0E0070
0E00F0
0E00F0
0F00F0
0781F0
07FF70
03FE70
01FC70
002070
000070
000070
000070
000070
000070
000070
000070
ENDCHAR
STARTCHAR 02AF
ENCODING 687
SWIDTH 591 0
DWIDTH 23 0
BBX 24 38 0 -8
BITMAP
C00000
F80000
FC0000
3C0000
1E0000
0E0000
0E0000
0E0000
0E0000
0E0070
0E0070
0E0070
0E0070
0E0070
0E0070
0E0070
0E0070
0E0070
0E0070
0E0070
0E0070
0E0070
0E0070
0E00F0
0E00F0
0F00F0
0781F0
07FF70
03FE70
01FC70
002070
000070
000070
000070
000078
00003F
00003F
00000F
ENDCHAR
STARTCHAR 02B0
ENCODING 688
SWIDTH 360 0
DWIDTH 14 0
BBX 10 16 2 13
BITMAP
C000
C000
C000
C000
CF00
DF80
E1C0
C0C0
C0C0
C0C0
C0C0
C0C0
C0C0
C0C0
C0C0
C0C0
ENDCHAR
STARTCHAR 02B1
ENCODING 689
SWIDTH 360 0
DWIDTH 14 0
BBX 10 16 2 13
BITMAP
7C00
E000
C000
C000
CF00
DF80
E1C0
C0C0
C0C0
C0C0
C0C0
C0C0
C0C0
C0C0
C0C0
C0C0
ENDCHAR
STARTCHAR 02B2
ENCODING 690
SWIDTH 154 0
DWIDTH 6 0
BBX 4 21 0 8
BITMAP
30
30
00
00
30
30
30
30
30
30
30
30
30
30
30
30
30
30
30
E0
C0
ENDCHAR
STARTCHAR 02B3
ENCODING 691
SWIDTH 231 0
DWIDTH 9 0
BBX 7 12 2 13
BITMAP
CE
FE
E0
E0
C0
C0
C0
C0
C0
C0
C0
C0
ENDCHAR
STARTCHAR 02B4
ENCODING 692
SWIDTH 257 0
DWIDTH 10 0
BBX 7 13 1 12
BITMAP
06
06
06
06
06
06
06
06
06
06
1E
F6
C0
ENDCHAR
STARTCHAR 02B5
ENCODING 693
SWIDTH 257 0
DWIDTH 10 0
BBX 10 17 1 8
BITMAP
0600
0600
0600
0600
0600
0600
0600
0600
0600
0600
1E00
F600
C600
0600
0300
03C0
01C0
ENDCHAR
STARTCHAR 02B6
ENCODING 694
SWIDTH 334 0
DWIDTH 13 0
BBX 10 12 1 13
BITMAP
C0C0
C1C0
C180
C300
C300
FE00
FE00
C300
C300
C300
CF00
FE00
ENDCHAR
STARTCHAR 02B7
ENCODING 695
SWIDTH 462 0
DWIDTH 18 0
BBX 16 12 1 13
BITMAP
C183
C1C3
43C3
63C6
6346
6666
3666
366C
342C
3C3C
1C38
1C38
ENDCHAR
STARTCHAR 02B8
ENCODING 696
SWIDTH 334 0
DWIDTH 13 0
BBX 11 17 1 8
BITMAP
C060
C060
60E0
60C0
60C0
3180
3180
1B80
1B00
1B00
0E00
0E00
0E00
0C00
1C00
7800
7000
ENDCHAR
STARTCHAR 02B9
ENCODING 697
SWIDTH 257 0
DWIDTH 10 0
BBX 4 9 3 22
BITMAP
70
70
70
E0
E0
E0
E0
E0
C0
ENDCHAR
STARTCHAR 02BA
ENCODING 698
SWIDTH 411 0
DWIDTH 16 0
BBX 10 9 3 22
BITMAP
71C0
71C0
71C0
E1C0
E1C0
E180
E380
E380
C380
ENDCHAR
STARTCHAR 02BB
ENCODING 699
SWIDTH 282 0
DWIDTH 11 0
BBX 5 9 3 19
BITMAP
38
38
70
70
F0
F0
F0
F0
F0
ENDCHAR
STARTCHAR 02BC
ENCODING 700
SWIDTH 282 0
DWIDTH 11 0
BBX 5 9 3 19
BITMAP
78
78
78
78
70
70
E0
E0
C0
ENDCHAR
STARTCHAR 02BD
ENCODING 701
SWIDTH 282 0
DWIDTH 11 0
BBX 5 9 3 24
BITMAP
F0
F0
F0
70
70
38
38
38
18
ENDCHAR
STARTCHAR 02BE
ENCODING 702
SWIDTH 282 0
DWIDTH 11 0
BBX 5 11 2 19
BITMAP
80
E0
F0
30
38
18
38
30
F0
E0
C0
ENDCHAR
STARTCHAR 02BF
ENCODING 703
SWIDTH 282 0
DWIDTH 11 0
BBX 5 11 2 19
BITMAP
08
38
78
E0
C0
C0
C0
E0
78
38
18
ENDCHAR
STARTCHAR 02C0
ENCODING 704
SWIDTH 334 0
DWIDTH 13 0
BBX 9 16 2 13
BITMAP
FE00
CF00
0380
0180
0180
0180
0380
0700
1E00
1800
1800
1800
1800
1800
1800
1800
ENDCHAR
STARTCHAR 02C1
ENCODING 705
SWIDTH 334 0
DWIDTH 13 0
BBX 9 16 2 13
BITMAP
3F80
7980
E000
C000
C000
C000
E000
7000
3C00
0C00
0C00
0C00
0C00
0C00
0C00
0C00
ENDCHAR
STARTCHAR 02C2
ENCODING 706
SWIDTH 462 0
DWIDTH 18 0
BBX 8 11 5 21
BITMAP
03
0F
3E
78
F0
C0
F0
78
1E
0F
03
ENDCHAR
STARTCHAR 02C3
ENCODING 707
SWIDTH 462 0
DWIDTH 18 0
BBX 8 11 5 21
BITMAP
C0
E0
F8
3E
0F
03
0F
3E
F8
E0
80
ENDCHAR
STARTCHAR 02C4
ENCODING 708
SWIDTH 462 0
DWIDTH 18 0
BBX 10 9 4 22
BITMAP
1C00
1E00
3E00
3700
7300
6380
E180
C1C0
C0C0
ENDCHAR
STARTCHAR 02C5
ENCODING 709
SWIDTH 462 0
DWIDTH 18 0
BBX 10 9 4 22
BITMAP
C0C0
C1C0
6180
6380
7300
3700
3E00
1E00
1C00
ENDCHAR
STARTCHAR 02C6
ENCODING 710
SWIDTH 462 0
DWIDTH 18 0
BBX 10 7 4 24
BITMAP
1C00
1E00
3F00
7300
6380
E180
C0C0
ENDCHAR
STARTCHAR 02C7
ENCODING 711
SWIDTH 462 0
DWIDTH 18 0
BBX 10 7 4 24
BITMAP
C1C0
E180
6380
7700
3F00
1E00
1C00
ENDCHAR
STARTCHAR 02C8
ENCODING 712
SWIDTH 257 0
DWIDTH 10 0
BBX 2 11 4 19
BITMAP
C0
C0
C0
C0
C0
C0
C0
C0
C0
C0
C0
ENDCHAR
STARTCHAR 02C9
ENCODING 713
SWIDTH 462 0
DWIDTH 18 0
BBX 10 3 4 26
BITMAP
FFC0
FFC0
FFC0
ENDCHAR
STARTCHAR 02CA
ENCODING 714
SWIDTH 462 0
DWIDTH 18 0
BBX 7 7 7 24
BITMAP
0E
1C
38
38
70
E0
C0
ENDCHAR
STARTCHAR 02CB
ENCODING 715
SWIDTH 462 0
DWIDTH 18 0
BBX 8 7 3 24
BITMAP
F0
70
38
1C
0C
0E
07
ENDCHAR
STARTCHAR 02CC
ENCODING 716
SWIDTH 257 0
DWIDTH 10 0
BBX 2 11 4 -6
BITMAP
C0
C0
C0
C0
C0
C0
C0
C0
C0
C0
C0
ENDCHAR
STARTCHAR 02CD
ENCODING 717
SWIDTH 462 0
DWIDTH 18 0
BBX 10 3 4 -6
BITMAP
FFC0
FFC0
FFC0
ENDCHAR
STARTCHAR 02CE
ENCODING 718
SWIDTH 462 0
DWIDTH 18 0
BBX 8 7 3 -9
BITMAP
F0
70
38
1C
1C
0E
07
ENDCHAR
STARTCHAR 02CF
ENCODING 719
SWIDTH 462 0
DWIDTH 18 0
BBX 7 7 7 -9
BITMAP
0E
1C
1C
38
70
E0
E0
ENDCHAR
STARTCHAR 02D0
ENCODING 720
SWIDTH 308 0
DWIDTH 12 0
BBX 6 20 2 0
BITMAP
FC
78
78
30
30
20
00
00
00
00
00
00
00
00
20
30
30
78
78
FC
ENDCHAR
STARTCHAR 02D1
ENCODING 721
SWIDTH 308 0
DWIDTH 12 0
BBX 6 6 2 14
BITMAP
FC
78
78
30
30
20
ENDCHAR
STARTCHAR 02D2
ENCODING 722
SWIDTH 282 0
DWIDTH 11 0
BBX 5 11 2 10
BITMAP
80
E0
F0
30
38
18
38
30
F0
E0
C0
ENDCHAR
STARTCHAR 02D3
ENCODING 723
SWIDTH 282 0
DWIDTH 11 0
BBX 5 11 2 10
BITMAP
08
38
78
E0
C0
C0
C0
E0
78
38
18
ENDCHAR
STARTCHAR 02D4
ENCODING 724
SWIDTH 462 0
DWIDTH 18 0
BBX 8 8 5 9
BITMAP
38
38
38
38
38
FF
FF
FF
ENDCHAR
STARTCHAR 02D5
ENCODING 725
SWIDTH 462 0
DWIDTH 18 0
BBX 8 8 5 9
BITMAP
FF
FF
38
38
38
38
38
38
ENDCHAR
STARTCHAR 02D6
ENCODING 726
SWIDTH 360 0
DWIDTH 14 0
BBX 10 11 2 5
BITMAP
0C00
0C00
0C00
0C00
FFC0
FFC0
FFC0
0C00
0C00
0C00
0C00
ENDCHAR
STARTCHAR 02D7
ENCODING 727
SWIDTH 282 0
DWIDTH 11 0
BBX 7 3 2 9
BITMAP
FE
FE
FE
ENDCHAR
STARTCHAR 02D8
ENCODING 728
SWIDTH 462 0
DWIDTH 18 0
BBX 11 6 3 25
BITMAP
C060
6060
60E0
7FC0
3FC0
0F00
ENDCHAR
STARTCHAR 02D9
ENCODING 729
SWIDTH 462 0
DWIDTH 18 0
BBX 4 4 7 26
BITMAP
F0
F0
F0
F0
ENDCHAR
STARTCHAR 02DA
ENCODING 730
SWIDTH 462 0
DWIDTH 18 0
BBX 9 10 4 24
BITMAP
3E00
7F00
6380
E180
C180
C180
E180
6380
7F00
3E00
ENDCHAR
STARTCHAR 02DB
ENCODING 731
SWIDTH 462 0
DWIDTH 18 0
BBX 6 7 6 -8
BITMAP
60
E0
C0
C0
C0
FC
FC
ENDCHAR
STARTCHAR 02DC
ENCODING 732
SWIDTH 462 0
DWIDTH 18 0
BBX 11 5 3 25
BITMAP
7860
7C60
EFE0
C7E0
C3C0
ENDCHAR
STARTCHAR 02DD
ENCODING 733
SWIDTH 462 0
DWIDTH 18 0
BBX 12 7 4 24
BITMAP
1C70
18E0
38E0
31C0
7180
6380
E300
ENDCHAR
STARTCHAR 02DE
ENCODING 734
SWIDTH 282 0
DWIDTH 11 0
BBX 12 11 0 9
BITMAP
0F00
1F00
7F00
FF00
E700
C700
0700
0780
03F0
01F0
00F0
ENDCHAR
STARTCHAR 02DF
ENCODING 735
SWIDTH 462 0
DWIDTH 18 0
BBX 9 7 4 24
BITMAP
7380
3F00
3E00
1C00
3E00
7700
F380
ENDCHAR
STARTCHAR 02E0
ENCODING 736
SWIDTH 385 0
DWIDTH 15 0
BBX 11 17 2 8
BITMAP
C060
60C0
31C0
3B80
1F00
0E00
0E00
1F00
1B00
3180
3180
3180
60C0
60C0
71C0
7FC0
1F00
ENDCHAR
STARTCHAR 02E1
ENCODING 737
SWIDTH 154 0
DWIDTH 6 0
BBX 2 16 2 13
BITMAP
C0
C0
C0
C0
C0
C0
C0
C0
C0
C0
C0
C0
C0
C0
C0
C0
ENDCHAR
STARTCHAR 02E2
ENCODING 738
SWIDTH 334 0
DWIDTH 13 0
BBX 9 12 2 13
BITMAP
3F80
7380
C000
C000
E000
7E00
1F00
0380
0180
0180
E780
FF00
ENDCHAR
STARTCHAR 02E3
ENCODING 739
SWIDTH 411 0
DWIDTH 16 0
BBX 11 12 2 13
BITMAP
6060
70E0
30C0
1980
0F00
0F00
0E00
0F00
1980
31C0
70C0
E060
ENDCHAR
STARTCHAR 02E4
ENCODING 740
SWIDTH 334 0
DWIDTH 13 0
BBX 9 16 2 13
BITMAP
3F80
7980
E000
C000
C000
C000
E000
7000
3C00
0C00
0C00
0C00
0C00
0C00
0C00
0C00
ENDCHAR
STARTCHAR 02E5
ENCODING 741
SWIDTH 437 0
DWIDTH 17 0
BBX 10 26 4 0
BITMAP
FFC0
FFC0
FFC0
01C0
01C0
01C0
01C0
01C0
01C0
01C0
01C0
01C0
01C0
01C0
01C0
01C0
01C0
01C0
01C0
01C0
01C0
01C0
01C0
01C0
01C0
01C0
ENDCHAR
STARTCHAR 02E6
ENCODING 742
SWIDTH 437 0
DWIDTH 17 0
BBX 10 26 4 0
BITMAP
01C0
01C0
01C0
01C0
01C0
01C0
FFC0
FFC0
01C0
01C0
01C0
01C0
01C0
01C0
01C0
01C0
01C0
01C0
01C0
01C0
01C0
01C0
01C0
01C0
01C0
01C0
ENDCHAR
STARTCHAR 02E7
ENCODING 743
SWIDTH 437 0
DWIDTH 17 0
BBX 10 26 4 0
BITMAP
01C0
01C0
01C0
01C0
01C0
01C0
01C0
01C0
01C0
01C0
01C0
01C0
FFC0
FFC0
01C0
01C0
01C0
01C0
01C0
01C0
01C0
01C0
01C0
01C0
01C0
01C0
ENDCHAR
STARTCHAR 02E8
ENCODING 744
SWIDTH 437 0
DWIDTH 17 0
BBX 10 26 4 0
BITMAP
01C0
01C0
01C0
01C0
01C0
01C0
01C0
01C0
01C0
01C0
01C0
01C0
01C0
01C0
01C0
01C0
01C0
01C0
FFC0
FFC0
01C0
01C0
01C0
01C0
01C0
01C0
ENDCHAR
STARTCHAR 02E9
ENCODING 745
SWIDTH 437 0
DWIDTH 17 0
BBX 10 26 4 0
BITMAP
01C0
01C0
01C0
01C0
01C0
01C0
01C0
01C0
01C0
01C0
01C0
01C0
01C0
01C0
01C0
01C0
01C0
01C0
01C0
01C0
01C0
01C0
01C0
FFC0
FFC0
FFC0
ENDCHAR
STARTCHAR 02EC
ENCODING 748
SWIDTH 462 0
DWIDTH 18 0
BBX 10 9 4 -10
BITMAP
C0C0
C1C0
6180
6380
7300
3700
3E00
1E00
1C00
ENDCHAR
STARTCHAR 02ED
ENCODING 749
SWIDTH 462 0
DWIDTH 18 0
BBX 10 7 4 24
BITMAP
FFC0
FFC0
FFC0
0000
FFC0
FFC0
FFC0
ENDCHAR
STARTCHAR 02EE
ENCODING 750
SWIDTH 462 0
DWIDTH 18 0
BBX 12 9 3 19
BITMAP
78F0
78F0
78F0
78F0
70E0
70E0
60C0
E1C0
C180
ENDCHAR
STARTCHAR 02F3
ENCODING 755
SWIDTH 462 0
DWIDTH 18 0
BBX 9 10 4 -9
BITMAP
3E00
7F00
6380
E180
C180
C180
E180
6380
7F00
3E00
ENDCHAR
STARTCHAR 02F7
ENCODING 759
SWIDTH 462 0
DWIDTH 18 0
BBX 11 6 3 -8
BITMAP
3860
7C60
7E60
E7E0
C3C0
C000
ENDCHAR
STARTCHAR 0300
ENCODING 768
SWIDTH 0 0
DWIDTH 0 0
BBX 7 7 -14 22
BITMAP
E0
70
78
38
1C
0E
06
ENDCHAR
STARTCHAR 0301
ENCODING 769
SWIDTH 0 0
DWIDTH 0 0
BBX 8 7 -11 22
BITMAP
0F
1E
1C
38
70
70
E0
ENDCHAR
STARTCHAR 0302
ENCODING 770
SWIDTH 0 0
DWIDTH 0 0
BBX 10 7 -14 22
BITMAP
0E00
1F00
3F00
3380
7180
61C0
C0C0
ENDCHAR
STARTCHAR 0303
ENCODING 771
SWIDTH 0 0
DWIDTH 0 0
BBX 11 5 -14 25
BITMAP
7860
FC60
CEC0
C7C0
C380
ENDCHAR
STARTCHAR 0304
ENCODING 772
SWIDTH 0 0
DWIDTH 0 0
BBX 10 3 -14 26
BITMAP
FFC0
FFC0
FFC0
ENDCHAR
STARTCHAR 0305
ENCODING 773
SWIDTH 0 0
DWIDTH 0 0
BBX 18 3 -18 27
BITMAP
FFFFC0
FFFFC0
FFFFC0
ENDCHAR
STARTCHAR 0306
ENCODING 774
SWIDTH 0 0
DWIDTH 0 0
BBX 10 6 -14 25
BITMAP
C0C0
C0C0
E1C0
7FC0
7F80
1E00
ENDCHAR
STARTCHAR 0307
ENCODING 775
SWIDTH 0 0
DWIDTH 0 0
BBX 3 5 -10 22
BITMAP
E0
E0
E0
E0
E0
ENDCHAR
STARTCHAR 0308
ENCODING 776
SWIDTH 0 0
DWIDTH 0 0
BBX 10 4 -14 22
BITMAP
F1C0
F1C0
F1C0
F1C0
ENDCHAR
STARTCHAR 0309
ENCODING 777
SWIDTH 0 0
DWIDTH 0 0
BBX 7 8 -12 24
BITMAP
10
FE
86
06
06
1C
18
30
ENDCHAR
STARTCHAR 030A
ENCODING 778
SWIDTH 0 0
DWIDTH 0 0
BBX 9 10 -13 24
BITMAP
3E00
7F00
E300
C380
C180
C180
C380
E300
7F00
3E00
ENDCHAR
STARTCHAR 030B
ENCODING 779
SWIDTH 0 0
DWIDTH 0 0
BBX 11 7 -13 24
BITMAP
18E0
38E0
31C0
7180
6380
E300
C700
ENDCHAR
STARTCHAR 030C
ENCODING 780
SWIDTH 0 0
DWIDTH 0 0
BBX 10 7 -14 22
BITMAP
E0C0
61C0
7180
3B80
1F00
1E00
0E00
ENDCHAR
STARTCHAR 030D
ENCODING 781
SWIDTH 0 0
DWIDTH 0 0
BBX 2 8 -10 24
BITMAP
C0
C0
C0
C0
C0
C0
C0
C0
ENDCHAR
STARTCHAR 030E
ENCODING 782
SWIDTH 0 0
DWIDTH 0 0
BBX 9 8 -13 24
BITMAP
C180
C180
C180
C180
C180
C180
C180
C180
ENDCHAR
STARTCHAR 030F
ENCODING 783
SWIDTH 0 0
DWIDTH 0 0
BBX 12 7 -16 24
BITMAP
E380
71C0
31C0
38E0
18E0
1C60
0C70
ENDCHAR
STARTCHAR 0310
ENCODING 784
SWIDTH 0 0
DWIDTH 0 0
BBX 10 11 -14 25
BITMAP
0E00
0E00
0E00
0E00
0E00
C0C0
C0C0
E1C0
7FC0
7F80
1E00
ENDCHAR
STARTCHAR 0311
ENCODING 785
SWIDTH 0 0
DWIDTH 0 0
BBX 10 6 -14 25
BITMAP
0C00
3F80
7FC0
E1C0
C0C0
C0C0
ENDCHAR
STARTCHAR 0312
ENCODING 786
SWIDTH 0 0
DWIDTH 0 0
BBX 5 6 -8 19
BITMAP
38
30
70
70
F0
F0
ENDCHAR
STARTCHAR 0313
ENCODING 787
SWIDTH 0 0
DWIDTH 0 0
BBX 4 10 -11 23
BITMAP
F0
F0
F0
F0
F0
30
30
F0
E0
C0
ENDCHAR
STARTCHAR 0314
ENCODING 788
SWIDTH 0 0
DWIDTH 0 0
BBX 4 10 -11 23
BITMAP
F0
F0
F0
F0
F0
E0
E0
70
70
10
ENDCHAR
STARTCHAR 0315
ENCODING 789
SWIDTH 0 0
DWIDTH 0 0
BBX 4 8 -2 22
BITMAP
70
70
70
E0
E0
E0
E0
C0
ENDCHAR
STARTCHAR 0316
ENCODING 790
SWIDTH 0 0
DWIDTH 0 0
BBX 7 7 -14 -10
BITMAP
E0
70
78
38
1C
0E
06
ENDCHAR
STARTCHAR 0317
ENCODING 791
SWIDTH 0 0
DWIDTH 0 0
BBX 8 7 -11 -10
BITMAP
0F
1E
1C
38
70
70
E0
ENDCHAR
STARTCHAR 0318
ENCODING 792
SWIDTH 0 0
DWIDTH 0 0
BBX 5 8 -13 -9
BITMAP
18
18
18
F8
F8
18
18
18
ENDCHAR
STARTCHAR 0319
ENCODING 793
SWIDTH 0 0
DWIDTH 0 0
BBX 5 8 -10 -9
BITMAP
C0
C0
C0
F8
F8
C0
C0
C0
ENDCHAR
STARTCHAR 031A
ENCODING 794
SWIDTH 0 0
DWIDTH 0 0
BBX 8 9 -7 27
BITMAP
FF
FF
03
03
03
03
03
03
03
ENDCHAR
STARTCHAR 031B
ENCODING 795
SWIDTH 0 0
DWIDTH 0 0
BBX 7 7 -5 17
BITMAP
06
06
06
86
EE
7E
3C
ENDCHAR
STARTCHAR 031C
ENCODING 796
SWIDTH 0 0
DWIDTH 0 0
BBX 4 8 -11 -9
BITMAP
30
70
F0
C0
C0
E0
70
70
ENDCHAR
STARTCHAR 031D
ENCODING 797
SWIDTH 0 0
DWIDTH 0 0
BBX 8 6 -13 -9
BITMAP
18
18
18
18
FF
FF
ENDCHAR
STARTCHAR 031E
ENCODING 798
SWIDTH 0 0
DWIDTH 0 0
BBX 8 6 -13 -9
BITMAP
FF
FF
FF
18
18
18
ENDCHAR
STARTCHAR 031F
ENCODING 799
SWIDTH 0 0
DWIDTH 0 0
BBX 8 8 -13 -9
BITMAP
18
18
18
FF
FF
18
18
18
ENDCHAR
STARTCHAR 0320
ENCODING 800
SWIDTH 0 0
DWIDTH 0 0
BBX 8 2 -13 -7
BITMAP
FF
FF
ENDCHAR
STARTCHAR 0321
ENCODING 801
SWIDTH 0 0
DWIDTH 0 0
BBX 10 10 -11 -8
BITMAP
01C0
01C0
01C0
01C0
01C0
01C0
03C0
FF80
FF80
FE00
ENDCHAR
STARTCHAR 0322
ENCODING 802
SWIDTH 0 0
DWIDTH 0 0
BBX 10 10 -11 -8
BITMAP
E000
E000
E000
E000
E000
E000
F000
7FC0
7FC0
1FC0
ENDCHAR
STARTCHAR 0323
ENCODING 803
SWIDTH 0 0
DWIDTH 0 0
BBX 3 4 -10 -7
BITMAP
E0
E0
E0
E0
ENDCHAR
STARTCHAR 0324
ENCODING 804
SWIDTH 0 0
DWIDTH 0 0
BBX 10 4 -14 -7
BITMAP
F1C0
F1C0
F1C0
F1C0
ENDCHAR
STARTCHAR 0325
ENCODING 805
SWIDTH 0 0
DWIDTH 0 0
BBX 7 8 -12 -9
BITMAP
30
7C
FC
C6
C6
CE
FC
7C
ENDCHAR
STARTCHAR 0326
ENCODING 806
SWIDTH 0 0
DWIDTH 0 0
BBX 5 6 -11 -9
BITMAP
78
70
70
E0
E0
C0
ENDCHAR
STARTCHAR 0327
ENCODING 807
SWIDTH 0 0
DWIDTH 0 0
BBX 8 8 -13 -8
BITMAP
0C
06
06
06
07
FE
FE
10
ENDCHAR
STARTCHAR 0328
ENCODING 808
SWIDTH 0 0
DWIDTH 0 0
BBX 7 7 -12 -8
BITMAP
30
60
E0
E0
E0
FE
7E
ENDCHAR
STARTCHAR 0329
ENCODING 809
SWIDTH 0 0
DWIDTH 0 0
BBX 2 7 -10 -9
BITMAP
C0
C0
C0
C0
C0
C0
C0
ENDCHAR
STARTCHAR 032A
ENCODING 810
SWIDTH 0 0
DWIDTH 0 0
BBX 9 6 -13 -8
BITMAP
FF80
FF80
FF80
C180
C180
C180
ENDCHAR
STARTCHAR 032B
ENCODING 811
SWIDTH 0 0
DWIDTH 0 0
BBX 14 6 -16 -9
BITMAP
C30C
C30C
E79C
7FFC
7FF8
1860
ENDCHAR
STARTCHAR 032C
ENCODING 812
SWIDTH 0 0
DWIDTH 0 0
BBX 10 7 -14 -9
BITMAP
E0C0
61C0
7180
3B80
1F00
1E00
0E00
ENDCHAR
STARTCHAR 032D
ENCODING 813
SWIDTH 0 0
DWIDTH 0 0
BBX 10 7 -14 -9
BITMAP
0E00
1E00
3F00
3380
7180
61C0
C0C0
ENDCHAR
STARTCHAR 032E
ENCODING 814
SWIDTH 0 0
DWIDTH 0 0
BBX 10 6 -14 -9
BITMAP
C0C0
C0C0
E1C0
7FC0
7F80
1E00
ENDCHAR
STARTCHAR 032F
ENCODING 815
SWIDTH 0 0
DWIDTH 0 0
BBX 10 6 -14 -9
BITMAP
1E00
7F80
7FC0
E1C0
C0C0
C0C0
ENDCHAR
STARTCHAR 0330
ENCODING 816
SWIDTH 0 0
DWIDTH 0 0
BBX 11 5 -14 -9
BITMAP
7860
FC60
CEC0
C7C0
C380
ENDCHAR
STARTCHAR 0331
ENCODING 817
SWIDTH 0 0
DWIDTH 0 0
BBX 10 3 -14 -6
BITMAP
FFC0
FFC0
FFC0
ENDCHAR
STARTCHAR 0332
ENCODING 818
SWIDTH 0 0
DWIDTH 0 0
BBX 18 3 -18 -9
BITMAP
FFFFC0
FFFFC0
FFFFC0
ENDCHAR
STARTCHAR 0333
ENCODING 819
SWIDTH 0 0
DWIDTH 0 0
BBX 18 9 -18 -9
BITMAP
FFFFC0
FFFFC0
FFFFC0
000000
000000
000000
FFFFC0
FFFFC0
FFFFC0
ENDCHAR
STARTCHAR 0334
ENCODING 820
SWIDTH 0 0
DWIDTH 0 0
BBX 19 6 -20 9
BITMAP
0F0020
3FC060
FFFFE0
F1FFE0
C03F80
800600
ENDCHAR
STARTCHAR 0335
ENCODING 821
SWIDTH 0 0
DWIDTH 0 0
BBX 9 3 -11 9
BITMAP
FF80
FF80
FF80
ENDCHAR
STARTCHAR 0336
ENCODING 822
SWIDTH 0 0
DWIDTH 0 0
BBX 22 3 -22 9
BITMAP
FFFFFC
FFFFFC
FFFFFC
ENDCHAR
STARTCHAR 0337
ENCODING 823
SWIDTH 0 0
DWIDTH 0 0
BBX 19 25 -20 -2
BITMAP
000040
0000E0
0001C0
000180
000380
000700
000E00
000C00
001C00
003800
007000
006000
00E000
01C000
038000
030000
070000
0E0000
1C0000
180000
380000
700000
E00000
C00000
400000
ENDCHAR
STARTCHAR 0338
ENCODING 824
SWIDTH 0 0
DWIDTH 0 0
BBX 24 31 -26 -1
BITMAP
000002
000007
000007
00000E
00001C
000038
000038
000070
0000E0
0001C0
0001C0
000380
000700
000E00
000E00
001C00
003800
007000
00F000
00E000
01C000
038000
078000
070000
0E0000
1C0000
380000
380000
700000
E00000
400000
ENDCHAR
STARTCHAR 0339
ENCODING 825
SWIDTH 0 0
DWIDTH 0 0
BBX 3 8 -10 -9
BITMAP
80
C0
E0
60
60
60
E0
C0
ENDCHAR
STARTCHAR 033A
ENCODING 826
SWIDTH 0 0
DWIDTH 0 0
BBX 9 6 -13 -8
BITMAP
C180
C180
C180
FF80
FF80
FF80
ENDCHAR
STARTCHAR 033B
ENCODING 827
SWIDTH 0 0
DWIDTH 0 0
BBX 8 8 -13 -9
BITMAP
FF
FF
C3
C3
C3
C3
FF
FF
ENDCHAR
STARTCHAR 033C
ENCODING 828
SWIDTH 0 0
DWIDTH 0 0
BBX 14 6 -16 -9
BITMAP
1C70
7FF8
7FFC
E38C
C30C
C30C
ENDCHAR
STARTCHAR 033D
ENCODING 829
SWIDTH 0 0
DWIDTH 0 0
BBX 7 9 -12 24
BITMAP
04
C4
EE
7C
38
7C
FE
CE
44
ENDCHAR
STARTCHAR 033E
ENCODING 830
SWIDTH 0 0
DWIDTH 0 0
BBX 5 10 -9 23
BITMAP
38
78
E0
E0
70
38
18
38
F8
E0
ENDCHAR
STARTCHAR 033F
ENCODING 831
SWIDTH 0 0
DWIDTH 0 0
BBX 18 9 -18 21
BITMAP
FFFFC0
FFFFC0
FFFFC0
000000
000000
000000
FFFFC0
FFFFC0
FFFFC0
ENDCHAR
STARTCHAR 0340
ENCODING 832
SWIDTH 0 0
DWIDTH 0 0
BBX 7 7 -14 24
BITMAP
E0
70
78
38
1C
0E
06
ENDCHAR
STARTCHAR 0341
ENCODING 833
SWIDTH 0 0
DWIDTH 0 0
BBX 8 7 -11 24
BITMAP
0F
1E
1C
38
70
70
E0
ENDCHAR
STARTCHAR 0342
ENCODING 834
SWIDTH 0 0
DWIDTH 0 0
BBX 11 5 -14 25
BITMAP
7860
FC60
CEC0
C7C0
C380
ENDCHAR
STARTCHAR 0343
ENCODING 835
SWIDTH 0 0
DWIDTH 0 0
BBX 4 10 -11 23
BITMAP
F0
F0
F0
F0
F0
30
30
F0
E0
C0
ENDCHAR
STARTCHAR 0344
ENCODING 836
SWIDTH 0 0
DWIDTH 0 0
BBX 11 12 -14 26
BITMAP
01E0
01C0
0380
0700
0700
0E00
1C00
0000
F1E0
F1E0
F1E0
F1E0
ENDCHAR
STARTCHAR 0345
ENCODING 837
SWIDTH 0 0
DWIDTH 0 0
BBX 4 6 -10 -8
BITMAP
E0
E0
E0
E0
E0
70
ENDCHAR
STARTCHAR 0346
ENCODING 838
SWIDTH 0 0
DWIDTH 0 0
BBX 10 6 -14 25
BITMAP
FFC0
FFC0
FFC0
E0C0
E0C0
E0C0
ENDCHAR
STARTCHAR 0347
ENCODING 839
SWIDTH 0 0
DWIDTH 0 0
BBX 8 8 -13 -9
BITMAP
FF
FF
FF
00
00
00
FF
FF
ENDCHAR
STARTCHAR 0348
ENCODING 840
SWIDTH 0 0
DWIDTH 0 0
BBX 8 7 -13 -9
BITMAP
E3
E3
E3
E3
E3
E3
E3
ENDCHAR
STARTCHAR 0349
ENCODING 841
SWIDTH 0 0
DWIDTH 0 0
BBX 8 8 -13 -9
BITMAP
FF
FF
FF
03
03
03
03
03
ENDCHAR
STARTCHAR 034A
ENCODING 842
SWIDTH 0 0
DWIDTH 0 0
BBX 11 7 -14 24
BITMAP
0300
7E60
FE60
CEE0
CFC0
DB80
1000
ENDCHAR
STARTCHAR 034B
ENCODING 843
SWIDTH 0 0
DWIDTH 0 0
BBX 11 11 -14 22
BITMAP
0300
0300
0300
3060
FC60
FFC0
C7C0
0000
3800
3800
3800
ENDCHAR
STARTCHAR 034C
ENCODING 844
SWIDTH 0 0
DWIDTH 0 0
BBX 11 9 -14 23
BITMAP
7860
FCE0
EFC0
C7C0
0000
7C60
FFE0
CFC0
C380
ENDCHAR
STARTCHAR 034D
ENCODING 845
SWIDTH 0 0
DWIDTH 0 0
BBX 14 8 -16 -9
BITMAP
1870
3030
7018
7FFC
FFFC
6018
3030
1830
ENDCHAR
STARTCHAR 034E
ENCODING 846
SWIDTH 0 0
DWIDTH 0 0
BBX 7 7 -12 -9
BITMAP
30
78
FC
F6
B2
30
30
ENDCHAR
STARTCHAR 034F
ENCODING 847
SWIDTH 0 0
DWIDTH 0 0
BBX 0 0 0 0
BITMAP
ENDCHAR
STARTCHAR 0351
ENCODING 849
SWIDTH 0 0
DWIDTH 0 0
BBX 5 10 -11 24
BITMAP
38
78
E0
C0
C0
C0
C0
E0
78
38
ENDCHAR
STARTCHAR 0352
ENCODING 850
SWIDTH 0 0
DWIDTH 0 0
BBX 10 10 -14 21
BITMAP
0C00
3F80
7FC0
E1C0
C0C0
CEC0
0E00
0E00
0E00
0E00
ENDCHAR
STARTCHAR 0353
ENCODING 851
SWIDTH 0 0
DWIDTH 0 0
BBX 7 9 -12 -9
BITMAP
04
C4
EE
7C
38
7C
FE
CE
44
ENDCHAR
STARTCHAR 0357
ENCODING 855
SWIDTH 0 0
DWIDTH 0 0
BBX 5 10 -11 24
BITMAP
C0
E0
70
30
38
38
30
70
E0
C0
ENDCHAR
STARTCHAR 0358
ENCODING 856
SWIDTH 0 0
DWIDTH 0 0
BBX 4 4 -4 26
BITMAP
F0
F0
F0
F0
ENDCHAR
STARTCHAR 035A
ENCODING 858
SWIDTH 0 0
DWIDTH 0 0
BBX 13 8 -15 -9
BITMAP
38C0
7FF0
FFF0
C630
C638
C730
FFF0
7DE0
ENDCHAR
STARTCHAR 035C
ENCODING 860
SWIDTH 0 0
DWIDTH 0 0
BBX 32 7 -16 -9
BITMAP
80000001
E0000007
F800001F
3F8001FC
0FFFFFF0
03FFFFC0
003FFC00
ENDCHAR
STARTCHAR 035D
ENCODING 861
SWIDTH 0 0
DWIDTH 0 0
BBX 32 7 -16 32
BITMAP
80000001
E0000007
F800001F
3F8001FC
0FFFFFF0
03FFFFC0
003FFC00
ENDCHAR
STARTCHAR 035E
ENCODING 862
SWIDTH 0 0
DWIDTH 0 0
BBX 32 3 -16 33
BITMAP
FFFFFFFF
FFFFFFFF
FFFFFFFF
ENDCHAR
STARTCHAR 035F
ENCODING 863
SWIDTH 0 0
DWIDTH 0 0
BBX 32 3 -16 -6
BITMAP
FFFFFFFF
FFFFFFFF
FFFFFFFF
ENDCHAR
STARTCHAR 0360
ENCODING 864
SWIDTH 0 0
DWIDTH 0 0
BBX 24 6 -12 29
BITMAP
0FC003
3FF807
7FFE0F
E03FFE
E00FFC
C00000
ENDCHAR
STARTCHAR 0361
ENCODING 865
SWIDTH 0 0
DWIDTH 0 0
BBX 32 7 -16 29
BITMAP
003FFC00
03FFFFC0
0FFFFFF0
3F8001FC
F800003F
E0000007
80000001
ENDCHAR
STARTCHAR 0362
ENCODING 866
SWIDTH 0 0
DWIDTH 0 0
BBX 30 8 -15 -9
BITMAP
00000030
00000018
00000018
FFFFFFFC
FFFFFFFC
0000001C
00000018
00000030
ENDCHAR
STARTCHAR 0370
ENCODING 880
SWIDTH 591 0
DWIDTH 23 0
BBX 16 28 3 0
BITMAP
F000
F000
F000
F000
F000
F000
F000
F000
F000
F000
F000
FFFF
FFFF
FFFF
F000
F000
F000
F000
F000
F000
F000
F000
F000
F000
F000
F000
F000
F000
ENDCHAR
STARTCHAR 0371
ENCODING 881
SWIDTH 514 0
DWIDTH 20 0
BBX 14 21 3 0
BITMAP
E000
E000
E000
E000
E000
E000
E000
E000
FFFC
FFFC
FFFC
E000
E000
E000
E000
E000
E000
E000
E000
E000
E000
ENDCHAR
STARTCHAR 0372
ENCODING 882
SWIDTH 771 0
DWIDTH 30 0
BBX 24 28 3 0
BITMAP
FFFFFF
FFFFFF
FFFFFF
F03C0F
F03C0F
F03C0F
F03C0F
F03C0F
F03C0F
F03C0F
F03C0F
F03C0F
F03C0F
F03C0F
003C00
003C00
003C00
003C00
003C00
003C00
003C00
003C00
003C00
003C00
003C00
003C00
003C00
003C00
ENDCHAR
STARTCHAR 0373
ENCODING 883
SWIDTH 591 0
DWIDTH 23 0
BBX 16 28 3 0
BITMAP
FFFF
FFFF
FFFF
F1C7
F1C7
F1C7
F1C7
F1C7
F1C7
F1C7
F1C7
F1C7
F1C7
F1C7
01C0
01C0
01C0
01C0
01C0
01C0
01C0
01C0
01C0
01C0
01C0
01C0
01C0
01C0
ENDCHAR
STARTCHAR 0374
ENCODING 884
SWIDTH 257 0
DWIDTH 10 0
BBX 4 9 3 22
BITMAP
70
70
70
E0
E0
E0
E0
E0
C0
ENDCHAR
STARTCHAR 0375
ENCODING 885
SWIDTH 257 0
DWIDTH 10 0
BBX 4 9 3 -8
BITMAP
70
70
70
70
70
E0
E0
E0
E0
ENDCHAR
STARTCHAR 0376
ENCODING 886
SWIDTH 668 0
DWIDTH 26 0
BBX 20 28 3 0
BITMAP
F001F0
F003F0
F003F0
F007F0
F007F0
F00FF0
F00EF0
F01EF0
F01CF0
F03CF0
F038F0
F078F0
F078F0
F0F0F0
F0F0F0
F0E0F0
F1E0F0
F1C0F0
F3C0F0
F380F0
F780F0
F700F0
FF00F0
FE00F0
FE00F0
FC00F0
FC00F0
F800F0
ENDCHAR
STARTCHAR 0377
ENCODING 887
SWIDTH 591 0
DWIDTH 23 0
BBX 17 21 3 0
BITMAP
E00F80
E00F80
E01F80
E03F80
E03F80
E07F80
E07780
E0F780
E0E780
E1C780
E1C780
E38780
E38780
E70780
E70780
EE0780
FE0780
FC0780
FC0780
F80780
F80780
ENDCHAR
STARTCHAR 037A
ENCODING 890
SWIDTH 462 0
DWIDTH 18 0
BBX 4 6 7 -8
BITMAP
E0
E0
E0
E0
60
70
ENDCHAR
STARTCHAR 037B
ENCODING 891
SWIDTH 488 0
DWIDTH 19 0
BBX 15 23 2 -1
BITMAP
1F80
FFE0
FFF0
E0F8
803C
003C
001E
001E
000E
000E
000E
000E
000E
000E
000E
001E
001E
003C
807C
FBF8
FFF0
7FC0
0400
ENDCHAR
STARTCHAR 037C
ENCODING 892
SWIDTH 488 0
DWIDTH 19 0
BBX 15 23 2 -1
BITMAP
01F0
0FFE
1FFE
3E0E
3C00
7800
7000
F000
F1E0
E1E0
E1E0
E1E0
E1E0
E000
F000
F000
7000
7800
3C02
3FBE
1FFE
07FC
0040
ENDCHAR
STARTCHAR 037D
ENCODING 893
SWIDTH 488 0
DWIDTH 19 0
BBX 15 23 2 -1
BITMAP
1F80
FFE0
FFF0
E0F8
803C
003C
001E
001E
0F0E
0F0E
0F0E
0F0E
0F0E
000E
000E
001E
001E
003C
807C
FBF8
FFF0
7FC0
0400
ENDCHAR
STARTCHAR 037E
ENCODING 894
SWIDTH 308 0
DWIDTH 12 0
BBX 5 25 3 -5
BITMAP
78
78
78
78
78
00
00
00
00
00
00
00
00
00
00
78
78
78
78
70
70
E0
E0
C0
C0
ENDCHAR
STARTCHAR 037F
ENCODING 895
SWIDTH 257 0
DWIDTH 10 0
BBX 9 36 -2 -8
BITMAP
0780
0780
0780
0780
0780
0780
0780
0780
0780
0780
0780
0780
0780
0780
0780
0780
0780
0780
0780
0780
0780
0780
0780
0780
0780
0780
0780
0780
0780
0780
0700
0F00
3F00
FE00
FC00
F000
ENDCHAR
STARTCHAR 0384
ENCODING 900
SWIDTH 462 0
DWIDTH 18 0
BBX 7 7 7 24
BITMAP
0E
1C
38
38
70
E0
C0
ENDCHAR
STARTCHAR 0385
ENCODING 901
SWIDTH 462 0
DWIDTH 18 0
BBX 10 12 4 26
BITMAP
01C0
0380
0700
0700
0E00
1C00
1800
0000
E3C0
E3C0
E3C0
E3C0
ENDCHAR
STARTCHAR 0386
ENCODING 902
SWIDTH 617 0
DWIDTH 24 0
BBX 24 31 0 0
BITMAP
038000
070000
0E0000
0E3C00
1C7E00
387E00
307E00
00FF00
00E700
00E700
01E780
01C380
01C380
03C3C0
0381C0
0381C0
0781E0
0700E0
0700E0
0F00F0
0E0070
0FFFF0
1FFFF8
1FFFF8
3C003C
3C003C
38001C
78001E
78001E
70000E
F0000F
ENDCHAR
STARTCHAR 0387
ENCODING 903
SWIDTH 282 0
DWIDTH 11 0
BBX 3 5 4 11
BITMAP
E0
E0
E0
E0
E0
ENDCHAR
STARTCHAR 0388
ENCODING 904
SWIDTH 668 0
DWIDTH 26 0
BBX 24 31 0 0
BITMAP
0E0000
1E0000
1C0000
39FFFF
71FFFF
61FFFF
E1E000
01E000
01E000
01E000
01E000
01E000
01E000
01E000
01FFFE
01FFFE
01FFFE
01E000
01E000
01E000
01E000
01E000
01E000
01E000
01E000
01E000
01E000
01E000
01FFFF
01FFFF
01FFFF
ENDCHAR
STARTCHAR 0389
ENCODING 905
SWIDTH 797 0
DWIDTH 31 0
BBX 27 31 0 0
BITMAP
0E000000
1E000000
1C000000
39E001E0
71E001E0
71E001E0
E1E001E0
01E001E0
01E001E0
01E001E0
01E001E0
01E001E0
01E001E0
01E001E0
01FFFFE0
01FFFFE0
01FFFFE0
01E001E0
01E001E0
01E001E0
01E001E0
01E001E0
01E001E0
01E001E0
01E001E0
01E001E0
01E001E0
01E001E0
01E001E0
01E001E0
01E001E0
ENDCHAR
STARTCHAR 038A
ENCODING 906
SWIDTH 360 0
DWIDTH 14 0
BBX 11 31 0 0
BITMAP
0E00
1E00
1C00
39E0
71E0
61E0
E1E0
01E0
01E0
01E0
01E0
01E0
01E0
01E0
01E0
01E0
01E0
01E0
01E0
01E0
01E0
01E0
01E0
01E0
01E0
01E0
01E0
01E0
01E0
01E0
01E0
ENDCHAR
STARTCHAR 038C
ENCODING 908
SWIDTH 745 0
DWIDTH 29 0
BBX 26 32 0 -1
BITMAP
0E000000
1E000000
1C1FC000
387FF000
71FFFC00
73F07E00
E3C01E00
07800F00
0F000780
0F000780
0E000380
1E0003C0
1E0003C0
1E0003C0
1C0001C0
1C0001C0
1C0001C0
1C0001C0
1C0001C0
1C0001C0
1E0003C0
1E0003C0
1E0003C0
0F000780
0F000780
07800F00
07C01F00
03E03E00
01FFFC00
00FFF800
003FE000
00020000
ENDCHAR
STARTCHAR 038E
ENCODING 910
SWIDTH 745 0
DWIDTH 29 0
BBX 28 31 0 0
BITMAP
0E000000
1C000000
3C000000
38F00070
70F000F0
E07801E0
C03801C0
003C03C0
001E0380
001E0780
000F0F00
00070E00
00079E00
0003DC00
0001FC00
0001F800
0000F000
0000F000
0000F000
0000F000
0000F000
0000F000
0000F000
0000F000
0000F000
0000F000
0000F000
0000F000
0000F000
0000F000
0000F000
ENDCHAR
STARTCHAR 038F
ENCODING 911
SWIDTH 745 0
DWIDTH 29 0
BBX 26 31 0 0
BITMAP
0E000000
1C000000
3C0F8000
387FF000
71FFF800
E3FFFC00
C7C03E00
07800F00
0F000F80
0F000780
1E000380
1E0003C0
1C0003C0
1C0003C0
1C0001C0
1C0001C0
1C0001C0
1C0003C0
1C0003C0
1E0003C0
1E000380
0E000780
0F000780
0F000F00
07800F00
03C01E00
01E03C00
00F0F800
3FF8FFC0
3FF8FFC0
3FF8FFC0
ENDCHAR
STARTCHAR 0390
ENCODING 912
SWIDTH 308 0
DWIDTH 12 0
BBX 11 38 0 0
BITMAP
01C0
03C0
0380
0700
0E00
0E00
1C00
0000
F1C0
F1C0
F1C0
F1C0
0000
0000
0000
0000
0000
1C00
1C00
1C00
1C00
1C00
1C00
1C00
1C00
1C00
1C00
1C00
1C00
1C00
1C00
1C00
1C00
1E00
0E00
0FE0
07E0
03E0
ENDCHAR
STARTCHAR 0391
ENCODING 913
SWIDTH 617 0
DWIDTH 24 0
BBX 24 28 0 0
BITMAP
003C00
007E00
007E00
007E00
00FF00
00E700
00E700
01E780
01C380
01C380
03C3C0
0381C0
0381C0
0781E0
0700E0
0700E0
0F00F0
0E0070
0FFFF0
1FFFF8
1FFFF8
3C003C
3C003C
38001C
78001E
78001E
70000E
F0000F
ENDCHAR
STARTCHAR 0392
ENCODING 914
SWIDTH 617 0
DWIDTH 24 0
BBX 19 28 3 0
BITMAP
FFFC00
FFFF00
FFFF00
F00F80
F00780
F00380
F003C0
F00380
F00380
F00780
F00F80
FFFF00
FFFC00
FFFE00
F03F80
F00780
F003C0
F001C0
F001C0
F001E0
F001E0
F001C0
F003C0
F003C0
F00F80
FFFF80
FFFE00
FFF800
ENDCHAR
STARTCHAR 0393
ENCODING 915
SWIDTH 514 0
DWIDTH 20 0
BBX 16 28 3 0
BITMAP
FFFF
FFFF
FFFF
F000
F000
F000
F000
F000
F000
F000
F000
F000
F000
F000
F000
F000
F000
F000
F000
F000
F000
F000
F000
F000
F000
F000
F000
F000
ENDCHAR
ENDFONT
